<?xml version="1.0" encoding="utf-8"?>
<!-- Generator: Adobe Illustrator 22.0.1, SVG Export Plug-In . SVG Version: 6.00 Build 0)  -->
<svg version="1.1" xmlns="http://www.w3.org/2000/svg" xmlns:xlink="http://www.w3.org/1999/xlink" x="0px" y="0px"
	 viewBox="0 0 487.3 231.8" style="enable-background:new 0 0 487.3 231.8;" xml:space="preserve">
<style type="text/css">
	.st0{display:none;}
	.st1{display:inline;}
	.st2{fill:#BBDCF3;}
	.st3{fill:#C3003D;}
	.st4{fill:none;stroke:#FFFFFF;stroke-miterlimit:10;}
	.st5{fill:none;stroke:#000000;stroke-miterlimit:10;}
	.st6{fill:#BBDCEF;}
	.st7{fill:#070809;}
	.st8{fill:#FFFFFF;}
	.st9{display:inline;fill:#BBDCEF;}
	.st10{display:inline;fill:#C3003D;}
	.st11{display:inline;fill:#FFFFFF;}
</style>
<g id="Layer_3" class="st0">
	<g class="st1">
		<path class="st2" d="M373.5,188.4l15.6-15.6l-31.3-31.3l-15.6,15.6c-8.6,8.6-8.6,22.6,0,31.3l0,0C350.9,197,364.9,197,373.5,188.4
			z"/>
		<path class="st2" d="M392.3,169.6l31.3-31.3l-15.8-15.8c-8.5-8.5-22.4-8.5-30.9,0L361,138.4L392.3,169.6z"/>
		<path class="st3" d="M426.7,140.6l-30.4,31.3l15.6,15.6c4.1,4.1,9.4,6.3,14.8,6.5L426.7,140.6z"/>
	</g>
</g>
<g id="Layer_10">
	<path class="st5" d="M225.8,186.8l-17.3-7.1l-2.3,7.9l17,7.9L225.8,186.8c6-3,7.1-8.2,8.5-12.3s5.2-21.9,6.3-30.9
		c1.1-9,1.9-12.6-1.4-21.4c-7.7-28.2-17.3-50.1-22.7-61.9S203.3,47.4,197,45.2c-6.3-2.2-10.4-2.7-13.4-8.8s-9.8-3.1-12.6-1.4
		c-3.5,2.2-8.8,4.8-14.9,4.8"/>
	<path class="st5" d="M200.4,109.4c3.5,3.6,8.8,11.6,9.5,19.7c0.2,2.7,1.5,5,3.6-2.3"/>
	<path class="st5" d="M226.3,131.7c-3,0.1-14.6,5.9-15.3,0"/>
	<path class="st5" d="M212.7,134.4c0.9,11.7-7.6,36.6-4.2,45.3"/>
	<path class="st5" d="M200.4,109.4c0-7,2.3-25.1,13.2-47.6"/>
	<path class="st5" d="M156.1,48.6c0-5.3,23.6-11,23.6-15.6"/>
	<path class="st5" d="M161.1,46.2c2.1-0.8,16.3-3.7,21.5-4.2"/>
	<path class="st5" d="M86.4,186.8l17.3-7.1l2.3,7.9l-17,7.9L86.4,186.8c-6-3-7.1-8.2-8.5-12.3s-5.2-21.9-6.3-30.9
		c-1.1-9-1.9-12.6,1.4-21.4C80.7,94,90.3,72.1,95.7,60.3s13.1-12.9,19.4-15.1s10.4-2.7,13.4-8.8c3-6,9.8-3.1,12.6-1.4
		c3.5,2.2,8.8,4.8,14.9,4.8"/>
	<path class="st5" d="M111.8,109.4c-3.5,3.6-8.8,11.6-9.5,19.7c-0.2,2.7-1.5,5-3.6-2.3"/>
	<path class="st5" d="M85.9,131.7c3,0.1,14.6,5.9,15.3,0"/>
	<path class="st5" d="M99.5,134.4c-0.9,11.7,7.6,36.6,4.2,45.3"/>
	<path class="st5" d="M94.4,72.5c4.1,6.8,18.5,29.5,17.4,40.1s-3.2,42.8-5.8,57c-1.4,4.4,0.7,11.6,3.4,13c4.5,2.4,15.3,9.1,45.2,9.1
		h3c29.9,0,40.7-6.7,45.2-9.1c2.7-1.4,4.9-8.6,3.4-13c-2.6-14.2-4.8-46.4-5.8-57s13.3-33.3,17.4-40.1"/>
	<path class="st5" d="M154.6,199c-27.5,0-41-6.5-44.2-7.3s-1.1-5.9-1.1-9.1l1.1-16.5c7-5.7,17.1-21.5,19.4-26.2h24.8h3h24.8
		c2.3,4.7,12.4,20.4,19.4,26.2l1.1,16.5c0,3.2,2.1,8.3-1.1,9.1s-16.6,7.3-44.2,7.3H154.6z"/>
	<path class="st5" d="M111.8,109.4c0-7-2.3-25.1-13.2-47.6"/>
	<path class="st5" d="M132.5,33.1c0,4.6,23.6,10.3,23.6,15.6V199"/>
	<path class="st5" d="M151.1,46.2c-2.1-0.8-16.3-3.7-21.5-4.2"/>
	<path class="st5" d="M407,186.8l-17.3-7.1l-2.3,7.9l17,7.9L407,186.8c6-3,7.1-8.2,8.5-12.3s5.2-21.9,6.3-30.9
		c1.1-9,1.9-12.6-1.4-21.4c-7.7-28.2-17.3-50.1-22.7-61.9s-13.1-12.9-19.4-15.1s-10.4-2.7-13.4-8.8c-3-6-9.8-3.1-12.6-1.4
		c-3.5,2.2-8.8,4.8-14.9,4.8"/>
	<path class="st5" d="M381.7,109.4c3.5,3.6,8.8,11.6,9.5,19.7c0.2,2.7,1.5,5,3.6-2.3"/>
	<path class="st5" d="M407.5,131.7c-3,0.1-14.6,5.9-15.3,0"/>
	<path class="st5" d="M393.9,134.4c0.9,11.7-7.6,36.6-4.2,45.3"/>
	<path class="st5" d="M381.7,109.4c0-7,2.3-25.1,13.2-47.6"/>
	<path class="st5" d="M267.7,186.8l17.3-7.1l2.3,7.9l-17,7.9L267.7,186.8c-6-3-7.1-8.2-8.5-12.3s-5.2-21.9-6.3-30.9
		c-1.1-9-1.9-12.6,1.4-21.4c7.7-28.2,17.3-50.1,22.7-61.9s13.1-12.9,19.4-15.1c6.3-2.2,10.4-2.7,13.4-8.8s9.8-3.1,12.6-1.4
		c3.5,2.2,8.8,4.8,14.9,4.8"/>
	<path class="st5" d="M293,109.4c-3.5,3.6-8.8,11.6-9.5,19.7c-0.2,2.7-1.5,5-3.6-2.3"/>
	<path class="st5" d="M267.2,131.7c3,0.1,14.6,5.9,15.3,0"/>
	<path class="st5" d="M280.8,134.4c-0.9,11.7,7.6,36.6,4.2,45.3"/>
	<path class="st5" d="M275.6,72.5c4.1,6.8,18.5,29.5,17.4,40.1s-3.2,42.8-5.8,57c-1.4,4.4,0.7,11.6,3.4,13
		c4.5,2.4,15.3,9.1,45.2,9.1h3c29.9,0,40.7-6.7,45.2-9.1c2.7-1.4,4.9-8.6,3.4-13c-2.6-14.2-4.8-46.4-5.8-57s13.3-33.3,17.4-40.1"/>
	<path class="st5" d="M384.1,182.7c0,3.2,2.1,8.3-1.1,9.1s-16.6,7.3-44.2,7.3h-3c-27.5,0-41-6.5-44.2-7.3s-1.1-5.9-1.1-9.1"/>
	<path class="st5" d="M293,109.4c0-7-2.3-25.1-13.2-47.6"/>
	<path class="st5" d="M310.2,38.6c3.7,1.9,15.4,7.8,26,7.8c10.6,0,21.6-4.7,26.8-7.8"/>
	<path class="st5" d="M306.2,41.1c4.8,5.5,16.8,22.2,29.7,22.2s31.3-23.4,31.3-23.4"/>
	<path class="st5" d="M335.7,78.2c-11.4,0-20.7-15.9-32-35.6"/>
	<path class="st5" d="M304.9,42c2.4,3.5,19.9,26.1,26.9,26.1"/>
	<path class="st5" d="M335.7,78.2c11.4,0,21.7-17.2,33-37"/>
	<path class="st5" d="M367.9,40.6c-2.4,3.5-21.4,27.5-28.3,27.5"/>
</g>
<g id="Layer_10_copy_2">
</g>
<g id="Layer_10_copy">
</g>
<g id="logo_x27_s">
	<g>
		<path class="st6" d="M166.1,85l1.3-1.3l-2.6-2.6l-1.3,1.3c-0.7,0.7-0.7,1.9,0,2.6l0,0C164.1,85.7,165.3,85.7,166.1,85z"/>
		<path class="st6" d="M167.6,83.4l2.6-2.6l-1.3-1.3c-0.7-0.7-1.9-0.7-2.6,0l-1.3,1.3L167.6,83.4z"/>
		<path class="st3" d="M171.9,85l1.3-1.3l-2.6-2.6l-2.6,2.6l1.3,1.3C170,85.7,171.1,85.7,171.9,85z"/>
		<path class="st3" d="M173.5,83.4l2.6-2.6l-1.3-1.3c-0.7-0.7-1.9-0.7-2.6,0l-1.3,1.3L173.5,83.4z"/>
		<path class="st6" d="M177.7,85L177.7,85c0.7-0.7,0.7-1.9,0-2.6l-1.3-1.3l-2.6,2.6l1.3,1.3C175.8,85.7,177,85.7,177.7,85z"/>
		<path class="st7" d="M183.7,81c0.2,0.2,0.2,0.4,0.2,0.7V83c0,0.1,0,0.1-0.1,0.2c0,0-0.1,0.1-0.2,0.1c-0.1,0-0.1,0-0.2-0.1
			c0,0-0.1-0.1-0.1-0.2v-1.3c0-0.2,0-0.3-0.1-0.4c-0.1-0.1-0.2-0.1-0.4-0.1c-0.2,0-0.3,0.1-0.4,0.2c-0.1,0.1-0.1,0.2-0.1,0.4V83
			c0,0.1,0,0.1-0.1,0.2c0,0-0.1,0.1-0.2,0.1c-0.1,0-0.1,0-0.2-0.1c0,0-0.1-0.1-0.1-0.2v-1.3c0-0.2,0-0.3-0.1-0.4
			c-0.1-0.1-0.2-0.1-0.4-0.1c-0.2,0-0.3,0.1-0.4,0.2c-0.1,0.1-0.1,0.2-0.1,0.4V83c0,0.1,0,0.1-0.1,0.2c0,0-0.1,0.1-0.2,0.1
			c-0.1,0-0.1,0-0.2-0.1c0,0-0.1-0.1-0.1-0.2v-2c0-0.1,0-0.1,0.1-0.2c0,0,0.1-0.1,0.2-0.1c0.1,0,0.1,0,0.2,0.1c0,0,0.1,0.1,0.1,0.2
			c0.1-0.1,0.2-0.1,0.3-0.2c0.1,0,0.2-0.1,0.3-0.1c0.2,0,0.3,0,0.4,0.1c0.1,0.1,0.2,0.1,0.3,0.3c0.1-0.1,0.2-0.2,0.3-0.3
			c0.1-0.1,0.3-0.1,0.4-0.1C183.3,80.7,183.5,80.8,183.7,81z"/>
		<path class="st7" d="M185,83.1c-0.2-0.1-0.3-0.3-0.4-0.4c-0.1-0.2-0.2-0.4-0.2-0.6c0-0.2,0.1-0.5,0.2-0.6c0.1-0.2,0.2-0.3,0.4-0.4
			c0.2-0.1,0.4-0.2,0.6-0.2c0.2,0,0.4,0.1,0.6,0.2c0.2,0.1,0.3,0.3,0.4,0.4c0.1,0.2,0.2,0.4,0.2,0.6c0,0.2-0.1,0.5-0.2,0.6
			c-0.1,0.2-0.2,0.3-0.4,0.4c-0.2,0.1-0.4,0.2-0.6,0.2C185.4,83.3,185.1,83.2,185,83.1z M186,82.7c0.1-0.1,0.2-0.2,0.3-0.3
			c0.1-0.1,0.1-0.3,0.1-0.4c0-0.2,0-0.3-0.1-0.4c-0.1-0.1-0.2-0.2-0.3-0.3c-0.1-0.1-0.3-0.1-0.4-0.1s-0.3,0-0.4,0.1
			c-0.1,0.1-0.2,0.2-0.3,0.3c-0.1,0.1-0.1,0.3-0.1,0.4c0,0.2,0,0.3,0.1,0.4c0.1,0.1,0.2,0.2,0.3,0.3c0.1,0.1,0.3,0.1,0.4,0.1
			S185.9,82.8,186,82.7z"/>
		<path class="st7" d="M189.4,80.9c0,0,0,0.1,0,0.1c0,0,0,0.1,0,0.1l-1,2c0,0.1-0.1,0.2-0.2,0.2c-0.1,0-0.1,0-0.1,0
			c0,0-0.1-0.1-0.1-0.1l-1-2c0,0,0-0.1,0-0.1c0-0.1,0-0.1,0.1-0.2c0,0,0.1,0,0.1,0c0,0,0.1,0,0.1,0c0,0,0.1,0,0.1,0.1l0.8,1.7
			l0.8-1.7c0,0,0-0.1,0.1-0.1c0,0,0.1,0,0.1,0C189.2,80.8,189.2,80.8,189.4,80.9C189.3,80.8,189.3,80.8,189.4,80.9z"/>
		<path class="st7" d="M191.8,82.1c0,0-0.1,0.1-0.1,0.1H190c0,0.2,0.1,0.4,0.3,0.5c0.2,0.1,0.3,0.2,0.6,0.2c0.1,0,0.2,0,0.3,0
			c0.1,0,0.2-0.1,0.2-0.1c0,0,0.1,0,0.1,0c0.1,0,0.1,0,0.1,0c0.1,0,0.1,0.1,0.1,0.2c0,0.1,0,0.1-0.1,0.1c-0.1,0.1-0.2,0.1-0.4,0.2
			c-0.2,0.1-0.3,0.1-0.4,0.1c-0.2,0-0.5-0.1-0.7-0.2c-0.2-0.1-0.3-0.3-0.5-0.4c-0.1-0.2-0.2-0.4-0.2-0.6c0-0.2,0.1-0.5,0.2-0.6
			c0.1-0.2,0.2-0.3,0.4-0.4c0.2-0.1,0.4-0.2,0.6-0.2c0.2,0,0.4,0.1,0.6,0.2c0.2,0.1,0.3,0.2,0.4,0.4c0.1,0.2,0.1,0.4,0.1,0.6
			C191.9,82,191.9,82.1,191.8,82.1z M190.2,81.3c-0.1,0.1-0.2,0.3-0.3,0.5h1.5c0-0.2-0.1-0.4-0.2-0.5c-0.1-0.1-0.3-0.2-0.5-0.2
			C190.6,81.2,190.4,81.2,190.2,81.3z"/>
		<path class="st7" d="M192.5,82.1c0,0-0.1-0.1-0.1-0.2c0-0.1,0-0.1,0.1-0.2c0,0,0.1-0.1,0.1-0.1h0.8c0.1,0,0.1,0,0.1,0.1
			c0,0,0.1,0.1,0.1,0.2c0,0.1,0,0.1-0.1,0.2c0,0-0.1,0.1-0.1,0.1h-0.8C192.5,82.2,192.5,82.2,192.5,82.1z"/>
		<path class="st7" d="M196.5,79.8c0,0,0.1,0.1,0.1,0.2v2c0,0.2-0.1,0.4-0.2,0.6c-0.1,0.2-0.3,0.3-0.4,0.4c-0.2,0.1-0.4,0.2-0.6,0.2
			c-0.2,0-0.4-0.1-0.6-0.2c-0.2-0.1-0.3-0.3-0.4-0.4c-0.1-0.2-0.2-0.4-0.2-0.6s0-0.4,0.1-0.6c0.1-0.2,0.2-0.3,0.4-0.4
			c0.2-0.1,0.4-0.2,0.6-0.2c0.2,0,0.3,0,0.5,0.1c0.1,0.1,0.3,0.2,0.4,0.3V80c0-0.1,0-0.1,0.1-0.2c0,0,0.1-0.1,0.2-0.1
			C196.4,79.8,196.5,79.8,196.5,79.8z M195.8,82.7c0.1-0.1,0.2-0.2,0.3-0.3c0.1-0.1,0.1-0.3,0.1-0.4c0-0.2,0-0.3-0.1-0.4
			c-0.1-0.1-0.2-0.2-0.3-0.3c-0.1-0.1-0.3-0.1-0.4-0.1c-0.1,0-0.3,0-0.4,0.1c-0.1,0.1-0.2,0.2-0.3,0.3c-0.1,0.1-0.1,0.3-0.1,0.4
			c0,0.2,0,0.3,0.1,0.4c0.1,0.1,0.2,0.2,0.3,0.3c0.1,0.1,0.3,0.1,0.4,0.1C195.5,82.9,195.6,82.8,195.8,82.7z"/>
		<path class="st7" d="M183.7,81c0.2,0.2,0.2,0.4,0.2,0.7V83c0,0.1,0,0.1-0.1,0.2c0,0-0.1,0.1-0.2,0.1c-0.1,0-0.1,0-0.2-0.1
			c0,0-0.1-0.1-0.1-0.2v-1.3c0-0.2,0-0.3-0.1-0.4c-0.1-0.1-0.2-0.1-0.4-0.1c-0.2,0-0.3,0.1-0.4,0.2c-0.1,0.1-0.1,0.2-0.1,0.4V83
			c0,0.1,0,0.1-0.1,0.2c0,0-0.1,0.1-0.2,0.1c-0.1,0-0.1,0-0.2-0.1c0,0-0.1-0.1-0.1-0.2v-1.3c0-0.2,0-0.3-0.1-0.4
			c-0.1-0.1-0.2-0.1-0.4-0.1c-0.2,0-0.3,0.1-0.4,0.2c-0.1,0.1-0.1,0.2-0.1,0.4V83c0,0.1,0,0.1-0.1,0.2c0,0-0.1,0.1-0.2,0.1
			c-0.1,0-0.1,0-0.2-0.1c0,0-0.1-0.1-0.1-0.2v-2c0-0.1,0-0.1,0.1-0.2c0,0,0.1-0.1,0.2-0.1c0.1,0,0.1,0,0.2,0.1c0,0,0.1,0.1,0.1,0.2
			c0.1-0.1,0.2-0.1,0.3-0.2c0.1,0,0.2-0.1,0.3-0.1c0.2,0,0.3,0,0.4,0.1c0.1,0.1,0.2,0.1,0.3,0.3c0.1-0.1,0.2-0.2,0.3-0.3
			c0.1-0.1,0.3-0.1,0.4-0.1C183.3,80.7,183.5,80.8,183.7,81z"/>
		<path class="st7" d="M185,83.1c-0.2-0.1-0.3-0.3-0.4-0.4c-0.1-0.2-0.2-0.4-0.2-0.6c0-0.2,0.1-0.5,0.2-0.6c0.1-0.2,0.2-0.3,0.4-0.4
			c0.2-0.1,0.4-0.2,0.6-0.2c0.2,0,0.4,0.1,0.6,0.2c0.2,0.1,0.3,0.3,0.4,0.4c0.1,0.2,0.2,0.4,0.2,0.6c0,0.2-0.1,0.5-0.2,0.6
			c-0.1,0.2-0.2,0.3-0.4,0.4c-0.2,0.1-0.4,0.2-0.6,0.2C185.4,83.3,185.1,83.2,185,83.1z M186,82.7c0.1-0.1,0.2-0.2,0.3-0.3
			c0.1-0.1,0.1-0.3,0.1-0.4c0-0.2,0-0.3-0.1-0.4c-0.1-0.1-0.2-0.2-0.3-0.3c-0.1-0.1-0.3-0.1-0.4-0.1s-0.3,0-0.4,0.1
			c-0.1,0.1-0.2,0.2-0.3,0.3c-0.1,0.1-0.1,0.3-0.1,0.4c0,0.2,0,0.3,0.1,0.4c0.1,0.1,0.2,0.2,0.3,0.3c0.1,0.1,0.3,0.1,0.4,0.1
			S185.9,82.8,186,82.7z"/>
		<path class="st7" d="M189.4,80.9c0,0,0,0.1,0,0.1c0,0,0,0.1,0,0.1l-1,2c0,0.1-0.1,0.2-0.2,0.2c-0.1,0-0.1,0-0.1,0
			c0,0-0.1-0.1-0.1-0.1l-1-2c0,0,0-0.1,0-0.1c0-0.1,0-0.1,0.1-0.2c0,0,0.1,0,0.1,0c0,0,0.1,0,0.1,0c0,0,0.1,0,0.1,0.1l0.8,1.7
			l0.8-1.7c0,0,0-0.1,0.1-0.1c0,0,0.1,0,0.1,0C189.2,80.8,189.2,80.8,189.4,80.9C189.3,80.8,189.3,80.8,189.4,80.9z"/>
		<path class="st7" d="M191.8,82.1c0,0-0.1,0.1-0.1,0.1H190c0,0.2,0.1,0.4,0.3,0.5c0.2,0.1,0.3,0.2,0.6,0.2c0.1,0,0.2,0,0.3,0
			c0.1,0,0.2-0.1,0.2-0.1c0,0,0.1,0,0.1,0c0.1,0,0.1,0,0.1,0c0.1,0,0.1,0.1,0.1,0.2c0,0.1,0,0.1-0.1,0.1c-0.1,0.1-0.2,0.1-0.4,0.2
			c-0.2,0.1-0.3,0.1-0.4,0.1c-0.2,0-0.5-0.1-0.7-0.2c-0.2-0.1-0.3-0.3-0.5-0.4c-0.1-0.2-0.2-0.4-0.2-0.6c0-0.2,0.1-0.5,0.2-0.6
			c0.1-0.2,0.2-0.3,0.4-0.4c0.2-0.1,0.4-0.2,0.6-0.2c0.2,0,0.4,0.1,0.6,0.2c0.2,0.1,0.3,0.2,0.4,0.4c0.1,0.2,0.1,0.4,0.1,0.6
			C191.9,82,191.9,82.1,191.8,82.1z M190.2,81.3c-0.1,0.1-0.2,0.3-0.3,0.5h1.5c0-0.2-0.1-0.4-0.2-0.5c-0.1-0.1-0.3-0.2-0.5-0.2
			C190.6,81.2,190.4,81.2,190.2,81.3z"/>
		<path class="st7" d="M192.5,82.1c0,0-0.1-0.1-0.1-0.2c0-0.1,0-0.1,0.1-0.2c0,0,0.1-0.1,0.1-0.1h0.8c0.1,0,0.1,0,0.1,0.1
			c0,0,0.1,0.1,0.1,0.2c0,0.1,0,0.1-0.1,0.2c0,0-0.1,0.1-0.1,0.1h-0.8C192.5,82.2,192.5,82.2,192.5,82.1z"/>
		<path class="st7" d="M196.5,79.8c0,0,0.1,0.1,0.1,0.2v2c0,0.2-0.1,0.4-0.2,0.6c-0.1,0.2-0.3,0.3-0.4,0.4c-0.2,0.1-0.4,0.2-0.6,0.2
			c-0.2,0-0.4-0.1-0.6-0.2c-0.2-0.1-0.3-0.3-0.4-0.4c-0.1-0.2-0.2-0.4-0.2-0.6s0-0.4,0.1-0.6c0.1-0.2,0.2-0.3,0.4-0.4
			c0.2-0.1,0.4-0.2,0.6-0.2c0.2,0,0.3,0,0.5,0.1c0.1,0.1,0.3,0.2,0.4,0.3V80c0-0.1,0-0.1,0.1-0.2c0,0,0.1-0.1,0.2-0.1
			C196.4,79.8,196.5,79.8,196.5,79.8z M195.8,82.7c0.1-0.1,0.2-0.2,0.3-0.3c0.1-0.1,0.1-0.3,0.1-0.4c0-0.2,0-0.3-0.1-0.4
			c-0.1-0.1-0.2-0.2-0.3-0.3c-0.1-0.1-0.3-0.1-0.4-0.1c-0.1,0-0.3,0-0.4,0.1c-0.1,0.1-0.2,0.2-0.3,0.3c-0.1,0.1-0.1,0.3-0.1,0.4
			c0,0.2,0,0.3,0.1,0.4c0.1,0.1,0.2,0.2,0.3,0.3c0.1,0.1,0.3,0.1,0.4,0.1C195.5,82.9,195.6,82.8,195.8,82.7z"/>
		<g>
			<path class="st3" d="M180.6,84.1C180.5,84.1,180.5,84.1,180.6,84.1c0-0.1,0-0.1,0-0.1c0,0,0,0,0.1,0s0.1,0,0.1,0c0,0,0,0,0,0.1
				c0,0,0,0,0,0.1C180.7,84.1,180.7,84.1,180.6,84.1C180.6,84.1,180.6,84.1,180.6,84.1z M180.6,85.2v-0.9c0,0,0,0,0,0h0.1
				c0,0,0,0,0,0v0.9c0,0,0,0,0,0L180.6,85.2C180.6,85.2,180.6,85.2,180.6,85.2z"/>
			<path class="st3" d="M181.5,85C181.5,85,181.5,85,181.5,85c0.1-0.1,0.1-0.1,0.1-0.1c0,0,0,0,0,0l0.1,0c0,0,0,0,0,0
				C181.6,85.1,181.6,85.1,181.5,85c0,0.1-0.1,0.1-0.1,0.1c-0.1,0-0.2,0-0.2-0.1c-0.1,0-0.1-0.1-0.1-0.2c0-0.1,0-0.1,0-0.2
				c0-0.1,0-0.1,0-0.1c0,0,0-0.1,0-0.1c0-0.1,0.1-0.1,0.1-0.2c0.1,0,0.1-0.1,0.2-0.1c0.1,0,0.2,0,0.2,0.1c0.1,0.1,0.1,0.1,0.1,0.2
				c0,0,0,0.1,0,0.2c0,0,0,0,0,0h-0.6c0,0,0,0,0,0c0,0.1,0,0.1,0,0.1c0,0.1,0,0.1,0.1,0.1c0,0,0.1,0,0.2,0
				C181.4,85.1,181.4,85.1,181.5,85z M181.2,84.4c0,0-0.1,0.1-0.1,0.1c0,0,0,0.1,0,0.1c0,0,0,0,0,0h0.5c0,0,0,0,0,0
				c0-0.1,0-0.1,0-0.1c0-0.1,0-0.1-0.1-0.1c0,0-0.1,0-0.2,0C181.3,84.4,181.2,84.4,181.2,84.4z"/>
			<path class="st3" d="M182.5,83.9L182.5,83.9c0.1,0,0.1,0,0.1,0v1.2c0,0,0,0,0,0h-0.1c0,0,0,0,0,0v-0.1c0,0,0,0,0,0c0,0,0,0,0,0
				c0,0-0.1,0.1-0.1,0.1c0,0-0.1,0-0.1,0c-0.1,0-0.2,0-0.2-0.1c-0.1,0-0.1-0.1-0.1-0.2c0-0.1,0-0.1,0-0.2c0-0.1,0-0.2,0-0.2
				c0-0.1,0.1-0.1,0.1-0.2c0.1,0,0.1-0.1,0.2-0.1c0,0,0.1,0,0.1,0c0,0,0.1,0,0.1,0.1c0,0,0,0,0,0c0,0,0,0,0,0L182.5,83.9
				C182.5,83.9,182.5,83.9,182.5,83.9z M182.5,84.9c0,0,0-0.1,0-0.1s0-0.1,0-0.1c0,0,0-0.1,0-0.1c0,0,0-0.1-0.1-0.1c0,0-0.1,0-0.1,0
				c0,0-0.1,0-0.1,0c0,0-0.1,0.1-0.1,0.1c0,0,0,0.1,0,0.1c0,0,0,0.1,0,0.1c0,0.1,0,0.1,0,0.1c0,0,0,0.1,0,0.1c0,0,0,0.1,0.1,0.1
				c0,0,0.1,0,0.1,0c0,0,0.1,0,0.1,0C182.4,85,182.4,85,182.5,84.9C182.5,84.9,182.5,84.9,182.5,84.9z"/>
			<path class="st3" d="M183.4,85C183.4,85,183.5,85,183.4,85c0.1-0.1,0.1-0.1,0.1-0.1c0,0,0,0,0,0l0.1,0c0,0,0,0,0,0
				C183.5,85.1,183.5,85.1,183.4,85c0,0.1-0.1,0.1-0.1,0.1c-0.1,0-0.2,0-0.2-0.1c-0.1,0-0.1-0.1-0.1-0.2c0-0.1,0-0.1,0-0.2
				c0-0.1,0-0.1,0-0.1c0,0,0-0.1,0-0.1c0-0.1,0.1-0.1,0.1-0.2c0.1,0,0.1-0.1,0.2-0.1c0.1,0,0.2,0,0.2,0.1c0.1,0.1,0.1,0.1,0.1,0.2
				c0,0,0,0.1,0,0.2c0,0,0,0,0,0H183c0,0,0,0,0,0c0,0.1,0,0.1,0,0.1c0,0.1,0,0.1,0.1,0.1c0,0,0.1,0,0.2,0
				C183.3,85.1,183.4,85.1,183.4,85z M183.1,84.4c0,0-0.1,0.1-0.1,0.1c0,0,0,0.1,0,0.1c0,0,0,0,0,0h0.5c0,0,0,0,0,0
				c0-0.1,0-0.1,0-0.1c0-0.1,0-0.1-0.1-0.1c0,0-0.1,0-0.2,0C183.2,84.4,183.1,84.4,183.1,84.4z"/>
			<path class="st3" d="M184.3,84.3C184.3,84.3,184.3,84.3,184.3,84.3l0,0.1c0,0,0,0,0,0c0,0-0.1,0-0.1,0c-0.1,0-0.1,0-0.2,0.1
				c0,0-0.1,0.1-0.1,0.2v0.5c0,0,0,0,0,0h-0.1c0,0,0,0,0,0v-0.9c0,0,0,0,0,0h0.1c0,0,0,0,0,0v0.1c0,0,0,0,0,0c0,0,0,0,0,0
				c0,0,0.1-0.1,0.1-0.1C184.1,84.3,184.2,84.3,184.3,84.3C184.3,84.3,184.3,84.3,184.3,84.3z"/>
			<path class="st3" d="M185,85C185,85,185.1,85,185,85c0.1-0.1,0.1-0.1,0.1-0.1c0,0,0,0,0,0l0.1,0c0,0,0,0,0,0
				C185.1,85.1,185.1,85.1,185,85c0,0.1-0.1,0.1-0.1,0.1c-0.1,0-0.2,0-0.2-0.1c-0.1,0-0.1-0.1-0.1-0.2c0-0.1,0-0.1,0-0.2
				c0-0.1,0-0.1,0-0.1c0,0,0-0.1,0-0.1c0-0.1,0.1-0.1,0.1-0.2c0.1,0,0.1-0.1,0.2-0.1c0.1,0,0.2,0,0.2,0.1c0.1,0.1,0.1,0.1,0.1,0.2
				c0,0,0,0.1,0,0.2c0,0,0,0,0,0h-0.6c0,0,0,0,0,0c0,0.1,0,0.1,0,0.1c0,0.1,0,0.1,0.1,0.1c0,0,0.1,0,0.2,0
				C184.9,85.1,184.9,85.1,185,85z M184.7,84.4c0,0-0.1,0.1-0.1,0.1c0,0,0,0.1,0,0.1c0,0,0,0,0,0h0.5c0,0,0,0,0,0c0-0.1,0-0.1,0-0.1
				c0-0.1,0-0.1-0.1-0.1c0,0-0.1,0-0.2,0C184.8,84.4,184.7,84.4,184.7,84.4z"/>
			<path class="st3" d="M185.9,85C186,85,186,85,185.9,85c0.1-0.1,0.1-0.1,0.1-0.1c0,0,0,0,0,0l0.1,0c0,0,0,0,0,0
				C186.1,85.1,186,85.1,185.9,85c0,0.1-0.1,0.1-0.1,0.1c-0.1,0-0.2,0-0.2-0.1c-0.1,0-0.1-0.1-0.1-0.2c0-0.1,0-0.1,0-0.2
				c0-0.1,0-0.1,0-0.1c0,0,0-0.1,0-0.1c0-0.1,0.1-0.1,0.1-0.2c0.1,0,0.1-0.1,0.2-0.1c0.1,0,0.2,0,0.2,0.1c0.1,0.1,0.1,0.1,0.1,0.2
				c0,0,0,0.1,0,0.2c0,0,0,0,0,0h-0.6c0,0,0,0,0,0c0,0.1,0,0.1,0,0.1c0,0.1,0,0.1,0.1,0.1c0,0,0.1,0,0.2,0
				C185.8,85.1,185.9,85.1,185.9,85z M185.6,84.4c0,0-0.1,0.1-0.1,0.1c0,0,0,0.1,0,0.1c0,0,0,0,0,0h0.5c0,0,0,0,0,0
				c0-0.1,0-0.1,0-0.1c0-0.1,0-0.1-0.1-0.1c0,0-0.1,0-0.2,0C185.7,84.4,185.7,84.4,185.6,84.4z"/>
			<path class="st3" d="M187,84.3c0.1,0.1,0.1,0.1,0.1,0.2v0.6c0,0,0,0,0,0H187c0,0,0,0,0,0v-0.6c0-0.1,0-0.1-0.1-0.2
				s-0.1-0.1-0.2-0.1c-0.1,0-0.1,0-0.2,0.1c0,0-0.1,0.1-0.1,0.1v0.6c0,0,0,0,0,0h-0.1c0,0,0,0,0,0v-0.9c0,0,0,0,0,0h0.1c0,0,0,0,0,0
				v0.1c0,0,0,0,0,0c0,0,0,0,0,0c0.1-0.1,0.1-0.1,0.2-0.1C186.9,84.3,186.9,84.3,187,84.3z"/>
			<path class="st3" d="M187.7,84.1C187.7,84.1,187.7,84.1,187.7,84.1c0-0.1,0-0.1,0-0.1c0,0,0,0,0.1,0s0.1,0,0.1,0c0,0,0,0,0,0.1
				c0,0,0,0,0,0.1C187.8,84.1,187.8,84.1,187.7,84.1C187.8,84.1,187.7,84.1,187.7,84.1z M187.7,85.2v-0.9c0,29.9,0,0,0,0h0.1
				c0,0,0,0,0,0v0.9c0,0,0,0,0,0L187.7,85.2C187.7,85.2,187.7,85.2,187.7,85.2z"/>
			<path class="st3" d="M188.7,84.3c0.1,0.1,0.1,0.1,0.1,0.2v0.6c0,0,0,0,0,0h-0.1c0,0,0,0,0,0v-0.6c0-0.1,0-0.1-0.1-0.2
				c0,0-0.1-0.1-0.2-0.1c-0.1,0-0.1,0-0.2,0.1c0,0-0.1,0.1-0.1,0.1v0.6c0,0,0,0,0,0h-0.1c0,0,0,0,0,0v-0.9c0,0,0,0,0,0h0.1
				c0,0,0,0,0,0v0.1c0,0,0,0,0,0c0,0,0,0,0,0c0.1-0.1,0.1-0.1,0.2-0.1C188.6,84.3,188.7,84.3,188.7,84.3z"/>
			<path class="st3" d="M190.2,84.7c0,0.1,0,0.2,0,0.2c0,0.1-0.1,0.1-0.1,0.2c-0.1,0-0.1,0.1-0.2,0.1c0,0-0.1,0-0.1,0
				c0,0-0.1,0-0.1-0.1c0,0,0,0,0,0c0,0,0,0,0,0v0.1c0,0,0,0,0,0h-0.1c0,0,0,0,0,0V84c0,0,0,0,0,0h0.1c0,0,0,0,0,0v0.4c0,0,0,0,0,0
				c0,0,0,0,0,0c0,0,0.1-0.1,0.1-0.1c0,0,0.1,0,0.1,0c0.1,0,0.2,0,0.2,0.1c0.1,0,0.1,0.1,0.1,0.2C190.2,84.6,190.2,84.6,190.2,84.7z
				 M190,84.9c0,0,0-0.1,0-0.1c0-0.1,0-0.1,0-0.1c0,0,0-0.1,0-0.1c0,0,0-0.1-0.1-0.1c0,0-0.1,0-0.1,0c0,0-0.1,0-0.1,0
				c0,0-0.1,0.1-0.1,0.1c0,0,0,0.1,0,0.1c0,0,0,0.1,0,0.1s0,0.1,0,0.1c0,0,0,0.1,0,0.1c0,0,0,0.1,0.1,0.1c0,0,0.1,0,0.1,0
				c0,0,0.1,0,0.1,0C190,85,190,85,190,84.9C190,84.9,190,84.9,190,84.9z"/>
			<path class="st3" d="M190.9,85C191,85,191,85,190.9,85c0.1-0.1,0.1-0.1,0.1-0.1c0,0,0,0,0,0l0.1,0c0,0,0,0,0,0
				C191.1,85.1,191,85.1,190.9,85c0,0.1-0.1,0.1-0.1,0.1c-0.1,0-0.2,0-0.2-0.1c-0.1,0-0.1-0.1-0.1-0.2c0-0.1,0-0.1,0-0.2
				c0-0.1,0-0.1,0-0.1c0,0,0-0.1,0-0.1c0-0.1,0.1-0.1,0.1-0.2c0.1,0,0.1-0.1,0.2-0.1c0.1,0,0.2,0,0.2,0.1c0.1,0.1,0.1,0.1,0.1,0.2
				c0,0,0,0.1,0,0.2c0,0,0,0,0,0h-0.6c0,0,0,0,0,0c0,0.1,0,0.1,0,0.1c0,0.1,0,0.1,0.1,0.1c0,0,0.1,0,0.2,0
				C190.8,85.1,190.9,85.1,190.9,85z M190.6,84.4c0,0-0.1,0.1-0.1,0.1c0,0,0,0.1,0,0.1c0,0,0,0,0,0h0.5c0,0,0,0,0,0
				c0-0.1,0-0.1,0-0.1c0-0.1,0-0.1-0.1-0.1c0,0-0.1,0-0.2,0C190.7,84.4,190.7,84.4,190.6,84.4z"/>
			<path class="st3" d="M191.5,85.2l-0.2-0.9c0,0,0,0,0,0c0,0,0,0,0,0c0,0,0,0,0,0h0.1c0,0,0,0,0,0l0.2,0.7c0,0,0,0,0,0c0,0,0,0,0,0
				l0.2-0.7c0,0,0,0,0,0h0.1c0,0,0,0,0,0l0.2,0.7c0,0,0,0,0,0c0,0,0,0,0,0l0.2-0.7c0,0,0,0,0,0l0.1,0c0,0,0,0,0,0c0,0,0,0,0,0
				l-0.3,0.9c0,0,0,0,0,0h-0.1c0,0,0,0,0,0l-0.2-0.7c0,0,0,0,0,0c0,0,0,0,0,0l-0.2,0.7c0,0,0,0,0,0L191.5,85.2
				C191.5,85.2,191.5,85.2,191.5,85.2z"/>
			<path class="st3" d="M193.1,85C193.1,85,193.2,85,193.1,85c0.1-0.1,0.1-0.1,0.1-0.1c0,0,0,0,0,0l0.1,0c0,0,0,0,0,0
				C193.3,85.1,193.2,85.1,193.1,85c0,0.1-0.1,0.1-0.1,0.1c-0.1,0-0.2,0-0.2-0.1c-0.1,0-0.1-0.1-0.1-0.2c0-0.1,0-0.1,0-0.2
				c0-0.1,0-0.1,0-0.1c0,0,0-0.1,0-0.1c0-0.1,0.1-0.1,0.1-0.2c0.1,0,0.1-0.1,0.2-0.1c0.1,0,0.2,0,0.2,0.1c0.1,0.1,0.1,0.1,0.1,0.2
				c0,0,0,0.1,0,0.2c0,0,0,0,0,0h-0.6c0,0,0,0,0,0c0,0.1,0,0.1,0,0.1c0,0.1,0,0.1,0.1,0.1c0,0,0.1,0,0.2,0
				C193,85.1,193.1,85.1,193.1,85z M192.8,84.4c0,0-0.1,0.1-0.1,0.1c0,0,0,0.1,0,0.1c0,0,0,0,0,0h0.5c0,0,0,0,0,0c0-0.1,0-0.1,0-0.1
				c0-0.1,0-0.1-0.1-0.1c0,0-0.1,0-0.2,0C192.9,84.4,192.8,84.4,192.8,84.4z"/>
			<path class="st3" d="M194.1,84.3L194.1,84.3c0.1,0,0.1,0,0.1,0v0.8c0,0.1,0,0.2-0.1,0.3c-0.1,0.1-0.2,0.1-0.3,0.1c0,0,0,0-0.1,0
				c0,0,0,0,0,0l0-0.1c0,0,0,0,0,0c0.1,0,0.2,0,0.3-0.1c0.1,0,0.1-0.1,0.1-0.2v-0.1c0,0,0,0,0,0c0,0,0,0,0,0
				c-0.1,0.1-0.1,0.1-0.2,0.1c-0.1,0-0.1,0-0.2-0.1c-0.1,0-0.1-0.1-0.1-0.2c0,0,0-0.1,0-0.2c0-0.1,0-0.1,0-0.1c0,0,0-0.1,0-0.1
				c0-0.1,0.1-0.1,0.1-0.2c0.1,0,0.1-0.1,0.2-0.1C194,84.3,194,84.3,194.1,84.3C194.1,84.4,194.1,84.4,194.1,84.3
				C194.1,84.4,194.1,84.4,194.1,84.3L194.1,84.3C194.1,84.3,194.1,84.3,194.1,84.3z M194.1,84.8c0,0,0-0.1,0-0.1c0-0.1,0-0.1,0-0.1
				c0,0,0,0,0-0.1c0,0,0-0.1-0.1-0.1c0,0-0.1,0-0.1,0c-0.1,0-0.1,0-0.1,0c0,0-0.1,0.1-0.1,0.1c0,0,0,0.1,0,0.2c0,0.1,0,0.1,0,0.2
				c0,0,0,0.1,0.1,0.1c0,0,0.1,0,0.1,0c0.1,0,0.1,0,0.1,0C194.1,85,194.1,85,194.1,84.8C194.1,84.9,194.1,84.9,194.1,84.8z"/>
			<path class="st3" d="M194.5,84.1C194.5,84.1,194.5,84.1,194.5,84.1c0-0.1,0-0.1,0-0.1c0,0,0,0,0.1,0s0.1,0,0.1,0c0,0,0,0,0,0.1
				c0,0,0,0,0,0.1C194.6,84.1,194.6,84.1,194.5,84.1C194.6,84.1,194.5,84.1,194.5,84.1z M194.5,85.2v-0.9c0,0,0,0,0,0h0.1
				c0,0,0,0,0,0v0.9c0,0,0,0,0,0L194.5,85.2C194.5,85.2,194.5,85.2,194.5,85.2z"/>
			<path class="st3" d="M195.5,84.3c0.1,0.1,0.1,0.1,0.1,0.2v0.6c0,0,0,0,0,0h-0.1c0,0,0,0,0,0v-0.6c0-0.1,0-0.1-0.1-0.2
				c0,0-0.1-0.1-0.2-0.1c-0.1,0-0.1,0-0.2,0.1c0,0-0.1,0.1-0.1,0.1v0.6c0,0,0,0,0,0H195c0,0,0,0,0,0v-0.9c0,0,0,0,0,0h0.1
				c0,0,0,0,0,0v0.1c0,0,0,0,0,0c0,0,0,0,0,0c0.1-0.1,0.1-0.1,0.2-0.1C195.4,84.3,195.5,84.3,195.5,84.3z"/>
			<path class="st3" d="M196.5,84.3L196.5,84.3c0.1,0,0.1,0,0.1,0v0.8c0,0.1,0,0.2-0.1,0.3c-0.1,0.1-0.2,0.1-0.3,0.1c0,0,0,0-0.1,0
				c0,0,0,0,0,0l0-0.1c0,0,0,0,0,0c0.1,0,0.2,0,0.3-0.1c0.1,0,0.1-0.1,0.1-0.2v-0.1c0,0,0,0,0,0c0,0,0,0,0,0
				c-0.1,0.1-0.1,0.1-0.2,0.1c-0.1,0-0.1,0-0.2-0.1c-0.1,0-0.1-0.1-0.1-0.2c0,0,0-0.1,0-0.2c0-0.1,0-0.1,0-0.1c0,0,0-0.1,0-0.1
				c0-0.1,0.1-0.1,0.1-0.2c0.1,0,0.1-0.1,0.2-0.1C196.3,84.3,196.4,84.3,196.5,84.3C196.5,84.4,196.5,84.4,196.5,84.3
				C196.5,84.4,196.5,84.4,196.5,84.3L196.5,84.3C196.5,84.3,196.5,84.3,196.5,84.3z M196.5,84.8c0,0,0-0.1,0-0.1c0-0.1,0-0.1,0-0.1
				c0,0,0,0,0-0.1c0,0,0-0.1-0.1-0.1c0,0-0.1,0-0.1,0c-0.1,0-0.1,0-0.1,0s-0.1,0.1-0.1,0.1c0,0,0,0.1,0,0.2c0,0.1,0,0.1,0,0.2
				c0,0,0,0.1,0.1,0.1c0,0,0.1,0,0.1,0c0.1,0,0.1,0,0.1,0C196.4,85,196.4,85,196.5,84.8C196.5,84.9,196.5,84.9,196.5,84.8z"/>
		</g>
	</g>
</g>
<g id="Layer_7" class="st0">
	<path class="st9" d="M340,104.9l6.6-6.6L333.4,85l-6.6,6.6c-3.7,3.7-3.7,9.6,0,13.3v0C330.4,108.6,336.4,108.6,340,104.9z"/>
	<path class="st9" d="M348,97l13.3-13.3l-6.7-6.7c-3.6-3.6-9.5-3.6-13.1,0l-6.7,6.7L348,97z"/>
	<path class="st10" d="M369.2,104.9l6.6-6.6L362.6,85l-13.3,13.3l6.6,6.6C359.6,108.6,365.6,108.6,369.2,104.9z"/>
	<path class="st10" d="M377.2,97l13.3-13.3l-6.6-6.6c-3.7-3.7-9.6-3.7-13.3,0l-6.6,6.6L377.2,97z"/>
	<path class="st9" d="M398.4,104.9L398.4,104.9c3.7-3.7,3.7-9.6,0-13.3l-6.6-6.6l-13.3,13.3l6.6,6.6
		C388.8,108.6,394.8,108.6,398.4,104.9z"/>
	<path class="st11" d="M339.2,117.5c0.8,0.8,1.1,2,1.1,3.4v6.1c0,0.3-0.1,0.6-0.3,0.8c-0.2,0.2-0.5,0.3-0.8,0.3
		c-0.3,0-0.6-0.1-0.8-0.3c-0.2-0.2-0.3-0.5-0.3-0.8v-6.1c0-0.9-0.2-1.5-0.7-2c-0.4-0.5-1-0.7-1.7-0.7c-0.7,0-1.4,0.3-1.8,0.8
		c-0.5,0.5-0.7,1.2-0.7,2v6c0,0.3-0.1,0.6-0.3,0.8c-0.2,0.2-0.5,0.3-0.8,0.3c-0.3,0-0.6-0.1-0.8-0.3c-0.2-0.2-0.3-0.5-0.3-0.8v-6.1
		c0-0.9-0.2-1.5-0.7-2c-0.4-0.5-1-0.7-1.7-0.7c-0.8,0-1.4,0.3-1.9,0.8c-0.5,0.5-0.7,1.2-0.7,2v6c0,0.3-0.1,0.6-0.3,0.8
		c-0.2,0.2-0.5,0.3-0.8,0.3c-0.3,0-0.6-0.1-0.8-0.3c-0.2-0.2-0.3-0.5-0.3-0.8v-9.5c0-0.3,0.1-0.6,0.3-0.8c0.2-0.2,0.5-0.3,0.8-0.3
		c0.3,0,0.6,0.1,0.8,0.3c0.2,0.2,0.3,0.4,0.3,0.8c0.4-0.4,0.8-0.7,1.3-0.9c0.5-0.2,1.1-0.3,1.7-0.3c0.7,0,1.4,0.1,2,0.4
		c0.6,0.3,1.1,0.7,1.4,1.3c0.4-0.5,1-0.9,1.6-1.2c0.6-0.3,1.4-0.5,2.1-0.5C337.4,116.2,338.4,116.6,339.2,117.5z"/>
	<path class="st11" d="M345.2,127.6c-0.9-0.5-1.6-1.2-2.1-2.1c-0.5-0.9-0.8-1.9-0.8-3.1c0-1.2,0.2-2.2,0.8-3.1
		c0.5-0.9,1.2-1.6,2.1-2.1c0.9-0.5,1.9-0.8,3.1-0.8c1.1,0,2.1,0.3,3,0.8c0.9,0.5,1.6,1.2,2.1,2.1c0.5,0.9,0.8,1.9,0.8,3.1
		c0,1.1-0.3,2.2-0.8,3.1c-0.5,0.9-1.2,1.6-2.1,2.1c-0.9,0.5-1.9,0.8-3.1,0.8C347.2,128.3,346.1,128.1,345.2,127.6z M350.3,125.9
		c0.6-0.3,1-0.8,1.4-1.4c0.3-0.6,0.5-1.3,0.5-2.1c0-0.8-0.2-1.5-0.5-2.1c-0.3-0.6-0.8-1.1-1.4-1.4c-0.6-0.3-1.2-0.5-2-0.5
		s-1.4,0.2-2,0.5c-0.6,0.3-1,0.8-1.4,1.4c-0.3,0.6-0.5,1.3-0.5,2.1c0,0.8,0.2,1.5,0.5,2.1c0.3,0.6,0.8,1.1,1.4,1.4
		c0.6,0.3,1.2,0.5,2,0.5S349.7,126.2,350.3,125.9z"/>
	<path class="st11" d="M366.4,116.9c0.1,0.2,0.2,0.3,0.2,0.5c0,0.1,0,0.3-0.1,0.4l-4.6,9.8c-0.2,0.5-0.6,0.7-1,0.7
		c-0.2,0-0.5-0.1-0.6-0.2c-0.2-0.1-0.3-0.3-0.4-0.6l-4.6-9.8c-0.1-0.1-0.1-0.2-0.1-0.4c0-0.4,0.2-0.7,0.6-0.9
		c0.1-0.1,0.3-0.1,0.5-0.1s0.3,0,0.5,0.1c0.2,0.1,0.3,0.2,0.4,0.4l3.8,8.2l3.8-8.2c0.1-0.2,0.2-0.3,0.4-0.4c0.2-0.1,0.3-0.1,0.5-0.1
		c0.2,0,0.4,0,0.5,0.1C366.1,116.6,366.3,116.7,366.4,116.9z"/>
	<path class="st11" d="M378.2,122.9c-0.2,0.2-0.4,0.3-0.7,0.3h-8.1c0.2,1,0.6,1.8,1.4,2.4c0.8,0.6,1.7,0.9,2.8,0.9
		c0.4,0,0.9-0.1,1.3-0.2c0.5-0.2,0.8-0.3,1.1-0.6c0.2-0.2,0.4-0.2,0.7-0.2c0.3,0,0.5,0.1,0.6,0.2c0.3,0.2,0.4,0.5,0.4,0.7
		c0,0.3-0.1,0.5-0.3,0.6c-0.5,0.4-1.1,0.7-1.8,0.9c-0.7,0.2-1.4,0.4-2.1,0.4c-1.2,0-2.2-0.3-3.2-0.8c-0.9-0.5-1.7-1.2-2.2-2.1
		c-0.5-0.9-0.8-1.9-0.8-3.1c0-1.1,0.2-2.2,0.7-3.1c0.5-0.9,1.2-1.6,2.1-2.1c0.9-0.5,1.9-0.8,3-0.8c1.1,0,2.1,0.2,2.9,0.7
		c0.8,0.5,1.4,1.2,1.8,2c0.4,0.9,0.6,1.9,0.6,3C378.5,122.5,378.4,122.7,378.2,122.9z M370.6,119.1c-0.7,0.6-1.1,1.3-1.2,2.3h7.1
		c-0.1-1-0.5-1.7-1.1-2.3c-0.6-0.6-1.4-0.9-2.3-0.9C372.1,118.3,371.3,118.6,370.6,119.1z"/>
	<path class="st11" d="M381.3,122.9c-0.2-0.2-0.3-0.5-0.3-0.8c0-0.3,0.1-0.6,0.3-0.8c0.2-0.2,0.4-0.3,0.7-0.3h4
		c0.3,0,0.5,0.1,0.7,0.3c0.2,0.2,0.3,0.5,0.3,0.8c0,0.3-0.1,0.6-0.3,0.8c-0.2,0.2-0.4,0.3-0.7,0.3h-4
		C381.7,123.2,381.4,123.1,381.3,122.9z"/>
	<path class="st11" d="M400.8,111.8c0.2,0.2,0.3,0.5,0.3,0.8v9.8c0,1.1-0.3,2.1-0.8,3c-0.5,0.9-1.2,1.6-2.1,2.1
		c-0.9,0.5-1.9,0.8-3,0.8c-1.1,0-2.1-0.3-3-0.8c-0.9-0.5-1.6-1.2-2.1-2.1c-0.5-0.9-0.8-1.9-0.8-3s0.2-2.1,0.7-3
		c0.5-0.9,1.1-1.6,2-2.1c0.8-0.5,1.8-0.8,2.8-0.8c0.8,0,1.6,0.2,2.3,0.5c0.7,0.3,1.3,0.8,1.8,1.4v-5.8c0-0.3,0.1-0.6,0.3-0.8
		c0.2-0.2,0.5-0.3,0.8-0.3C400.3,111.5,400.6,111.6,400.8,111.8z M397.1,125.9c0.6-0.3,1-0.8,1.4-1.4c0.3-0.6,0.5-1.3,0.5-2.1
		c0-0.8-0.2-1.4-0.5-2c-0.3-0.6-0.8-1.1-1.4-1.4c-0.6-0.4-1.2-0.5-1.9-0.5c-0.7,0-1.4,0.2-1.9,0.5c-0.6,0.4-1,0.8-1.4,1.4
		c-0.3,0.6-0.5,1.3-0.5,2c0,0.8,0.2,1.4,0.5,2.1c0.3,0.6,0.8,1.1,1.4,1.4c0.6,0.4,1.2,0.5,1.9,0.5
		C395.9,126.4,396.5,126.2,397.1,125.9z"/>
	<path class="st11" d="M339.2,117.5c0.8,0.8,1.1,2,1.1,3.4v6.1c0,0.3-0.1,0.6-0.3,0.8c-0.2,0.2-0.5,0.3-0.8,0.3
		c-0.3,0-0.6-0.1-0.8-0.3c-0.2-0.2-0.3-0.5-0.3-0.8v-6.1c0-0.9-0.2-1.5-0.7-2c-0.4-0.5-1-0.7-1.7-0.7c-0.7,0-1.4,0.3-1.8,0.8
		c-0.5,0.5-0.7,1.2-0.7,2v6c0,0.3-0.1,0.6-0.3,0.8c-0.2,0.2-0.5,0.3-0.8,0.3c-0.3,0-0.6-0.1-0.8-0.3c-0.2-0.2-0.3-0.5-0.3-0.8v-6.1
		c0-0.9-0.2-1.5-0.7-2c-0.4-0.5-1-0.7-1.7-0.7c-0.8,0-1.4,0.3-1.9,0.8c-0.5,0.5-0.7,1.2-0.7,2v6c0,0.3-0.1,0.6-0.3,0.8
		c-0.2,0.2-0.5,0.3-0.8,0.3c-0.3,0-0.6-0.1-0.8-0.3c-0.2-0.2-0.3-0.5-0.3-0.8v-9.5c0-0.3,0.1-0.6,0.3-0.8c0.2-0.2,0.5-0.3,0.8-0.3
		c0.3,0,0.6,0.1,0.8,0.3c0.2,0.2,0.3,0.4,0.3,0.8c0.4-0.4,0.8-0.7,1.3-0.9c0.5-0.2,1.1-0.3,1.7-0.3c0.7,0,1.4,0.1,2,0.4
		c0.6,0.3,1.1,0.7,1.4,1.3c0.4-0.5,1-0.9,1.6-1.2c0.6-0.3,1.4-0.5,2.1-0.5C337.4,116.2,338.4,116.6,339.2,117.5z"/>
	<path class="st11" d="M345.2,127.6c-0.9-0.5-1.6-1.2-2.1-2.1c-0.5-0.9-0.8-1.9-0.8-3.1c0-1.2,0.2-2.2,0.8-3.1
		c0.5-0.9,1.2-1.6,2.1-2.1c0.9-0.5,1.9-0.8,3.1-0.8c1.1,0,2.1,0.3,3,0.8c0.9,0.5,1.6,1.2,2.1,2.1c0.5,0.9,0.8,1.9,0.8,3.1
		c0,1.1-0.3,2.2-0.8,3.1c-0.5,0.9-1.2,1.6-2.1,2.1c-0.9,0.5-1.9,0.8-3.1,0.8C347.2,128.3,346.1,128.1,345.2,127.6z M350.3,125.9
		c0.6-0.3,1-0.8,1.4-1.4c0.3-0.6,0.5-1.3,0.5-2.1c0-0.8-0.2-1.5-0.5-2.1c-0.3-0.6-0.8-1.1-1.4-1.4c-0.6-0.3-1.2-0.5-2-0.5
		s-1.4,0.2-2,0.5c-0.6,0.3-1,0.8-1.4,1.4c-0.3,0.6-0.5,1.3-0.5,2.1c0,0.8,0.2,1.5,0.5,2.1c0.3,0.6,0.8,1.1,1.4,1.4
		c0.6,0.3,1.2,0.5,2,0.5S349.7,126.2,350.3,125.9z"/>
	<path class="st11" d="M366.4,116.9c0.1,0.2,0.2,0.3,0.2,0.5c0,0.1,0,0.3-0.1,0.4l-4.6,9.8c-0.2,0.5-0.6,0.7-1,0.7
		c-0.2,0-0.5-0.1-0.6-0.2c-0.2-0.1-0.3-0.3-0.4-0.6l-4.6-9.8c-0.1-0.1-0.1-0.2-0.1-0.4c0-0.4,0.2-0.7,0.6-0.9
		c0.1-0.1,0.3-0.1,0.5-0.1s0.3,0,0.5,0.1c0.2,0.1,0.3,0.2,0.4,0.4l3.8,8.2l3.8-8.2c0.1-0.2,0.2-0.3,0.4-0.4c0.2-0.1,0.3-0.1,0.5-0.1
		c0.2,0,0.4,0,0.5,0.1C366.1,116.6,366.3,116.7,366.4,116.9z"/>
	<path class="st11" d="M378.2,122.9c-0.2,0.2-0.4,0.3-0.7,0.3h-8.1c0.2,1,0.6,1.8,1.4,2.4c0.8,0.6,1.7,0.9,2.8,0.9
		c0.4,0,0.9-0.1,1.3-0.2c0.5-0.2,0.8-0.3,1.1-0.6c0.2-0.2,0.4-0.2,0.7-0.2c0.3,0,0.5,0.1,0.6,0.2c0.3,0.2,0.4,0.5,0.4,0.7
		c0,0.3-0.1,0.5-0.3,0.6c-0.5,0.4-1.1,0.7-1.8,0.9c-0.7,0.2-1.4,0.4-2.1,0.4c-1.2,0-2.2-0.3-3.2-0.8c-0.9-0.5-1.7-1.2-2.2-2.1
		c-0.5-0.9-0.8-1.9-0.8-3.1c0-1.1,0.2-2.2,0.7-3.1c0.5-0.9,1.2-1.6,2.1-2.1c0.9-0.5,1.9-0.8,3-0.8c1.1,0,2.1,0.2,2.9,0.7
		c0.8,0.5,1.4,1.2,1.8,2c0.4,0.9,0.6,1.9,0.6,3C378.5,122.5,378.4,122.7,378.2,122.9z M370.6,119.1c-0.7,0.6-1.1,1.3-1.2,2.3h7.1
		c-0.1-1-0.5-1.7-1.1-2.3c-0.6-0.6-1.4-0.9-2.3-0.9C372.1,118.3,371.3,118.6,370.6,119.1z"/>
	<path class="st11" d="M381.3,122.9c-0.2-0.2-0.3-0.5-0.3-0.8c0-0.3,0.1-0.6,0.3-0.8c0.2-0.2,0.4-0.3,0.7-0.3h4
		c0.3,0,0.5,0.1,0.7,0.3c0.2,0.2,0.3,0.5,0.3,0.8c0,0.3-0.1,0.6-0.3,0.8c-0.2,0.2-0.4,0.3-0.7,0.3h-4
		C381.7,123.2,381.4,123.1,381.3,122.9z"/>
	<path class="st11" d="M400.8,111.8c0.2,0.2,0.3,0.5,0.3,0.8v9.8c0,1.1-0.3,2.1-0.8,3c-0.5,0.9-1.2,1.6-2.1,2.1
		c-0.9,0.5-1.9,0.8-3,0.8c-1.1,0-2.1-0.3-3-0.8c-0.9-0.5-1.6-1.2-2.1-2.1c-0.5-0.9-0.8-1.9-0.8-3s0.2-2.1,0.7-3
		c0.5-0.9,1.1-1.6,2-2.1c0.8-0.5,1.8-0.8,2.8-0.8c0.8,0,1.6,0.2,2.3,0.5c0.7,0.3,1.3,0.8,1.8,1.4v-5.8c0-0.3,0.1-0.6,0.3-0.8
		c0.2-0.2,0.5-0.3,0.8-0.3C400.3,111.5,400.6,111.6,400.8,111.8z M397.1,125.9c0.6-0.3,1-0.8,1.4-1.4c0.3-0.6,0.5-1.3,0.5-2.1
		c0-0.8-0.2-1.4-0.5-2c-0.3-0.6-0.8-1.1-1.4-1.4c-0.6-0.4-1.2-0.5-1.9-0.5c-0.7,0-1.4,0.2-1.9,0.5c-0.6,0.4-1,0.8-1.4,1.4
		c-0.3,0.6-0.5,1.3-0.5,2c0,0.8,0.2,1.4,0.5,2.1c0.3,0.6,0.8,1.1,1.4,1.4c0.6,0.4,1.2,0.5,1.9,0.5
		C395.9,126.4,396.5,126.2,397.1,125.9z"/>
	<g class="st1">
		<path class="st3" d="M324.1,132.3c-0.1-0.1-0.1-0.2-0.1-0.3c0-0.1,0-0.2,0.1-0.3c0.1-0.1,0.2-0.1,0.3-0.1s0.2,0,0.3,0.1
			c0.1,0.1,0.1,0.2,0.1,0.3c0,0.1,0,0.2-0.1,0.3c-0.1,0.1-0.2,0.1-0.3,0.1S324.2,132.4,324.1,132.3z M324.2,137.4v-4.1
			c0-0.1,0-0.1,0.1-0.1h0.4c0.1,0,0.1,0,0.1,0.1v4.1c0,0.1,0,0.1-0.1,0.1h-0.4C324.2,137.6,324.2,137.5,324.2,137.4z"/>
		<path class="st3" d="M328.5,136.9c0.2-0.1,0.3-0.3,0.4-0.5c0,0,0,0,0.1-0.1c0,0,0.1,0,0.1,0l0.2,0.1c0.1,0,0.1,0.1,0.1,0.1
			c-0.1,0.3-0.3,0.5-0.6,0.7s-0.6,0.3-1,0.3c-0.4,0-0.7-0.1-1-0.3c-0.3-0.2-0.5-0.5-0.6-0.8c-0.1-0.3-0.2-0.7-0.2-1.2
			c0-0.2,0-0.4,0-0.6c0-0.1,0-0.3,0.1-0.4c0.1-0.4,0.3-0.7,0.6-0.9c0.3-0.2,0.6-0.3,1.1-0.3c0.5,0,0.9,0.1,1.2,0.4
			c0.3,0.3,0.5,0.6,0.5,1.1c0,0.2,0.1,0.5,0.1,0.9c0,0.1,0,0.1-0.1,0.1h-2.7c0,0,0,0,0,0c0,0.3,0,0.5,0.1,0.6
			c0.1,0.3,0.2,0.5,0.4,0.6c0.2,0.2,0.5,0.2,0.8,0.2C328.1,137.1,328.3,137,328.5,136.9z M327.1,133.9c-0.2,0.1-0.3,0.3-0.4,0.6
			c0,0.1-0.1,0.3-0.1,0.6c0,0,0,0,0,0h2.2c0,0,0,0,0,0c0-0.3,0-0.4-0.1-0.5c-0.1-0.3-0.2-0.5-0.4-0.6c-0.2-0.2-0.4-0.2-0.7-0.2
			C327.5,133.7,327.3,133.8,327.1,133.9z"/>
		<path class="st3" d="M333.5,131.6h0.4c0.1,0,0.1,0,0.1,0.1v5.8c0,0.1,0,0.1-0.1,0.1h-0.4c-0.1,0-0.1,0-0.1-0.1v-0.3c0,0,0,0,0,0
			c0,0,0,0,0,0c-0.1,0.2-0.3,0.3-0.5,0.4c-0.2,0.1-0.4,0.1-0.6,0.1c-0.4,0-0.7-0.1-1-0.3c-0.3-0.2-0.5-0.5-0.6-0.8
			c-0.1-0.3-0.1-0.6-0.1-1.1c0-0.5,0-0.8,0.1-1.1c0.1-0.4,0.3-0.7,0.6-0.9c0.3-0.2,0.6-0.3,1-0.3c0.2,0,0.4,0,0.6,0.1
			c0.2,0.1,0.3,0.2,0.5,0.4c0,0,0,0,0,0c0,0,0,0,0,0v-2C333.4,131.6,333.4,131.6,333.5,131.6z M333.4,136c0-0.2,0-0.4,0-0.6
			s0-0.5,0-0.6c0-0.2-0.1-0.3-0.1-0.4c-0.1-0.2-0.2-0.3-0.3-0.5c-0.2-0.1-0.3-0.2-0.6-0.2c-0.2,0-0.4,0.1-0.6,0.2
			c-0.2,0.1-0.3,0.3-0.4,0.5c-0.1,0.1-0.1,0.3-0.1,0.4c0,0.2,0,0.4,0,0.7c0,0.3,0,0.5,0,0.6c0,0.2,0.1,0.3,0.1,0.4
			c0.1,0.2,0.2,0.4,0.4,0.5c0.2,0.1,0.4,0.2,0.6,0.2c0.2,0,0.4-0.1,0.6-0.2c0.2-0.1,0.3-0.3,0.3-0.5
			C333.3,136.3,333.3,136.2,333.4,136z"/>
		<path class="st3" d="M337.7,136.9c0.2-0.1,0.3-0.3,0.4-0.5c0,0,0,0,0.1-0.1c0,0,0.1,0,0.1,0l0.2,0.1c0.1,0,0.1,0.1,0.1,0.1
			c-0.1,0.3-0.3,0.5-0.6,0.7s-0.6,0.3-1,0.3c-0.4,0-0.7-0.1-1-0.3s-0.5-0.5-0.6-0.8c-0.1-0.3-0.2-0.7-0.2-1.2c0-0.2,0-0.4,0-0.6
			c0-0.1,0-0.3,0.1-0.4c0.1-0.4,0.3-0.7,0.6-0.9c0.3-0.2,0.6-0.3,1.1-0.3c0.5,0,0.9,0.1,1.2,0.4c0.3,0.3,0.5,0.6,0.5,1.1
			c0,0.2,0.1,0.5,0.1,0.9c0,0.1,0,0.1-0.1,0.1h-2.7c0,0,0,0,0,0c0,0.3,0,0.5,0.1,0.6c0.1,0.3,0.2,0.5,0.4,0.6
			c0.2,0.2,0.5,0.2,0.8,0.2C337.3,137.1,337.5,137,337.7,136.9z M336.3,133.9c-0.2,0.1-0.3,0.3-0.4,0.6c0,0.1-0.1,0.3-0.1,0.6
			c0,0,0,0,0,0h2.2c0,0,0,0,0,0c0-0.3,0-0.4-0.1-0.5c-0.1-0.3-0.2-0.5-0.4-0.6c-0.2-0.2-0.4-0.2-0.7-0.2
			C336.7,133.7,336.5,133.8,336.3,133.9z"/>
		<path class="st3" d="M342.2,133.3c0.1,0,0.1,0.1,0.1,0.1l-0.1,0.4c0,0.1-0.1,0.1-0.1,0.1c-0.1,0-0.2,0-0.4,0
			c-0.3,0-0.5,0.1-0.7,0.3c-0.2,0.2-0.3,0.5-0.3,0.8v2.5c0,0.1,0,0.1-0.1,0.1h-0.4c-0.1,0-0.1,0-0.1-0.1v-4.1c0-0.1,0-0.1,0.1-0.1
			h0.4c0.1,0,0.1,0,0.1,0.1v0.5c0,0,0,0,0,0c0,0,0,0,0,0c0.1-0.2,0.3-0.4,0.5-0.5c0.2-0.1,0.4-0.2,0.6-0.2
			C341.9,133.2,342,133.2,342.2,133.3z"/>
		<path class="st3" d="M345.4,136.9c0.2-0.1,0.3-0.3,0.4-0.5c0,0,0,0,0.1-0.1c0,0,0.1,0,0.1,0l0.2,0.1c0.1,0,0.1,0.1,0.1,0.1
			c-0.1,0.3-0.3,0.5-0.6,0.7s-0.6,0.3-1,0.3c-0.4,0-0.7-0.1-1-0.3s-0.5-0.5-0.6-0.8c-0.1-0.3-0.2-0.7-0.2-1.2c0-0.2,0-0.4,0-0.6
			c0-0.1,0-0.3,0.1-0.4c0.1-0.4,0.3-0.7,0.6-0.9c0.3-0.2,0.6-0.3,1.1-0.3c0.5,0,0.9,0.1,1.2,0.4c0.3,0.3,0.5,0.6,0.5,1.1
			c0,0.2,0.1,0.5,0.1,0.9c0,0.1,0,0.1-0.1,0.1h-2.7c0,0,0,0,0,0c0,0.3,0,0.5,0.1,0.6c0.1,0.3,0.2,0.5,0.4,0.6
			c0.2,0.2,0.5,0.2,0.8,0.2C345,137.1,345.2,137,345.4,136.9z M343.9,133.9c-0.2,0.1-0.3,0.3-0.4,0.6c0,0.1-0.1,0.3-0.1,0.6
			c0,0,0,0,0,0h2.2c0,0,0,0,0,0c0-0.3,0-0.4-0.1-0.5c-0.1-0.3-0.2-0.5-0.4-0.6c-0.2-0.2-0.4-0.2-0.7-0.2
			C344.3,133.7,344.1,133.8,343.9,133.9z"/>
		<path class="st3" d="M349.9,136.9c0.2-0.1,0.3-0.3,0.4-0.5c0,0,0,0,0.1-0.1c0,0,0.1,0,0.1,0l0.2,0.1c0.1,0,0.1,0.1,0.1,0.1
			c-0.1,0.3-0.3,0.5-0.6,0.7s-0.6,0.3-1,0.3c-0.4,0-0.7-0.1-1-0.3s-0.5-0.5-0.6-0.8c-0.1-0.3-0.2-0.7-0.2-1.2c0-0.2,0-0.4,0-0.6
			c0-0.1,0-0.3,0.1-0.4c0.1-0.4,0.3-0.7,0.6-0.9c0.3-0.2,0.6-0.3,1.1-0.3c0.5,0,0.9,0.1,1.2,0.4c0.3,0.3,0.5,0.6,0.5,1.1
			c0,0.2,0.1,0.5,0.1,0.9c0,0.1,0,0.1-0.1,0.1h-2.7c0,0,0,0,0,0c0,0.3,0,0.5,0.1,0.6c0.1,0.3,0.2,0.5,0.4,0.6
			c0.2,0.2,0.5,0.2,0.8,0.2C349.5,137.1,349.7,137,349.9,136.9z M348.5,133.9c-0.2,0.1-0.3,0.3-0.4,0.6c0,0.1-0.1,0.3-0.1,0.6
			c0,0,0,0,0,0h2.2c0,0,0,0,0,0c0-0.3,0-0.4-0.1-0.5c-0.1-0.3-0.2-0.5-0.4-0.6c-0.2-0.2-0.4-0.2-0.7-0.2
			C348.9,133.7,348.7,133.8,348.5,133.9z"/>
		<path class="st3" d="M355,133.6c0.3,0.3,0.4,0.6,0.4,1.1v2.8c0,0.1,0,0.1-0.1,0.1h-0.4c-0.1,0-0.1,0-0.1-0.1v-2.7
			c0-0.3-0.1-0.6-0.3-0.8c-0.2-0.2-0.4-0.3-0.7-0.3c-0.3,0-0.5,0.1-0.7,0.2c-0.2,0.2-0.3,0.4-0.3,0.6v2.8c0,0.1,0,0.1-0.1,0.1h-0.4
			c-0.1,0-0.1,0-0.1-0.1v-4.1c0-0.1,0-0.1,0.1-0.1h0.4c0.1,0,0.1,0,0.1,0.1v0.3c0,0,0,0,0,0c0,0,0,0,0,0c0.3-0.3,0.6-0.5,1.1-0.5
			C354.4,133.2,354.7,133.3,355,133.6z"/>
		<path class="st3" d="M358.5,132.3c-0.1-0.1-0.1-0.2-0.1-0.3c0-0.1,0-0.2,0.1-0.3c0.1-0.1,0.2-0.1,0.3-0.1s0.2,0,0.3,0.1
			c0.1,0.1,0.1,0.2,0.1,0.3c0,0.1,0,0.2-0.1,0.3c-0.1,0.1-0.2,0.1-0.3,0.1S358.6,132.4,358.5,132.3z M358.5,137.4v-4.1
			c0-0.1,0-0.1,0.1-0.1h0.4c0.1,0,0.1,0,0.1,0.1v4.1c0,0.1,0,0.1-0.1,0.1h-0.4C358.6,137.6,358.5,137.5,358.5,137.4z"/>
		<path class="st3" d="M363.4,133.6c0.3,0.3,0.4,0.6,0.4,1.1v2.8c0,0.1,0,0.1-0.1,0.1h-0.4c-0.1,0-0.1,0-0.1-0.1v-2.7
			c0-0.3-0.1-0.6-0.3-0.8c-0.2-0.2-0.4-0.3-0.7-0.3c-0.3,0-0.5,0.1-0.7,0.2c-0.2,0.2-0.3,0.4-0.3,0.6v2.8c0,0.1,0,0.1-0.1,0.1h-0.4
			c-0.1,0-0.1,0-0.1-0.1v-4.1c0-0.1,0-0.1,0.1-0.1h0.4c0.1,0,0.1,0,0.1,0.1v0.3c0,0,0,0,0,0c0,0,0,0,0,0c0.3-0.3,0.6-0.5,1.1-0.5
			C362.8,133.2,363.2,133.3,363.4,133.6z"/>
		<path class="st3" d="M370.3,135.4c0,0.5,0,0.8-0.1,1.1c-0.1,0.4-0.3,0.6-0.6,0.8c-0.3,0.2-0.6,0.3-1,0.3c-0.2,0-0.4,0-0.6-0.1
			c-0.2-0.1-0.3-0.2-0.5-0.4c0,0,0,0,0,0c0,0,0,0,0,0v0.3c0,0.1,0,0.1-0.1,0.1H367c-0.1,0-0.1,0-0.1-0.1v-5.8c0-0.1,0-0.1,0.1-0.1
			h0.4c0.1,0,0.1,0,0.1,0.1v2c0,0,0,0,0,0c0,0,0,0,0,0c0.1-0.2,0.3-0.3,0.5-0.4c0.2-0.1,0.4-0.1,0.6-0.1c0.4,0,0.7,0.1,1,0.3
			c0.3,0.2,0.5,0.5,0.6,0.9C370.3,134.6,370.3,134.9,370.3,135.4z M369.7,136c0-0.2,0-0.4,0-0.6c0-0.3,0-0.5,0-0.7
			c0-0.2-0.1-0.3-0.1-0.4c-0.1-0.2-0.2-0.3-0.4-0.5c-0.2-0.1-0.4-0.2-0.6-0.2c-0.2,0-0.4,0.1-0.6,0.2c-0.2,0.1-0.3,0.3-0.3,0.5
			c-0.1,0.1-0.1,0.3-0.1,0.4c0,0.2,0,0.4,0,0.6s0,0.5,0,0.6s0.1,0.3,0.1,0.4c0.1,0.2,0.2,0.4,0.3,0.5c0.2,0.1,0.3,0.2,0.6,0.2
			c0.2,0,0.4-0.1,0.6-0.2c0.2-0.1,0.3-0.3,0.4-0.5C369.6,136.3,369.6,136.2,369.7,136z"/>
		<path class="st3" d="M373.9,136.9c0.2-0.1,0.3-0.3,0.4-0.5c0,0,0,0,0.1-0.1c0,0,0.1,0,0.1,0l0.2,0.1c0.1,0,0.1,0.1,0.1,0.1
			c-0.1,0.3-0.3,0.5-0.6,0.7c-0.3,0.2-0.6,0.3-1,0.3c-0.4,0-0.7-0.1-1-0.3s-0.5-0.5-0.6-0.8c-0.1-0.3-0.2-0.7-0.2-1.2
			c0-0.2,0-0.4,0-0.6c0-0.1,0-0.3,0.1-0.4c0.1-0.4,0.3-0.7,0.6-0.9c0.3-0.2,0.6-0.3,1.1-0.3c0.5,0,0.9,0.1,1.2,0.4
			c0.3,0.3,0.5,0.6,0.5,1.1c0,0.2,0.1,0.5,0.1,0.9c0,0.1,0,0.1-0.1,0.1H372c0,0,0,0,0,0c0,0.3,0,0.5,0.1,0.6
			c0.1,0.3,0.2,0.5,0.4,0.6c0.2,0.2,0.5,0.2,0.8,0.2C373.4,137.1,373.7,137,373.9,136.9z M372.4,133.9c-0.2,0.1-0.3,0.3-0.4,0.6
			c0,0.1-0.1,0.3-0.1,0.6c0,0,0,0,0,0h2.2c0,0,0,0,0,0c0-0.3,0-0.4-0.1-0.5c-0.1-0.3-0.2-0.5-0.4-0.6c-0.2-0.2-0.4-0.2-0.7-0.2
			C372.8,133.7,372.6,133.8,372.4,133.9z"/>
		<path class="st3" d="M376.8,137.5l-1.2-4.1c0,0,0,0,0,0c0,0,0,0,0-0.1c0,0,0,0,0.1,0h0.4c0.1,0,0.1,0,0.1,0.1l0.9,3.3c0,0,0,0,0,0
			c0,0,0,0,0,0l0.9-3.3c0-0.1,0.1-0.1,0.1-0.1h0.4c0.1,0,0.1,0,0.1,0.1l0.9,3.3c0,0,0,0,0,0c0,0,0,0,0,0l0.9-3.3
			c0-0.1,0.1-0.1,0.1-0.1l0.4,0c0,0,0.1,0,0.1,0c0,0,0,0.1,0,0.1l-1.2,4.1c0,0.1-0.1,0.1-0.1,0.1h-0.4c-0.1,0-0.1,0-0.1-0.1
			l-0.9-3.2c0,0,0,0,0,0c0,0,0,0,0,0l-0.9,3.2c0,0.1-0.1,0.1-0.1,0.1h-0.4C376.8,137.6,376.8,137.5,376.8,137.5z"/>
		<path class="st3" d="M384.3,136.9c0.2-0.1,0.3-0.3,0.4-0.5c0,0,0,0,0.1-0.1c0,0,0.1,0,0.1,0l0.2,0.1c0.1,0,0.1,0.1,0.1,0.1
			c-0.1,0.3-0.3,0.5-0.6,0.7c-0.3,0.2-0.6,0.3-1,0.3c-0.4,0-0.7-0.1-1-0.3s-0.5-0.5-0.6-0.8c-0.1-0.3-0.2-0.7-0.2-1.2
			c0-0.2,0-0.4,0-0.6c0-0.1,0-0.3,0.1-0.4c0.1-0.4,0.3-0.7,0.6-0.9c0.3-0.2,0.6-0.3,1.1-0.3c0.5,0,0.9,0.1,1.2,0.4
			c0.3,0.3,0.5,0.6,0.5,1.1c0,0.2,0.1,0.5,0.1,0.9c0,0.1,0,0.1-0.1,0.1h-2.7c0,0,0,0,0,0c0,0.3,0,0.5,0.1,0.6
			c0.1,0.3,0.2,0.5,0.4,0.6c0.2,0.2,0.5,0.2,0.8,0.2C383.9,137.1,384.1,137,384.3,136.9z M382.9,133.9c-0.2,0.1-0.3,0.3-0.4,0.6
			c0,0.1-0.1,0.3-0.1,0.6c0,0,0,0,0,0h2.2c0,0,0,0,0,0c0-0.3,0-0.4-0.1-0.5c-0.1-0.3-0.2-0.5-0.4-0.6c-0.2-0.2-0.4-0.2-0.7-0.2
			C383.3,133.7,383.1,133.8,382.9,133.9z"/>
		<path class="st3" d="M389.3,133.2h0.4c0.1,0,0.1,0,0.1,0.1v4.1c0,0.6-0.2,1.1-0.6,1.4c-0.4,0.3-0.9,0.4-1.5,0.4
			c-0.1,0-0.2,0-0.3,0c-0.1,0-0.1,0-0.1-0.1l0-0.3c0-0.1,0-0.1,0.1-0.1c0.6,0,1-0.1,1.3-0.3c0.3-0.2,0.4-0.5,0.4-1v-0.3c0,0,0,0,0,0
			c0,0,0,0,0,0c-0.3,0.3-0.6,0.5-1.1,0.5c-0.4,0-0.7-0.1-1-0.3c-0.3-0.2-0.5-0.5-0.6-0.8c-0.1-0.2-0.1-0.6-0.1-1c0-0.3,0-0.5,0-0.6
			c0-0.2,0-0.3,0.1-0.5c0.1-0.3,0.3-0.6,0.6-0.8c0.3-0.2,0.6-0.3,1-0.3c0.5,0,0.9,0.2,1.1,0.5c0,0,0,0,0,0c0,0,0,0,0,0v-0.3
			C389.2,133.3,389.2,133.2,389.3,133.2z M389.2,135.9c0-0.1,0-0.3,0-0.5c0-0.3,0-0.5,0-0.6c0-0.1,0-0.2,0-0.3
			c0-0.2-0.2-0.4-0.3-0.6c-0.2-0.2-0.4-0.2-0.7-0.2c-0.3,0-0.5,0.1-0.7,0.2c-0.2,0.2-0.3,0.4-0.4,0.6c-0.1,0.2-0.1,0.5-0.1,0.9
			c0,0.4,0,0.7,0.1,0.9c0.1,0.2,0.2,0.4,0.4,0.6c0.2,0.2,0.4,0.2,0.7,0.2c0.3,0,0.5-0.1,0.7-0.2c0.2-0.2,0.3-0.4,0.3-0.6
			C389.2,136.2,389.2,136.1,389.2,135.9z"/>
		<path class="st3" d="M391.1,132.3c-0.1-0.1-0.1-0.2-0.1-0.3c0-0.1,0-0.2,0.1-0.3c0.1-0.1,0.2-0.1,0.3-0.1s0.2,0,0.3,0.1
			c0.1,0.1,0.1,0.2,0.1,0.3c0,0.1,0,0.2-0.1,0.3c-0.1,0.1-0.2,0.1-0.3,0.1S391.2,132.4,391.1,132.3z M391.2,137.4v-4.1
			c0-0.1,0-0.1,0.1-0.1h0.4c0.1,0,0.1,0,0.1,0.1v4.1c0,0.1,0,0.1-0.1,0.1h-0.4C391.2,137.6,391.2,137.5,391.2,137.4z"/>
		<path class="st3" d="M396.1,133.6c0.3,0.3,0.4,0.6,0.4,1.1v2.8c0,0.1,0,0.1-0.1,0.1H396c-0.1,0-0.1,0-0.1-0.1v-2.7
			c0-0.3-0.1-0.6-0.3-0.8c-0.2-0.2-0.4-0.3-0.7-0.3c-0.3,0-0.5,0.1-0.7,0.2c-0.2,0.2-0.3,0.4-0.3,0.6v2.8c0,0.1,0,0.1-0.1,0.1h-0.4
			c-0.1,0-0.1,0-0.1-0.1v-4.1c0-0.1,0-0.1,0.1-0.1h0.4c0.1,0,0.1,0,0.1,0.1v0.3c0,0,0,0,0,0c0,0,0,0,0,0c0.3-0.3,0.6-0.5,1.1-0.5
			C395.5,133.2,395.8,133.3,396.1,133.6z"/>
		<path class="st3" d="M400.6,133.2h0.4c0.1,0,0.1,0,0.1,0.1v4.1c0,0.6-0.2,1.1-0.6,1.4c-0.4,0.3-0.9,0.4-1.5,0.4
			c-0.1,0-0.2,0-0.3,0c-0.1,0-0.1,0-0.1-0.1l0-0.3c0-0.1,0-0.1,0.1-0.1c0.6,0,1-0.1,1.3-0.3c0.3-0.2,0.4-0.5,0.4-1v-0.3c0,0,0,0,0,0
			c0,0,0,0,0,0c-0.3,0.3-0.6,0.5-1.1,0.5c-0.4,0-0.7-0.1-1-0.3c-0.3-0.2-0.5-0.5-0.6-0.8c-0.1-0.2-0.1-0.6-0.1-1c0-0.3,0-0.5,0-0.6
			c0-0.2,0-0.3,0.1-0.5c0.1-0.3,0.3-0.6,0.6-0.8c0.3-0.2,0.6-0.3,1-0.3c0.5,0,0.9,0.2,1.1,0.5c0,0,0,0,0,0c0,0,0,0,0,0v-0.3
			C400.5,133.3,400.5,133.2,400.6,133.2z M400.5,135.9c0-0.1,0-0.3,0-0.5c0-0.3,0-0.5,0-0.6c0-0.1,0-0.2,0-0.3
			c0-0.2-0.2-0.4-0.3-0.6c-0.2-0.2-0.4-0.2-0.7-0.2c-0.3,0-0.5,0.1-0.7,0.2c-0.2,0.2-0.3,0.4-0.4,0.6c-0.1,0.2-0.1,0.5-0.1,0.9
			c0,0.4,0,0.7,0.1,0.9c0.1,0.2,0.2,0.4,0.4,0.6c0.2,0.2,0.4,0.2,0.7,0.2c0.3,0,0.5-0.1,0.7-0.2c0.2-0.2,0.3-0.4,0.3-0.6
			C400.5,136.2,400.5,136.1,400.5,135.9z"/>
	</g>
</g>
</svg>
