<?xml version="1.0" encoding="utf-8"?>
<!-- Generator: Adobe Illustrator 22.0.1, SVG Export Plug-In . SVG Version: 6.00 Build 0)  -->
<svg version="1.1" xmlns="http://www.w3.org/2000/svg" xmlns:xlink="http://www.w3.org/1999/xlink" x="0px" y="0px"
	 viewBox="0 0 487.3 231.8" style="enable-background:new 0 0 487.3 231.8;" xml:space="preserve">
<style type="text/css">
	.st0{fill:#FFFFFF;stroke:#000000;stroke-miterlimit:10;}
	.st1{fill:none;stroke:#000000;stroke-miterlimit:10;}
	.st2{stroke:#000000;stroke-miterlimit:10;}
	.st3{fill:#BBDCF3;}
	.st4{fill:#C3003D;}
	.st5{fill:none;stroke:#FFFFFF;stroke-miterlimit:10;}
	.st6{fill:#070809;}
	.st7{font-family:'Barlow-Bold';}
	.st8{font-size:24.2441px;}
	.st9{fill:#BBDCEF;}
	.st10{fill:#FFFFFF;}
	.st11{display:none;}
	.st12{display:inline;fill:#BBDCEF;}
	.st13{display:inline;fill:#C3003D;}
	.st14{display:inline;fill:#FFFFFF;}
	.st15{display:inline;}
</style>
<g id="Layer_5">
	<path class="st0" d="M126.2,28c18.4-0.2,26-4.5,30.7-5.9l81.7,20.6c1.4,8.1-4.1,33.5-9.3,45.5h-39.3v116.2
		c-9.8,3.1-63.7,3.1-63.7,3.1s-53.9,0-63.7-3.1V88.3H23.2c-5.3-12-10.8-37.4-9.3-45.5l81.7-20.6C100.2,23.5,107.8,27.8,126.2,28z"/>
	<path class="st1" d="M363,28c18.4-0.2,26-4.5,30.7-5.9l81.7,20.6c1.4,8.1-4.1,33.5-9.3,45.5h-39.3v116.2
		c-9.8,3.1-63.7,3.1-63.7,3.1s-53.9,0-63.7-3.1V88.3H260c-5.3-12-10.8-37.4-9.3-45.5l81.7-20.6C337,23.5,344.6,27.8,363,28z"/>
	<path class="st1" d="M64.2,30.4c2.7,7.4,11.8,27.5-1.9,57.9"/>
	<path class="st1" d="M188.5,30.4c-2.7,7.4-12.3,27.5,1.4,57.9"/>
	<path class="st1" d="M301,30.4c2.7,7.4,11.8,27.5-1.9,57.9"/>
	<path class="st1" d="M425.3,30.4c-2.7,7.4-12.3,27.5,1.4,57.9"/>
</g>
<g id="zwarte_tshirt">
	<path class="st1" d="M156.1,22.5c-2.3,5-9.2,19.2-30,19.2s-27.7-14.2-30-19.2"/>
	<path class="st1" d="M64.2,30.4c2.7,7.4,11.8,27.5-1.9,57.9"/>
	<path class="st1" d="M188.5,30.4c-2.7,7.4-12.3,27.5,1.4,57.9"/>
	<path class="st1" d="M301,30.4c2.7,7.4,11.8,27.5-1.9,57.9"/>
	<path class="st1" d="M425.3,30.4c-2.7,7.4-12.3,27.5,1.4,57.9"/>
</g>
<g id="Layer_3">
	<g>
		<path class="st3" d="M373.5,188.4l15.6-15.6l-31.3-31.3l-15.6,15.6c-8.6,8.6-8.6,22.6,0,31.3l0,0C350.9,197,364.9,197,373.5,188.4
			z"/>
		<path class="st3" d="M392.3,169.6l31.3-31.3l-15.8-15.8c-8.5-8.5-22.4-8.5-30.9,0L361,138.4L392.3,169.6z"/>
		<path class="st4" d="M426.7,140.6l-30.4,31.3l15.6,15.6c4.1,4.1,9.4,6.3,14.8,6.5L426.7,140.6z"/>
	</g>
</g>
<g id="zwarte_rand">
	<path class="st1" d="M329.9,23.6c6.2,7.1,15,12.7,31.9,12.7c16.8,0,27.4-3.2,33.3-12.7"/>
	<path class="st1" d="M126.2,28c18.4-0.2,26-4.5,30.7-5.9l81.7,20.6c1.4,8.1-4.1,33.5-9.3,45.5h-39.3v116.2
		c-9.8,3.1-63.7,3.1-63.7,3.1s-53.9,0-63.7-3.1V88.3H23.2c-5.3-12-10.8-37.4-9.3-45.5l81.7-20.6C100.2,23.5,107.8,27.8,126.2,28z"/>
	<path class="st1" d="M363,28c18.4-0.2,26-4.5,30.7-5.9l81.7,20.6c1.4,8.1-4.1,33.5-9.3,45.5h-39.3v116.2
		c-9.8,3.1-63.7,3.1-63.7,3.1s-53.9,0-63.7-3.1V88.3H260c-5.3-12-10.8-37.4-9.3-45.5l81.7-20.6C337,23.5,344.6,27.8,363,28z"/>
	<path class="st1" d="M156.1,22.5c-2.3,5-9.2,19.2-30,19.2s-27.7-14.2-30-19.2"/>
	<path class="st1" d="M64.2,30.4c2.7,7.4,11.8,27.5-1.9,57.9"/>
	<path class="st1" d="M188.5,30.4c-2.7,7.4-12.3,27.5,1.4,57.9"/>
	<path class="st1" d="M301,30.4c2.7,7.4,11.8,27.5-1.9,57.9"/>
	<path class="st1" d="M425.3,30.4c-2.7,7.4-12.3,27.5,1.4,57.9"/>
</g>
<g id="witte_rand">
</g>
<g id="Layer_8">
	<text transform="matrix(1 0 0 1 332.9359 103.332)" class="st6 st7 st8">diego</text>
	<path class="st9" d="M120.5,89.6l2.3-2.3l-4.6-4.6l-2.3,2.3c-1.3,1.3-1.3,3.3,0,4.6h0C117.2,90.8,119.2,90.8,120.5,89.6z"/>
	<path class="st9" d="M123.3,86.8l4.6-4.6l-2.3-2.3c-1.3-1.3-3.3-1.3-4.6,0l-2.3,2.3L123.3,86.8z"/>
	<path class="st4" d="M130.7,89.6l2.3-2.3l-4.6-4.6l-4.6,4.6l2.3,2.3C127.3,90.8,129.4,90.8,130.7,89.6z"/>
	<path class="st4" d="M133.5,86.8l4.6-4.6l-2.3-2.3c-1.3-1.3-3.3-1.3-4.6,0l-2.3,2.3L133.5,86.8z"/>
	<path class="st9" d="M140.9,89.6L140.9,89.6c1.3-1.3,1.3-3.3,0-4.6l-2.3-2.3l-4.6,4.6l2.3,2.3C137.5,90.8,139.6,90.8,140.9,89.6z"
		/>
	<path class="st6" d="M151.3,82.6c0.3,0.3,0.4,0.7,0.4,1.2v2.2c0,0.1,0,0.2-0.1,0.3c-0.1,0.1-0.2,0.1-0.3,0.1c-0.1,0-0.2,0-0.3-0.1
		c-0.1-0.1-0.1-0.2-0.1-0.3v-2.2c0-0.3-0.1-0.6-0.2-0.7c-0.2-0.2-0.4-0.2-0.6-0.2c-0.3,0-0.5,0.1-0.7,0.3c-0.2,0.2-0.3,0.4-0.3,0.7
		v2.2c0,0.1,0,0.2-0.1,0.3c-0.1,0.1-0.2,0.1-0.3,0.1c-0.1,0-0.2,0-0.3-0.1c-0.1-0.1-0.1-0.2-0.1-0.3v-2.2c0-0.3-0.1-0.6-0.2-0.7
		c-0.2-0.2-0.4-0.2-0.6-0.2c-0.3,0-0.5,0.1-0.7,0.3c-0.2,0.2-0.3,0.4-0.3,0.7v2.2c0,0.1,0,0.2-0.1,0.3c-0.1,0.1-0.2,0.1-0.3,0.1
		c-0.1,0-0.2,0-0.3-0.1c-0.1-0.1-0.1-0.2-0.1-0.3v-3.5c0-0.1,0-0.2,0.1-0.3c0.1-0.1,0.2-0.1,0.3-0.1c0.1,0,0.2,0,0.3,0.1
		c0.1,0.1,0.1,0.2,0.1,0.3c0.1-0.1,0.3-0.2,0.5-0.3c0.2-0.1,0.4-0.1,0.6-0.1c0.3,0,0.5,0.1,0.7,0.2c0.2,0.1,0.4,0.3,0.5,0.5
		c0.2-0.2,0.4-0.3,0.6-0.5c0.2-0.1,0.5-0.2,0.8-0.2C150.7,82.1,151.1,82.3,151.3,82.6z"/>
	<path class="st6" d="M153.6,86.3c-0.3-0.2-0.6-0.4-0.8-0.8c-0.2-0.3-0.3-0.7-0.3-1.1c0-0.4,0.1-0.8,0.3-1.1
		c0.2-0.3,0.4-0.6,0.8-0.8c0.3-0.2,0.7-0.3,1.1-0.3c0.4,0,0.8,0.1,1.1,0.3c0.3,0.2,0.6,0.4,0.8,0.8c0.2,0.3,0.3,0.7,0.3,1.1
		c0,0.4-0.1,0.8-0.3,1.1c-0.2,0.3-0.4,0.6-0.8,0.8c-0.3,0.2-0.7,0.3-1.1,0.3C154.3,86.5,153.9,86.5,153.6,86.3z M155.4,85.7
		c0.2-0.1,0.4-0.3,0.5-0.5c0.1-0.2,0.2-0.5,0.2-0.8c0-0.3-0.1-0.5-0.2-0.8c-0.1-0.2-0.3-0.4-0.5-0.5s-0.4-0.2-0.7-0.2
		c-0.3,0-0.5,0.1-0.7,0.2s-0.4,0.3-0.5,0.5c-0.1,0.2-0.2,0.5-0.2,0.8c0,0.3,0.1,0.5,0.2,0.8c0.1,0.2,0.3,0.4,0.5,0.5
		c0.2,0.1,0.4,0.2,0.7,0.2C154.9,85.8,155.2,85.8,155.4,85.7z"/>
	<path class="st6" d="M161.3,82.4c0,0.1,0.1,0.1,0.1,0.2c0,0,0,0.1,0,0.2l-1.7,3.6c-0.1,0.2-0.2,0.3-0.4,0.3c-0.1,0-0.2,0-0.2-0.1
		c-0.1,0-0.1-0.1-0.2-0.2l-1.7-3.6c0,0,0-0.1,0-0.1c0-0.1,0.1-0.3,0.2-0.3c0,0,0.1,0,0.2,0s0.1,0,0.2,0.1c0.1,0,0.1,0.1,0.1,0.1
		l1.4,3l1.4-3c0-0.1,0.1-0.1,0.1-0.1c0.1,0,0.1-0.1,0.2-0.1c0.1,0,0.1,0,0.2,0C161.2,82.3,161.2,82.3,161.3,82.4z"/>
	<path class="st6" d="M165.6,84.6c-0.1,0.1-0.2,0.1-0.3,0.1h-3c0.1,0.4,0.2,0.7,0.5,0.9c0.3,0.2,0.6,0.3,1,0.3c0.2,0,0.3,0,0.5-0.1
		c0.2-0.1,0.3-0.1,0.4-0.2c0.1-0.1,0.2-0.1,0.3-0.1c0.1,0,0.2,0,0.2,0.1c0.1,0.1,0.1,0.2,0.1,0.3c0,0.1,0,0.2-0.1,0.2
		c-0.2,0.1-0.4,0.3-0.7,0.3c-0.3,0.1-0.5,0.1-0.8,0.1c-0.4,0-0.8-0.1-1.1-0.3c-0.3-0.2-0.6-0.4-0.8-0.8c-0.2-0.3-0.3-0.7-0.3-1.1
		c0-0.4,0.1-0.8,0.3-1.1c0.2-0.3,0.4-0.6,0.7-0.8c0.3-0.2,0.7-0.3,1.1-0.3c0.4,0,0.7,0.1,1,0.3c0.3,0.2,0.5,0.4,0.7,0.7
		c0.2,0.3,0.2,0.7,0.2,1.1C165.7,84.4,165.6,84.5,165.6,84.6z M162.8,83.2c-0.2,0.2-0.4,0.5-0.4,0.8h2.6c0-0.3-0.2-0.6-0.4-0.8
		c-0.2-0.2-0.5-0.3-0.8-0.3C163.4,82.9,163,83,162.8,83.2z"/>
	<path class="st6" d="M166.7,84.6c-0.1-0.1-0.1-0.2-0.1-0.3c0-0.1,0-0.2,0.1-0.3c0.1-0.1,0.1-0.1,0.2-0.1h1.5c0.1,0,0.2,0,0.2,0.1
		c0.1,0.1,0.1,0.2,0.1,0.3c0,0.1,0,0.2-0.1,0.3c-0.1,0.1-0.1,0.1-0.2,0.1h-1.5C166.8,84.7,166.7,84.6,166.7,84.6z"/>
	<path class="st6" d="M173.8,80.5c0.1,0.1,0.1,0.2,0.1,0.3v3.6c0,0.4-0.1,0.8-0.3,1.1c-0.2,0.3-0.4,0.6-0.8,0.8
		c-0.3,0.2-0.7,0.3-1.1,0.3c-0.4,0-0.8-0.1-1.1-0.3c-0.3-0.2-0.6-0.4-0.8-0.8c-0.2-0.3-0.3-0.7-0.3-1.1s0.1-0.8,0.3-1.1
		c0.2-0.3,0.4-0.6,0.7-0.8c0.3-0.2,0.6-0.3,1-0.3c0.3,0,0.6,0.1,0.8,0.2c0.3,0.1,0.5,0.3,0.7,0.5v-2.1c0-0.1,0-0.2,0.1-0.3
		c0.1-0.1,0.2-0.1,0.3-0.1C173.6,80.4,173.7,80.5,173.8,80.5z M172.4,85.7c0.2-0.1,0.4-0.3,0.5-0.5c0.1-0.2,0.2-0.5,0.2-0.7
		c0-0.3-0.1-0.5-0.2-0.7c-0.1-0.2-0.3-0.4-0.5-0.5c-0.2-0.1-0.4-0.2-0.7-0.2c-0.3,0-0.5,0.1-0.7,0.2c-0.2,0.1-0.4,0.3-0.5,0.5
		c-0.1,0.2-0.2,0.5-0.2,0.7c0,0.3,0.1,0.5,0.2,0.7c0.1,0.2,0.3,0.4,0.5,0.5c0.2,0.1,0.4,0.2,0.7,0.2C172,85.8,172.2,85.8,172.4,85.7
		z"/>
	<path class="st6" d="M151.3,82.6c0.3,0.3,0.4,0.7,0.4,1.2v2.2c0,0.1,0,0.2-0.1,0.3c-0.1,0.1-0.2,0.1-0.3,0.1c-0.1,0-0.2,0-0.3-0.1
		c-0.1-0.1-0.1-0.2-0.1-0.3v-2.2c0-0.3-0.1-0.6-0.2-0.7c-0.2-0.2-0.4-0.2-0.6-0.2c-0.3,0-0.5,0.1-0.7,0.3c-0.2,0.2-0.3,0.4-0.3,0.7
		v2.2c0,0.1,0,0.2-0.1,0.3c-0.1,0.1-0.2,0.1-0.3,0.1c-0.1,0-0.2,0-0.3-0.1c-0.1-0.1-0.1-0.2-0.1-0.3v-2.2c0-0.3-0.1-0.6-0.2-0.7
		c-0.2-0.2-0.4-0.2-0.6-0.2c-0.3,0-0.5,0.1-0.7,0.3c-0.2,0.2-0.3,0.4-0.3,0.7v2.2c0,0.1,0,0.2-0.1,0.3c-0.1,0.1-0.2,0.1-0.3,0.1
		c-0.1,0-0.2,0-0.3-0.1c-0.1-0.1-0.1-0.2-0.1-0.3v-3.5c0-0.1,0-0.2,0.1-0.3c0.1-0.1,0.2-0.1,0.3-0.1c0.1,0,0.2,0,0.3,0.1
		c0.1,0.1,0.1,0.2,0.1,0.3c0.1-0.1,0.3-0.2,0.5-0.3c0.2-0.1,0.4-0.1,0.6-0.1c0.3,0,0.5,0.1,0.7,0.2c0.2,0.1,0.4,0.3,0.5,0.5
		c0.2-0.2,0.4-0.3,0.6-0.5c0.2-0.1,0.5-0.2,0.8-0.2C150.7,82.1,151.1,82.3,151.3,82.6z"/>
	<path class="st6" d="M153.6,86.3c-0.3-0.2-0.6-0.4-0.8-0.8c-0.2-0.3-0.3-0.7-0.3-1.1c0-0.4,0.1-0.8,0.3-1.1
		c0.2-0.3,0.4-0.6,0.8-0.8c0.3-0.2,0.7-0.3,1.1-0.3c0.4,0,0.8,0.1,1.1,0.3c0.3,0.2,0.6,0.4,0.8,0.8c0.2,0.3,0.3,0.7,0.3,1.1
		c0,0.4-0.1,0.8-0.3,1.1c-0.2,0.3-0.4,0.6-0.8,0.8c-0.3,0.2-0.7,0.3-1.1,0.3C154.3,86.5,153.9,86.5,153.6,86.3z M155.4,85.7
		c0.2-0.1,0.4-0.3,0.5-0.5c0.1-0.2,0.2-0.5,0.2-0.8c0-0.3-0.1-0.5-0.2-0.8c-0.1-0.2-0.3-0.4-0.5-0.5s-0.4-0.2-0.7-0.2
		c-0.3,0-0.5,0.1-0.7,0.2s-0.4,0.3-0.5,0.5c-0.1,0.2-0.2,0.5-0.2,0.8c0,0.3,0.1,0.5,0.2,0.8c0.1,0.2,0.3,0.4,0.5,0.5
		c0.2,0.1,0.4,0.2,0.7,0.2C154.9,85.8,155.2,85.8,155.4,85.7z"/>
	<path class="st6" d="M161.3,82.4c0,0.1,0.1,0.1,0.1,0.2c0,0,0,0.1,0,0.2l-1.7,3.6c-0.1,0.2-0.2,0.3-0.4,0.3c-0.1,0-0.2,0-0.2-0.1
		c-0.1,0-0.1-0.1-0.2-0.2l-1.7-3.6c0,0,0-0.1,0-0.1c0-0.1,0.1-0.3,0.2-0.3c0,0,0.1,0,0.2,0s0.1,0,0.2,0.1c0.1,0,0.1,0.1,0.1,0.1
		l1.4,3l1.4-3c0-0.1,0.1-0.1,0.1-0.1c0.1,0,0.1-0.1,0.2-0.1c0.1,0,0.1,0,0.2,0C161.2,82.3,161.2,82.3,161.3,82.4z"/>
	<path class="st6" d="M165.6,84.6c-0.1,0.1-0.2,0.1-0.3,0.1h-3c0.1,0.4,0.2,0.7,0.5,0.9c0.3,0.2,0.6,0.3,1,0.3c0.2,0,0.3,0,0.5-0.1
		c0.2-0.1,0.3-0.1,0.4-0.2c0.1-0.1,0.2-0.1,0.3-0.1c0.1,0,0.2,0,0.2,0.1c0.1,0.1,0.1,0.2,0.1,0.3c0,0.1,0,0.2-0.1,0.2
		c-0.2,0.1-0.4,0.3-0.7,0.3c-0.3,0.1-0.5,0.1-0.8,0.1c-0.4,0-0.8-0.1-1.1-0.3c-0.3-0.2-0.6-0.4-0.8-0.8c-0.2-0.3-0.3-0.7-0.3-1.1
		c0-0.4,0.1-0.8,0.3-1.1c0.2-0.3,0.4-0.6,0.7-0.8c0.3-0.2,0.7-0.3,1.1-0.3c0.4,0,0.7,0.1,1,0.3c0.3,0.2,0.5,0.4,0.7,0.7
		c0.2,0.3,0.2,0.7,0.2,1.1C165.7,84.4,165.6,84.5,165.6,84.6z M162.8,83.2c-0.2,0.2-0.4,0.5-0.4,0.8h2.6c0-0.3-0.2-0.6-0.4-0.8
		c-0.2-0.2-0.5-0.3-0.8-0.3C163.4,82.9,163,83,162.8,83.2z"/>
	<path class="st6" d="M166.7,84.6c-0.1-0.1-0.1-0.2-0.1-0.3c0-0.1,0-0.2,0.1-0.3c0.1-0.1,0.1-0.1,0.2-0.1h1.5c0.1,0,0.2,0,0.2,0.1
		c0.1,0.1,0.1,0.2,0.1,0.3c0,0.1,0,0.2-0.1,0.3c-0.1,0.1-0.1,0.1-0.2,0.1h-1.5C166.8,84.7,166.7,84.6,166.7,84.6z"/>
	<path class="st6" d="M173.8,80.5c0.1,0.1,0.1,0.2,0.1,0.3v3.6c0,0.4-0.1,0.8-0.3,1.1c-0.2,0.3-0.4,0.6-0.8,0.8
		c-0.3,0.2-0.7,0.3-1.1,0.3c-0.4,0-0.8-0.1-1.1-0.3c-0.3-0.2-0.6-0.4-0.8-0.8c-0.2-0.3-0.3-0.7-0.3-1.1s0.1-0.8,0.3-1.1
		c0.2-0.3,0.4-0.6,0.7-0.8c0.3-0.2,0.6-0.3,1-0.3c0.3,0,0.6,0.1,0.8,0.2c0.3,0.1,0.5,0.3,0.7,0.5v-2.1c0-0.1,0-0.2,0.1-0.3
		c0.1-0.1,0.2-0.1,0.3-0.1C173.6,80.4,173.7,80.5,173.8,80.5z M172.4,85.7c0.2-0.1,0.4-0.3,0.5-0.5c0.1-0.2,0.2-0.5,0.2-0.7
		c0-0.3-0.1-0.5-0.2-0.7c-0.1-0.2-0.3-0.4-0.5-0.5c-0.2-0.1-0.4-0.2-0.7-0.2c-0.3,0-0.5,0.1-0.7,0.2c-0.2,0.1-0.4,0.3-0.5,0.5
		c-0.1,0.2-0.2,0.5-0.2,0.7c0,0.3,0.1,0.5,0.2,0.7c0.1,0.2,0.3,0.4,0.5,0.5c0.2,0.1,0.4,0.2,0.7,0.2C172,85.8,172.2,85.8,172.4,85.7
		z"/>
	<g>
		<path class="st4" d="M145.9,88c0,0,0-0.1,0-0.1c0,0,0-0.1,0-0.1c0,0,0.1,0,0.1,0c0,0,0.1,0,0.1,0c0,0,0,0.1,0,0.1c0,0,0,0.1,0,0.1
			c0,0-0.1,0-0.1,0C145.9,88,145.9,88,145.9,88z M145.9,89.9v-1.5c0,0,0,0,0,0h0.1c0,0,0,0,0,0v1.5c0,0,0,0,0,0L145.9,89.9
			C145.9,89.9,145.9,89.9,145.9,89.9z"/>
		<path class="st4" d="M147.5,89.7c0.1,0,0.1-0.1,0.2-0.2c0,0,0,0,0,0c0,0,0,0,0,0l0.1,0c0,0,0,0,0,0.1c0,0.1-0.1,0.2-0.2,0.2
			s-0.2,0.1-0.4,0.1c-0.1,0-0.3,0-0.4-0.1s-0.2-0.2-0.2-0.3c0-0.1-0.1-0.2-0.1-0.4c0-0.1,0-0.2,0-0.2c0-0.1,0-0.1,0-0.1
			c0-0.1,0.1-0.2,0.2-0.3c0.1-0.1,0.2-0.1,0.4-0.1c0.2,0,0.3,0,0.4,0.1c0.1,0.1,0.2,0.2,0.2,0.4c0,0.1,0,0.2,0,0.3c0,0,0,0,0,0h-1
			c0,0,0,0,0,0c0,0.1,0,0.2,0,0.2c0,0.1,0.1,0.2,0.1,0.2c0.1,0.1,0.2,0.1,0.3,0.1C147.3,89.7,147.4,89.7,147.5,89.7z M146.9,88.6
			c-0.1,0.1-0.1,0.1-0.1,0.2c0,0,0,0.1,0,0.2c0,0,0,0,0,0h0.8c0,0,0,0,0,0c0-0.1,0-0.2,0-0.2c0-0.1-0.1-0.2-0.1-0.2
			c-0.1-0.1-0.2-0.1-0.3-0.1C147.1,88.5,147,88.5,146.9,88.6z"/>
		<path class="st4" d="M149.3,87.7h0.1c0,0,0,0,0,0v2.1c0,0,0,0,0,0h-0.1c0,0,0,0,0,0v-0.1c0,0,0,0,0,0c0,0,0,0,0,0
			c0,0.1-0.1,0.1-0.2,0.1c-0.1,0-0.1,0-0.2,0c-0.1,0-0.3,0-0.4-0.1c-0.1-0.1-0.2-0.2-0.2-0.3c0-0.1,0-0.2,0-0.4c0-0.2,0-0.3,0-0.4
			c0-0.1,0.1-0.2,0.2-0.3c0.1-0.1,0.2-0.1,0.4-0.1c0.1,0,0.2,0,0.2,0c0.1,0,0.1,0.1,0.2,0.1c0,0,0,0,0,0c0,0,0,0,0,0L149.3,87.7
			C149.2,87.7,149.3,87.7,149.3,87.7z M149.2,89.4c0-0.1,0-0.1,0-0.2c0-0.1,0-0.2,0-0.2c0-0.1,0-0.1,0-0.2c0-0.1-0.1-0.1-0.1-0.2
			c-0.1,0-0.1-0.1-0.2-0.1c-0.1,0-0.2,0-0.2,0.1c-0.1,0-0.1,0.1-0.1,0.2c0,0,0,0.1-0.1,0.2c0,0.1,0,0.1,0,0.2c0,0.1,0,0.2,0,0.2
			c0,0.1,0,0.1,0,0.1c0,0.1,0.1,0.1,0.1,0.2c0.1,0,0.1,0.1,0.2,0.1c0.1,0,0.2,0,0.2-0.1c0.1,0,0.1-0.1,0.1-0.2
			C149.2,89.5,149.2,89.4,149.2,89.4z"/>
		<path class="st4" d="M150.8,89.7c0.1,0,0.1-0.1,0.2-0.2c0,0,0,0,0,0c0,0,0,0,0,0l0.1,0c0,0,0,0,0,0.1c0,0.1-0.1,0.2-0.2,0.2
			s-0.2,0.1-0.4,0.1c-0.1,0-0.3,0-0.4-0.1c-0.1-0.1-0.2-0.2-0.2-0.3c0-0.1-0.1-0.2-0.1-0.4c0-0.1,0-0.2,0-0.2c0-0.1,0-0.1,0-0.1
			c0-0.1,0.1-0.2,0.2-0.3c0.1-0.1,0.2-0.1,0.4-0.1c0.2,0,0.3,0,0.4,0.1c0.1,0.1,0.2,0.2,0.2,0.4c0,0.1,0,0.2,0,0.3c0,0,0,0,0,0h-1
			c0,0,0,0,0,0c0,0.1,0,0.2,0,0.2c0,0.1,0.1,0.2,0.1,0.2c0.1,0.1,0.2,0.1,0.3,0.1C150.7,89.7,150.8,89.7,150.8,89.7z M150.3,88.6
			c-0.1,0.1-0.1,0.1-0.1,0.2c0,0,0,0.1,0,0.2c0,0,0,0,0,0h0.8c0,0,0,0,0,0c0-0.1,0-0.2,0-0.2c0-0.1-0.1-0.2-0.1-0.2
			c-0.1-0.1-0.2-0.1-0.3-0.1C150.4,88.5,150.4,88.5,150.3,88.6z"/>
		<path class="st4" d="M152.4,88.4C152.5,88.4,152.5,88.4,152.4,88.4l0,0.2c0,0,0,0,0,0c0,0-0.1,0-0.2,0c-0.1,0-0.2,0-0.3,0.1
			c-0.1,0.1-0.1,0.2-0.1,0.3v0.9c0,0,0,0,0,0h-0.1c0,0,0,0,0,0v-1.5c0,0,0,0,0,0h0.1c0,0,0,0,0,0v0.2c0,0,0,0,0,0c0,0,0,0,0,0
			c0-0.1,0.1-0.1,0.2-0.2c0.1,0,0.1-0.1,0.2-0.1C152.3,88.3,152.4,88.3,152.4,88.4z"/>
		<path class="st4" d="M153.6,89.7c0.1,0,0.1-0.1,0.2-0.2c0,0,0,0,0,0c0,0,0,0,0,0l0.1,0c0,0,0,0,0,0.1c0,0.1-0.1,0.2-0.2,0.2
			c-0.1,0.1-0.2,0.1-0.4,0.1c-0.1,0-0.3,0-0.4-0.1c-0.1-0.1-0.2-0.2-0.2-0.3c0-0.1-0.1-0.2-0.1-0.4c0-0.1,0-0.2,0-0.2
			c0-0.1,0-0.1,0-0.1c0-0.1,0.1-0.2,0.2-0.3c0.1-0.1,0.2-0.1,0.4-0.1c0.2,0,0.3,0,0.4,0.1c0.1,0.1,0.2,0.2,0.2,0.4
			c0,0.1,0,0.2,0,0.3c0,0,0,0,0,0h-1c0,0,0,0,0,0c0,0.1,0,0.2,0,0.2c0,0.1,0.1,0.2,0.1,0.2c0.1,0.1,0.2,0.1,0.3,0.1
			C153.5,89.7,153.5,89.7,153.6,89.7z M153.1,88.6c-0.1,0.1-0.1,0.1-0.1,0.2c0,0,0,0.1,0,0.2c0,0,0,0,0,0h0.8c0,0,0,0,0,0
			c0-0.1,0-0.2,0-0.2c0-0.1-0.1-0.2-0.1-0.2c-0.1-0.1-0.2-0.1-0.3-0.1C153.2,88.5,153.1,88.5,153.1,88.6z"/>
		<path class="st4" d="M155.3,89.7c0.1,0,0.1-0.1,0.2-0.2c0,0,0,0,0,0c0,0,0,0,0,0l0.1,0c0,0,0,0,0,0.1c0,0.1-0.1,0.2-0.2,0.2
			c-0.1,0.1-0.2,0.1-0.4,0.1c-0.1,0-0.3,0-0.4-0.1c-0.1-0.1-0.2-0.2-0.2-0.3c0-0.1-0.1-0.2-0.1-0.4c0-0.1,0-0.2,0-0.2
			c0-0.1,0-0.1,0-0.1c0-0.1,0.1-0.2,0.2-0.3c0.1-0.1,0.2-0.1,0.4-0.1c0.2,0,0.3,0,0.4,0.1c0.1,0.1,0.2,0.2,0.2,0.4
			c0,0.1,0,0.2,0,0.3c0,0,0,0,0,0h-1c0,0,0,0,0,0c0,0.1,0,0.2,0,0.2c0,0.1,0.1,0.2,0.1,0.2c0.1,0.1,0.2,0.1,0.3,0.1
			C155.1,89.7,155.2,89.7,155.3,89.7z M154.7,88.6c-0.1,0.1-0.1,0.1-0.1,0.2c0,0,0,0.1,0,0.2c0,0,0,0,0,0h0.8c0,0,0,0,0,0
			c0-0.1,0-0.2,0-0.2c0-0.1-0.1-0.2-0.1-0.2c-0.1-0.1-0.2-0.1-0.3-0.1C154.9,88.5,154.8,88.5,154.7,88.6z"/>
		<path class="st4" d="M157.1,88.5c0.1,0.1,0.1,0.2,0.1,0.4v1c0,0,0,0,0,0h-0.1c0,0,0,0,0,0v-1c0-0.1,0-0.2-0.1-0.3
			c-0.1-0.1-0.2-0.1-0.3-0.1c-0.1,0-0.2,0-0.3,0.1c-0.1,0.1-0.1,0.1-0.1,0.2v1c0,0,0,0,0,0h-0.1c0,0,0,0,0,0v-1.5c0,0,0,0,0,0h0.1
			c0,0,0,0,0,0v0.1c0,0,0,0,0,0c0,0,0,0,0,0c0.1-0.1,0.2-0.2,0.4-0.2C156.9,88.3,157,88.4,157.1,88.5z"/>
		<path class="st4" d="M158.4,88c0,0,0-0.1,0-0.1c0,0,0-0.1,0-0.1c0,0,0.1,0,0.1,0c0,0,0.1,0,0.1,0c0,0,0,0.1,0,0.1c0,0,0,0.1,0,0.1
			c0,0-0.1,0-0.1,0C158.5,88,158.4,88,158.4,88z M158.4,89.9v-1.5c0,0,0,0,0,0h0.1c0,0,0,0,0,0v1.5c0,0,0,0,0,0L158.4,89.9
			C158.4,89.9,158.4,89.9,158.4,89.9z"/>
		<path class="st4" d="M160.2,88.5c0.1,0.1,0.1,0.2,0.1,0.4v1c0,0,0,0,0,0h-0.1c0,0,0,0,0,0v-1c0-0.1,0-0.2-0.1-0.3
			c-0.1-0.1-0.2-0.1-0.3-0.1c-0.1,0-0.2,0-0.3,0.1c-0.1,0.1-0.1,0.1-0.1,0.2v1c0,0,0,0,0,0h-0.1c0,0,0,0,0,0v-1.5c0,0,0,0,0,0h0.1
			c0,0,0,0,0,0v0.1c0,0,0,0,0,0c0,0,0,0,0,0c0.1-0.1,0.2-0.2,0.4-0.2C160,88.3,160.1,88.4,160.2,88.5z"/>
		<path class="st4" d="M162.7,89.1c0,0.2,0,0.3,0,0.4c0,0.1-0.1,0.2-0.2,0.3c-0.1,0.1-0.2,0.1-0.4,0.1c-0.1,0-0.2,0-0.2,0
			c-0.1,0-0.1-0.1-0.2-0.1c0,0,0,0,0,0c0,0,0,0,0,0v0.1c0,0,0,0,0,0h-0.1c0,0,0,0,0,0v-2.1c0,0,0,0,0,0h0.1c0,0,0,0,0,0v0.7
			c0,0,0,0,0,0c0,0,0,0,0,0c0-0.1,0.1-0.1,0.2-0.1c0.1,0,0.1,0,0.2,0c0.1,0,0.3,0,0.4,0.1c0.1,0.1,0.2,0.2,0.2,0.3
			C162.7,88.8,162.7,88.9,162.7,89.1z M162.4,89.3c0-0.1,0-0.1,0-0.2c0-0.1,0-0.2,0-0.2c0-0.1,0-0.1-0.1-0.2c0-0.1-0.1-0.1-0.1-0.2
			c-0.1,0-0.1-0.1-0.2-0.1c-0.1,0-0.1,0-0.2,0.1c-0.1,0-0.1,0.1-0.1,0.2c0,0,0,0.1,0,0.2c0,0.1,0,0.1,0,0.2c0,0.1,0,0.2,0,0.2
			s0,0.1,0,0.1c0,0.1,0.1,0.1,0.1,0.2c0.1,0,0.1,0.1,0.2,0.1c0.1,0,0.2,0,0.2-0.1c0.1,0,0.1-0.1,0.1-0.2
			C162.4,89.5,162.4,89.4,162.4,89.3z"/>
		<path class="st4" d="M164,89.7c0.1,0,0.1-0.1,0.2-0.2c0,0,0,0,0,0c0,0,0,0,0,0l0.1,0c0,0,0,0,0,0.1c0,0.1-0.1,0.2-0.2,0.2
			c-0.1,0.1-0.2,0.1-0.4,0.1c-0.1,0-0.3,0-0.4-0.1s-0.2-0.2-0.2-0.3c0-0.1-0.1-0.2-0.1-0.4c0-0.1,0-0.2,0-0.2c0-0.1,0-0.1,0-0.1
			c0-0.1,0.1-0.2,0.2-0.3c0.1-0.1,0.2-0.1,0.4-0.1c0.2,0,0.3,0,0.4,0.1c0.1,0.1,0.2,0.2,0.2,0.4c0,0.1,0,0.2,0,0.3c0,0,0,0,0,0h-1
			c0,0,0,0,0,0c0,0.1,0,0.2,0,0.2c0,0.1,0.1,0.2,0.1,0.2c0.1,0.1,0.2,0.1,0.3,0.1C163.8,89.7,163.9,89.7,164,89.7z M163.4,88.6
			c-0.1,0.1-0.1,0.1-0.1,0.2c0,0,0,0.1,0,0.2c0,0,0,0,0,0h0.8c0,0,0,0,0,0c0-0.1,0-0.2,0-0.2c0-0.1-0.1-0.2-0.1-0.2
			c-0.1-0.1-0.2-0.1-0.3-0.1C163.6,88.5,163.5,88.5,163.4,88.6z"/>
		<path class="st4" d="M165,89.9l-0.4-1.5c0,0,0,0,0,0c0,0,0,0,0,0c0,0,0,0,0,0h0.1c0,0,0,0,0,0l0.3,1.2c0,0,0,0,0,0c0,0,0,0,0,0
			l0.3-1.2c0,0,0,0,0,0h0.1c0,0,0,0,0,0l0.3,1.2c0,0,0,0,0,0c0,0,0,0,0,0l0.3-1.2c0,0,0,0,0,0l0.1,0c0,0,0,0,0,0c0,0,0,0,0,0
			l-0.4,1.5c0,0,0,0,0,0H166c0,0,0,0,0,0l-0.3-1.1c0,0,0,0,0,0c0,0,0,0,0,0l-0.3,1.1c0,0,0,0,0,0L165,89.9
			C165.1,89.9,165,89.9,165,89.9z"/>
		<path class="st4" d="M167.8,89.7c0.1,0,0.1-0.1,0.2-0.2c0,0,0,0,0,0c0,0,0,0,0,0l0.1,0c0,0,0,0,0,0.1c0,0.1-0.1,0.2-0.2,0.2
			s-0.2,0.1-0.4,0.1c-0.1,0-0.3,0-0.4-0.1c-0.1-0.1-0.2-0.2-0.2-0.3c0-0.1-0.1-0.2-0.1-0.4c0-0.1,0-0.2,0-0.2c0-0.1,0-0.1,0-0.1
			c0-0.1,0.1-0.2,0.2-0.3c0.1-0.1,0.2-0.1,0.4-0.1c0.2,0,0.3,0,0.4,0.1c0.1,0.1,0.2,0.2,0.2,0.4c0,0.1,0,0.2,0,0.3c0,0,0,0,0,0h-1
			c0,0,0,0,0,0c0,0.1,0,0.2,0,0.2c0,0.1,0.1,0.2,0.1,0.2c0.1,0.1,0.2,0.1,0.3,0.1C167.6,89.7,167.7,89.7,167.8,89.7z M167.3,88.6
			c-0.1,0.1-0.1,0.1-0.1,0.2c0,0,0,0.1,0,0.2c0,0,0,0,0,0h0.8c0,0,0,0,0,0c0-0.1,0-0.2,0-0.2c0-0.1-0.1-0.2-0.1-0.2
			c-0.1-0.1-0.2-0.1-0.3-0.1C167.4,88.5,167.3,88.5,167.3,88.6z"/>
		<path class="st4" d="M169.6,88.3h0.1c0,0,0,0,0,0v1.5c0,0.2-0.1,0.4-0.2,0.5c-0.1,0.1-0.3,0.2-0.6,0.2c0,0-0.1,0-0.1,0
			c0,0,0,0,0,0l0-0.1c0,0,0,0,0,0c0.2,0,0.4,0,0.5-0.1c0.1-0.1,0.1-0.2,0.1-0.4v-0.1c0,0,0,0,0,0c0,0,0,0,0,0
			c-0.1,0.1-0.2,0.2-0.4,0.2c-0.1,0-0.3,0-0.4-0.1c-0.1-0.1-0.2-0.2-0.2-0.3c0-0.1,0-0.2,0-0.4c0-0.1,0-0.2,0-0.2c0-0.1,0-0.1,0-0.2
			c0-0.1,0.1-0.2,0.2-0.3c0.1-0.1,0.2-0.1,0.4-0.1c0.2,0,0.3,0.1,0.4,0.2c0,0,0,0,0,0c0,0,0,0,0,0L169.6,88.3
			C169.6,88.3,169.6,88.3,169.6,88.3z M169.6,89.3c0,0,0-0.1,0-0.2c0-0.1,0-0.2,0-0.2c0,0,0-0.1,0-0.1c0-0.1-0.1-0.2-0.1-0.2
			c-0.1-0.1-0.1-0.1-0.2-0.1c-0.1,0-0.2,0-0.2,0.1c-0.1,0.1-0.1,0.1-0.1,0.2c0,0.1,0,0.2,0,0.3c0,0.2,0,0.3,0,0.3
			c0,0.1,0.1,0.2,0.1,0.2c0.1,0.1,0.2,0.1,0.3,0.1c0.1,0,0.2,0,0.3-0.1c0.1-0.1,0.1-0.1,0.1-0.2C169.6,89.4,169.6,89.4,169.6,89.3z"
			/>
		<path class="st4" d="M170.3,88c0,0,0-0.1,0-0.1c0,0,0-0.1,0-0.1c0,0,0.1,0,0.1,0c0,0,0.1,0,0.1,0c0,0,0,0.1,0,0.1c0,0,0,0.1,0,0.1
			c0,0-0.1,0-0.1,0C170.3,88,170.3,88,170.3,88z M170.3,89.9v-1.5c0,0,0,0,0,0h0.1c0,0,0,0,0,0v1.5c0,0,0,0,0,0L170.3,89.9
			C170.3,89.9,170.3,89.9,170.3,89.9z"/>
		<path class="st4" d="M172.1,88.5c0.1,0.1,0.1,0.2,0.1,0.4v1c0,0,0,0,0,0H172c0,0,0,0,0,0v-1c0-0.1,0-0.2-0.1-0.3
			c-0.1-0.1-0.2-0.1-0.3-0.1c-0.1,0-0.2,0-0.3,0.1c-0.1,0.1-0.1,0.1-0.1,0.2v1c0,0,0,0,0,0h-0.1c0,0,0,0,0,0v-1.5c0,0,0,0,0,0h0.1
			c0,0,0,0,0,0v0.1c0,0,0,0,0,0c0,0,0,0,0,0c0.1-0.1,0.2-0.2,0.4-0.2C171.8,88.3,172,88.4,172.1,88.5z"/>
		<path class="st4" d="M173.7,88.3h0.1c0,0,0,0,0,0v1.5c0,0.2-0.1,0.4-0.2,0.5c-0.1,0.1-0.3,0.2-0.6,0.2c0,0-0.1,0-0.1,0
			c0,0,0,0,0,0l0-0.1c0,0,0,0,0,0c0.2,0,0.4,0,0.5-0.1c0.1-0.1,0.1-0.2,0.1-0.4v-0.1c0,0,0,0,0,0c0,0,0,0,0,0
			c-0.1,0.1-0.2,0.2-0.4,0.2c-0.1,0-0.3,0-0.4-0.1c-0.1-0.1-0.2-0.2-0.2-0.3c0-0.1,0-0.2,0-0.4c0-0.1,0-0.2,0-0.2c0-0.1,0-0.1,0-0.2
			c0-0.1,0.1-0.2,0.2-0.3c0.1-0.1,0.2-0.1,0.4-0.1c0.2,0,0.3,0.1,0.4,0.2c0,0,0,0,0,0c0,0,0,0,0,0L173.7,88.3
			C173.7,88.3,173.7,88.3,173.7,88.3z M173.7,89.3c0,0,0-0.1,0-0.2c0-0.1,0-0.2,0-0.2c0,0,0-0.1,0-0.1c0-0.1-0.1-0.2-0.1-0.2
			c-0.1-0.1-0.1-0.1-0.2-0.1c-0.1,0-0.2,0-0.2,0.1c-0.1,0.1-0.1,0.1-0.1,0.2c0,0.1,0,0.2,0,0.3c0,0.2,0,0.3,0,0.3
			c0,0.1,0.1,0.2,0.1,0.2c0.1,0.1,0.2,0.1,0.3,0.1c0.1,0,0.2,0,0.3-0.1c0.1-0.1,0.1-0.1,0.1-0.2C173.7,89.4,173.7,89.4,173.7,89.3z"
			/>
	</g>
</g>
<g id="Layer_7" class="st11">
	<path class="st12" d="M340,104.9l6.6-6.6L333.4,85l-6.6,6.6c-3.7,3.7-3.7,9.6,0,13.3v0C330.4,108.6,336.4,108.6,340,104.9z"/>
	<path class="st12" d="M348,97l13.3-13.3l-6.7-6.7c-3.6-3.6-9.5-3.6-13.1,0l-6.7,6.7L348,97z"/>
	<path class="st13" d="M369.2,104.9l6.6-6.6L362.6,85l-13.3,13.3l6.6,6.6C359.6,108.6,365.6,108.6,369.2,104.9z"/>
	<path class="st13" d="M377.2,97l13.3-13.3l-6.6-6.6c-3.7-3.7-9.6-3.7-13.3,0l-6.6,6.6L377.2,97z"/>
	<path class="st12" d="M398.4,104.9L398.4,104.9c3.7-3.7,3.7-9.6,0-13.3l-6.6-6.6l-13.3,13.3l6.6,6.6
		C388.8,108.6,394.8,108.6,398.4,104.9z"/>
	<path class="st14" d="M339.2,117.5c0.8,0.8,1.1,2,1.1,3.4v6.1c0,0.3-0.1,0.6-0.3,0.8c-0.2,0.2-0.5,0.3-0.8,0.3
		c-0.3,0-0.6-0.1-0.8-0.3c-0.2-0.2-0.3-0.5-0.3-0.8v-6.1c0-0.9-0.2-1.5-0.7-2c-0.4-0.5-1-0.7-1.7-0.7c-0.7,0-1.4,0.3-1.8,0.8
		c-0.5,0.5-0.7,1.2-0.7,2v6c0,0.3-0.1,0.6-0.3,0.8c-0.2,0.2-0.5,0.3-0.8,0.3c-0.3,0-0.6-0.1-0.8-0.3c-0.2-0.2-0.3-0.5-0.3-0.8v-6.1
		c0-0.9-0.2-1.5-0.7-2c-0.4-0.5-1-0.7-1.7-0.7c-0.8,0-1.4,0.3-1.9,0.8c-0.5,0.5-0.7,1.2-0.7,2v6c0,0.3-0.1,0.6-0.3,0.8
		c-0.2,0.2-0.5,0.3-0.8,0.3c-0.3,0-0.6-0.1-0.8-0.3c-0.2-0.2-0.3-0.5-0.3-0.8v-9.5c0-0.3,0.1-0.6,0.3-0.8c0.2-0.2,0.5-0.3,0.8-0.3
		c0.3,0,0.6,0.1,0.8,0.3c0.2,0.2,0.3,0.4,0.3,0.8c0.4-0.4,0.8-0.7,1.3-0.9c0.5-0.2,1.1-0.3,1.7-0.3c0.7,0,1.4,0.1,2,0.4
		c0.6,0.3,1.1,0.7,1.4,1.3c0.4-0.5,1-0.9,1.6-1.2c0.6-0.3,1.4-0.5,2.1-0.5C337.4,116.2,338.4,116.6,339.2,117.5z"/>
	<path class="st14" d="M345.2,127.6c-0.9-0.5-1.6-1.2-2.1-2.1c-0.5-0.9-0.8-1.9-0.8-3.1c0-1.2,0.2-2.2,0.8-3.1
		c0.5-0.9,1.2-1.6,2.1-2.1c0.9-0.5,1.9-0.8,3.1-0.8c1.1,0,2.1,0.3,3,0.8c0.9,0.5,1.6,1.2,2.1,2.1c0.5,0.9,0.8,1.9,0.8,3.1
		c0,1.1-0.3,2.2-0.8,3.1c-0.5,0.9-1.2,1.6-2.1,2.1c-0.9,0.5-1.9,0.8-3.1,0.8C347.2,128.3,346.1,128.1,345.2,127.6z M350.3,125.9
		c0.6-0.3,1-0.8,1.4-1.4c0.3-0.6,0.5-1.3,0.5-2.1c0-0.8-0.2-1.5-0.5-2.1c-0.3-0.6-0.8-1.1-1.4-1.4c-0.6-0.3-1.2-0.5-2-0.5
		s-1.4,0.2-2,0.5c-0.6,0.3-1,0.8-1.4,1.4c-0.3,0.6-0.5,1.3-0.5,2.1c0,0.8,0.2,1.5,0.5,2.1c0.3,0.6,0.8,1.1,1.4,1.4
		c0.6,0.3,1.2,0.5,2,0.5S349.7,126.2,350.3,125.9z"/>
	<path class="st14" d="M366.4,116.9c0.1,0.2,0.2,0.3,0.2,0.5c0,0.1,0,0.3-0.1,0.4l-4.6,9.8c-0.2,0.5-0.6,0.7-1,0.7
		c-0.2,0-0.5-0.1-0.6-0.2c-0.2-0.1-0.3-0.3-0.4-0.6l-4.6-9.8c-0.1-0.1-0.1-0.2-0.1-0.4c0-0.4,0.2-0.7,0.6-0.9
		c0.1-0.1,0.3-0.1,0.5-0.1s0.3,0,0.5,0.1c0.2,0.1,0.3,0.2,0.4,0.4l3.8,8.2l3.8-8.2c0.1-0.2,0.2-0.3,0.4-0.4c0.2-0.1,0.3-0.1,0.5-0.1
		c0.2,0,0.4,0,0.5,0.1C366.1,116.6,366.3,116.7,366.4,116.9z"/>
	<path class="st14" d="M378.2,122.9c-0.2,0.2-0.4,0.3-0.7,0.3h-8.1c0.2,1,0.6,1.8,1.4,2.4c0.8,0.6,1.7,0.9,2.8,0.9
		c0.4,0,0.9-0.1,1.3-0.2c0.5-0.2,0.8-0.3,1.1-0.6c0.2-0.2,0.4-0.2,0.7-0.2c0.3,0,0.5,0.1,0.6,0.2c0.3,0.2,0.4,0.5,0.4,0.7
		c0,0.3-0.1,0.5-0.3,0.6c-0.5,0.4-1.1,0.7-1.8,0.9c-0.7,0.2-1.4,0.4-2.1,0.4c-1.2,0-2.2-0.3-3.2-0.8c-0.9-0.5-1.7-1.2-2.2-2.1
		c-0.5-0.9-0.8-1.9-0.8-3.1c0-1.1,0.2-2.2,0.7-3.1c0.5-0.9,1.2-1.6,2.1-2.1c0.9-0.5,1.9-0.8,3-0.8c1.1,0,2.1,0.2,2.9,0.7
		c0.8,0.5,1.4,1.2,1.8,2c0.4,0.9,0.6,1.9,0.6,3C378.5,122.5,378.4,122.7,378.2,122.9z M370.6,119.1c-0.7,0.6-1.1,1.3-1.2,2.3h7.1
		c-0.1-1-0.5-1.7-1.1-2.3c-0.6-0.6-1.4-0.9-2.3-0.9C372.1,118.3,371.3,118.6,370.6,119.1z"/>
	<path class="st14" d="M381.3,122.9c-0.2-0.2-0.3-0.5-0.3-0.8c0-0.3,0.1-0.6,0.3-0.8c0.2-0.2,0.4-0.3,0.7-0.3h4
		c0.3,0,0.5,0.1,0.7,0.3c0.2,0.2,0.3,0.5,0.3,0.8c0,0.3-0.1,0.6-0.3,0.8c-0.2,0.2-0.4,0.3-0.7,0.3h-4
		C381.7,123.2,381.4,123.1,381.3,122.9z"/>
	<path class="st14" d="M400.8,111.8c0.2,0.2,0.3,0.5,0.3,0.8v9.8c0,1.1-0.3,2.1-0.8,3c-0.5,0.9-1.2,1.6-2.1,2.1
		c-0.9,0.5-1.9,0.8-3,0.8c-1.1,0-2.1-0.3-3-0.8c-0.9-0.5-1.6-1.2-2.1-2.1c-0.5-0.9-0.8-1.9-0.8-3s0.2-2.1,0.7-3
		c0.5-0.9,1.1-1.6,2-2.1c0.8-0.5,1.8-0.8,2.8-0.8c0.8,0,1.6,0.2,2.3,0.5c0.7,0.3,1.3,0.8,1.8,1.4v-5.8c0-0.3,0.1-0.6,0.3-0.8
		c0.2-0.2,0.5-0.3,0.8-0.3C400.3,111.5,400.6,111.6,400.8,111.8z M397.1,125.9c0.6-0.3,1-0.8,1.4-1.4c0.3-0.6,0.5-1.3,0.5-2.1
		c0-0.8-0.2-1.4-0.5-2c-0.3-0.6-0.8-1.1-1.4-1.4c-0.6-0.4-1.2-0.5-1.9-0.5c-0.7,0-1.4,0.2-1.9,0.5c-0.6,0.4-1,0.8-1.4,1.4
		c-0.3,0.6-0.5,1.3-0.5,2c0,0.8,0.2,1.4,0.5,2.1c0.3,0.6,0.8,1.1,1.4,1.4c0.6,0.4,1.2,0.5,1.9,0.5
		C395.9,126.4,396.5,126.2,397.1,125.9z"/>
	<path class="st14" d="M339.2,117.5c0.8,0.8,1.1,2,1.1,3.4v6.1c0,0.3-0.1,0.6-0.3,0.8c-0.2,0.2-0.5,0.3-0.8,0.3
		c-0.3,0-0.6-0.1-0.8-0.3c-0.2-0.2-0.3-0.5-0.3-0.8v-6.1c0-0.9-0.2-1.5-0.7-2c-0.4-0.5-1-0.7-1.7-0.7c-0.7,0-1.4,0.3-1.8,0.8
		c-0.5,0.5-0.7,1.2-0.7,2v6c0,0.3-0.1,0.6-0.3,0.8c-0.2,0.2-0.5,0.3-0.8,0.3c-0.3,0-0.6-0.1-0.8-0.3c-0.2-0.2-0.3-0.5-0.3-0.8v-6.1
		c0-0.9-0.2-1.5-0.7-2c-0.4-0.5-1-0.7-1.7-0.7c-0.8,0-1.4,0.3-1.9,0.8c-0.5,0.5-0.7,1.2-0.7,2v6c0,0.3-0.1,0.6-0.3,0.8
		c-0.2,0.2-0.5,0.3-0.8,0.3c-0.3,0-0.6-0.1-0.8-0.3c-0.2-0.2-0.3-0.5-0.3-0.8v-9.5c0-0.3,0.1-0.6,0.3-0.8c0.2-0.2,0.5-0.3,0.8-0.3
		c0.3,0,0.6,0.1,0.8,0.3c0.2,0.2,0.3,0.4,0.3,0.8c0.4-0.4,0.8-0.7,1.3-0.9c0.5-0.2,1.1-0.3,1.7-0.3c0.7,0,1.4,0.1,2,0.4
		c0.6,0.3,1.1,0.7,1.4,1.3c0.4-0.5,1-0.9,1.6-1.2c0.6-0.3,1.4-0.5,2.1-0.5C337.4,116.2,338.4,116.6,339.2,117.5z"/>
	<path class="st14" d="M345.2,127.6c-0.9-0.5-1.6-1.2-2.1-2.1c-0.5-0.9-0.8-1.9-0.8-3.1c0-1.2,0.2-2.2,0.8-3.1
		c0.5-0.9,1.2-1.6,2.1-2.1c0.9-0.5,1.9-0.8,3.1-0.8c1.1,0,2.1,0.3,3,0.8c0.9,0.5,1.6,1.2,2.1,2.1c0.5,0.9,0.8,1.9,0.8,3.1
		c0,1.1-0.3,2.2-0.8,3.1c-0.5,0.9-1.2,1.6-2.1,2.1c-0.9,0.5-1.9,0.8-3.1,0.8C347.2,128.3,346.1,128.1,345.2,127.6z M350.3,125.9
		c0.6-0.3,1-0.8,1.4-1.4c0.3-0.6,0.5-1.3,0.5-2.1c0-0.8-0.2-1.5-0.5-2.1c-0.3-0.6-0.8-1.1-1.4-1.4c-0.6-0.3-1.2-0.5-2-0.5
		s-1.4,0.2-2,0.5c-0.6,0.3-1,0.8-1.4,1.4c-0.3,0.6-0.5,1.3-0.5,2.1c0,0.8,0.2,1.5,0.5,2.1c0.3,0.6,0.8,1.1,1.4,1.4
		c0.6,0.3,1.2,0.5,2,0.5S349.7,126.2,350.3,125.9z"/>
	<path class="st14" d="M366.4,116.9c0.1,0.2,0.2,0.3,0.2,0.5c0,0.1,0,0.3-0.1,0.4l-4.6,9.8c-0.2,0.5-0.6,0.7-1,0.7
		c-0.2,0-0.5-0.1-0.6-0.2c-0.2-0.1-0.3-0.3-0.4-0.6l-4.6-9.8c-0.1-0.1-0.1-0.2-0.1-0.4c0-0.4,0.2-0.7,0.6-0.9
		c0.1-0.1,0.3-0.1,0.5-0.1s0.3,0,0.5,0.1c0.2,0.1,0.3,0.2,0.4,0.4l3.8,8.2l3.8-8.2c0.1-0.2,0.2-0.3,0.4-0.4c0.2-0.1,0.3-0.1,0.5-0.1
		c0.2,0,0.4,0,0.5,0.1C366.1,116.6,366.3,116.7,366.4,116.9z"/>
	<path class="st14" d="M378.2,122.9c-0.2,0.2-0.4,0.3-0.7,0.3h-8.1c0.2,1,0.6,1.8,1.4,2.4c0.8,0.6,1.7,0.9,2.8,0.9
		c0.4,0,0.9-0.1,1.3-0.2c0.5-0.2,0.8-0.3,1.1-0.6c0.2-0.2,0.4-0.2,0.7-0.2c0.3,0,0.5,0.1,0.6,0.2c0.3,0.2,0.4,0.5,0.4,0.7
		c0,0.3-0.1,0.5-0.3,0.6c-0.5,0.4-1.1,0.7-1.8,0.9c-0.7,0.2-1.4,0.4-2.1,0.4c-1.2,0-2.2-0.3-3.2-0.8c-0.9-0.5-1.7-1.2-2.2-2.1
		c-0.5-0.9-0.8-1.9-0.8-3.1c0-1.1,0.2-2.2,0.7-3.1c0.5-0.9,1.2-1.6,2.1-2.1c0.9-0.5,1.9-0.8,3-0.8c1.1,0,2.1,0.2,2.9,0.7
		c0.8,0.5,1.4,1.2,1.8,2c0.4,0.9,0.6,1.9,0.6,3C378.5,122.5,378.4,122.7,378.2,122.9z M370.6,119.1c-0.7,0.6-1.1,1.3-1.2,2.3h7.1
		c-0.1-1-0.5-1.7-1.1-2.3c-0.6-0.6-1.4-0.9-2.3-0.9C372.1,118.3,371.3,118.6,370.6,119.1z"/>
	<path class="st14" d="M381.3,122.9c-0.2-0.2-0.3-0.5-0.3-0.8c0-0.3,0.1-0.6,0.3-0.8c0.2-0.2,0.4-0.3,0.7-0.3h4
		c0.3,0,0.5,0.1,0.7,0.3c0.2,0.2,0.3,0.5,0.3,0.8c0,0.3-0.1,0.6-0.3,0.8c-0.2,0.2-0.4,0.3-0.7,0.3h-4
		C381.7,123.2,381.4,123.1,381.3,122.9z"/>
	<path class="st14" d="M400.8,111.8c0.2,0.2,0.3,0.5,0.3,0.8v9.8c0,1.1-0.3,2.1-0.8,3c-0.5,0.9-1.2,1.6-2.1,2.1
		c-0.9,0.5-1.9,0.8-3,0.8c-1.1,0-2.1-0.3-3-0.8c-0.9-0.5-1.6-1.2-2.1-2.1c-0.5-0.9-0.8-1.9-0.8-3s0.2-2.1,0.7-3
		c0.5-0.9,1.1-1.6,2-2.1c0.8-0.5,1.8-0.8,2.8-0.8c0.8,0,1.6,0.2,2.3,0.5c0.7,0.3,1.3,0.8,1.8,1.4v-5.8c0-0.3,0.1-0.6,0.3-0.8
		c0.2-0.2,0.5-0.3,0.8-0.3C400.3,111.5,400.6,111.6,400.8,111.8z M397.1,125.9c0.6-0.3,1-0.8,1.4-1.4c0.3-0.6,0.5-1.3,0.5-2.1
		c0-0.8-0.2-1.4-0.5-2c-0.3-0.6-0.8-1.1-1.4-1.4c-0.6-0.4-1.2-0.5-1.9-0.5c-0.7,0-1.4,0.2-1.9,0.5c-0.6,0.4-1,0.8-1.4,1.4
		c-0.3,0.6-0.5,1.3-0.5,2c0,0.8,0.2,1.4,0.5,2.1c0.3,0.6,0.8,1.1,1.4,1.4c0.6,0.4,1.2,0.5,1.9,0.5
		C395.9,126.4,396.5,126.2,397.1,125.9z"/>
	<g class="st15">
		<path class="st4" d="M324.1,132.3c-0.1-0.1-0.1-0.2-0.1-0.3c0-0.1,0-0.2,0.1-0.3c0.1-0.1,0.2-0.1,0.3-0.1s0.2,0,0.3,0.1
			c0.1,0.1,0.1,0.2,0.1,0.3c0,0.1,0,0.2-0.1,0.3c-0.1,0.1-0.2,0.1-0.3,0.1S324.2,132.4,324.1,132.3z M324.2,137.4v-4.1
			c0-0.1,0-0.1,0.1-0.1h0.4c0.1,0,0.1,0,0.1,0.1v4.1c0,0.1,0,0.1-0.1,0.1h-0.4C324.2,137.6,324.2,137.5,324.2,137.4z"/>
		<path class="st4" d="M328.5,136.9c0.2-0.1,0.3-0.3,0.4-0.5c0,0,0,0,0.1-0.1c0,0,0.1,0,0.1,0l0.2,0.1c0.1,0,0.1,0.1,0.1,0.1
			c-0.1,0.3-0.3,0.5-0.6,0.7s-0.6,0.3-1,0.3c-0.4,0-0.7-0.1-1-0.3c-0.3-0.2-0.5-0.5-0.6-0.8c-0.1-0.3-0.2-0.7-0.2-1.2
			c0-0.2,0-0.4,0-0.6c0-0.1,0-0.3,0.1-0.4c0.1-0.4,0.3-0.7,0.6-0.9c0.3-0.2,0.6-0.3,1.1-0.3c0.5,0,0.9,0.1,1.2,0.4
			c0.3,0.3,0.5,0.6,0.5,1.1c0,0.2,0.1,0.5,0.1,0.9c0,0.1,0,0.1-0.1,0.1h-2.7c0,0,0,0,0,0c0,0.3,0,0.5,0.1,0.6
			c0.1,0.3,0.2,0.5,0.4,0.6c0.2,0.2,0.5,0.2,0.8,0.2C328.1,137.1,328.3,137,328.5,136.9z M327.1,133.9c-0.2,0.1-0.3,0.3-0.4,0.6
			c0,0.1-0.1,0.3-0.1,0.6c0,0,0,0,0,0h2.2c0,0,0,0,0,0c0-0.3,0-0.4-0.1-0.5c-0.1-0.3-0.2-0.5-0.4-0.6c-0.2-0.2-0.4-0.2-0.7-0.2
			C327.5,133.7,327.3,133.8,327.1,133.9z"/>
		<path class="st4" d="M333.5,131.6h0.4c0.1,0,0.1,0,0.1,0.1v5.8c0,0.1,0,0.1-0.1,0.1h-0.4c-0.1,0-0.1,0-0.1-0.1v-0.3c0,0,0,0,0,0
			c0,0,0,0,0,0c-0.1,0.2-0.3,0.3-0.5,0.4c-0.2,0.1-0.4,0.1-0.6,0.1c-0.4,0-0.7-0.1-1-0.3c-0.3-0.2-0.5-0.5-0.6-0.8
			c-0.1-0.3-0.1-0.6-0.1-1.1c0-0.5,0-0.8,0.1-1.1c0.1-0.4,0.3-0.7,0.6-0.9c0.3-0.2,0.6-0.3,1-0.3c0.2,0,0.4,0,0.6,0.1
			c0.2,0.1,0.3,0.2,0.5,0.4c0,0,0,0,0,0c0,0,0,0,0,0v-2C333.4,131.6,333.4,131.6,333.5,131.6z M333.4,136c0-0.2,0-0.4,0-0.6
			s0-0.5,0-0.6c0-0.2-0.1-0.3-0.1-0.4c-0.1-0.2-0.2-0.3-0.3-0.5c-0.2-0.1-0.3-0.2-0.6-0.2c-0.2,0-0.4,0.1-0.6,0.2
			c-0.2,0.1-0.3,0.3-0.4,0.5c-0.1,0.1-0.1,0.3-0.1,0.4c0,0.2,0,0.4,0,0.7c0,0.3,0,0.5,0,0.6c0,0.2,0.1,0.3,0.1,0.4
			c0.1,0.2,0.2,0.4,0.4,0.5c0.2,0.1,0.4,0.2,0.6,0.2c0.2,0,0.4-0.1,0.6-0.2c0.2-0.1,0.3-0.3,0.3-0.5
			C333.3,136.3,333.3,136.2,333.4,136z"/>
		<path class="st4" d="M337.7,136.9c0.2-0.1,0.3-0.3,0.4-0.5c0,0,0,0,0.1-0.1c0,0,0.1,0,0.1,0l0.2,0.1c0.1,0,0.1,0.1,0.1,0.1
			c-0.1,0.3-0.3,0.5-0.6,0.7s-0.6,0.3-1,0.3c-0.4,0-0.7-0.1-1-0.3s-0.5-0.5-0.6-0.8c-0.1-0.3-0.2-0.7-0.2-1.2c0-0.2,0-0.4,0-0.6
			c0-0.1,0-0.3,0.1-0.4c0.1-0.4,0.3-0.7,0.6-0.9c0.3-0.2,0.6-0.3,1.1-0.3c0.5,0,0.9,0.1,1.2,0.4c0.3,0.3,0.5,0.6,0.5,1.1
			c0,0.2,0.1,0.5,0.1,0.9c0,0.1,0,0.1-0.1,0.1h-2.7c0,0,0,0,0,0c0,0.3,0,0.5,0.1,0.6c0.1,0.3,0.2,0.5,0.4,0.6
			c0.2,0.2,0.5,0.2,0.8,0.2C337.3,137.1,337.5,137,337.7,136.9z M336.3,133.9c-0.2,0.1-0.3,0.3-0.4,0.6c0,0.1-0.1,0.3-0.1,0.6
			c0,0,0,0,0,0h2.2c0,0,0,0,0,0c0-0.3,0-0.4-0.1-0.5c-0.1-0.3-0.2-0.5-0.4-0.6c-0.2-0.2-0.4-0.2-0.7-0.2
			C336.7,133.7,336.5,133.8,336.3,133.9z"/>
		<path class="st4" d="M342.2,133.3c0.1,0,0.1,0.1,0.1,0.1l-0.1,0.4c0,0.1-0.1,0.1-0.1,0.1c-0.1,0-0.2,0-0.4,0
			c-0.3,0-0.5,0.1-0.7,0.3c-0.2,0.2-0.3,0.5-0.3,0.8v2.5c0,0.1,0,0.1-0.1,0.1h-0.4c-0.1,0-0.1,0-0.1-0.1v-4.1c0-0.1,0-0.1,0.1-0.1
			h0.4c0.1,0,0.1,0,0.1,0.1v0.5c0,0,0,0,0,0c0,0,0,0,0,0c0.1-0.2,0.3-0.4,0.5-0.5c0.2-0.1,0.4-0.2,0.6-0.2
			C341.9,133.2,342,133.2,342.2,133.3z"/>
		<path class="st4" d="M345.4,136.9c0.2-0.1,0.3-0.3,0.4-0.5c0,0,0,0,0.1-0.1c0,0,0.1,0,0.1,0l0.2,0.1c0.1,0,0.1,0.1,0.1,0.1
			c-0.1,0.3-0.3,0.5-0.6,0.7s-0.6,0.3-1,0.3c-0.4,0-0.7-0.1-1-0.3s-0.5-0.5-0.6-0.8c-0.1-0.3-0.2-0.7-0.2-1.2c0-0.2,0-0.4,0-0.6
			c0-0.1,0-0.3,0.1-0.4c0.1-0.4,0.3-0.7,0.6-0.9c0.3-0.2,0.6-0.3,1.1-0.3c0.5,0,0.9,0.1,1.2,0.4c0.3,0.3,0.5,0.6,0.5,1.1
			c0,0.2,0.1,0.5,0.1,0.9c0,0.1,0,0.1-0.1,0.1h-2.7c0,0,0,0,0,0c0,0.3,0,0.5,0.1,0.6c0.1,0.3,0.2,0.5,0.4,0.6
			c0.2,0.2,0.5,0.2,0.8,0.2C345,137.1,345.2,137,345.4,136.9z M343.9,133.9c-0.2,0.1-0.3,0.3-0.4,0.6c0,0.1-0.1,0.3-0.1,0.6
			c0,0,0,0,0,0h2.2c0,0,0,0,0,0c0-0.3,0-0.4-0.1-0.5c-0.1-0.3-0.2-0.5-0.4-0.6c-0.2-0.2-0.4-0.2-0.7-0.2
			C344.3,133.7,344.1,133.8,343.9,133.9z"/>
		<path class="st4" d="M349.9,136.9c0.2-0.1,0.3-0.3,0.4-0.5c0,0,0,0,0.1-0.1c0,0,0.1,0,0.1,0l0.2,0.1c0.1,0,0.1,0.1,0.1,0.1
			c-0.1,0.3-0.3,0.5-0.6,0.7s-0.6,0.3-1,0.3c-0.4,0-0.7-0.1-1-0.3s-0.5-0.5-0.6-0.8c-0.1-0.3-0.2-0.7-0.2-1.2c0-0.2,0-0.4,0-0.6
			c0-0.1,0-0.3,0.1-0.4c0.1-0.4,0.3-0.7,0.6-0.9c0.3-0.2,0.6-0.3,1.1-0.3c0.5,0,0.9,0.1,1.2,0.4c0.3,0.3,0.5,0.6,0.5,1.1
			c0,0.2,0.1,0.5,0.1,0.9c0,0.1,0,0.1-0.1,0.1h-2.7c0,0,0,0,0,0c0,0.3,0,0.5,0.1,0.6c0.1,0.3,0.2,0.5,0.4,0.6
			c0.2,0.2,0.5,0.2,0.8,0.2C349.5,137.1,349.7,137,349.9,136.9z M348.5,133.9c-0.2,0.1-0.3,0.3-0.4,0.6c0,0.1-0.1,0.3-0.1,0.6
			c0,0,0,0,0,0h2.2c0,0,0,0,0,0c0-0.3,0-0.4-0.1-0.5c-0.1-0.3-0.2-0.5-0.4-0.6c-0.2-0.2-0.4-0.2-0.7-0.2
			C348.9,133.7,348.7,133.8,348.5,133.9z"/>
		<path class="st4" d="M355,133.6c0.3,0.3,0.4,0.6,0.4,1.1v2.8c0,0.1,0,0.1-0.1,0.1h-0.4c-0.1,0-0.1,0-0.1-0.1v-2.7
			c0-0.3-0.1-0.6-0.3-0.8c-0.2-0.2-0.4-0.3-0.7-0.3c-0.3,0-0.5,0.1-0.7,0.2c-0.2,0.2-0.3,0.4-0.3,0.6v2.8c0,0.1,0,0.1-0.1,0.1h-0.4
			c-0.1,0-0.1,0-0.1-0.1v-4.1c0-0.1,0-0.1,0.1-0.1h0.4c0.1,0,0.1,0,0.1,0.1v0.3c0,0,0,0,0,0c0,0,0,0,0,0c0.3-0.3,0.6-0.5,1.1-0.5
			C354.4,133.2,354.7,133.3,355,133.6z"/>
		<path class="st4" d="M358.5,132.3c-0.1-0.1-0.1-0.2-0.1-0.3c0-0.1,0-0.2,0.1-0.3c0.1-0.1,0.2-0.1,0.3-0.1s0.2,0,0.3,0.1
			c0.1,0.1,0.1,0.2,0.1,0.3c0,0.1,0,0.2-0.1,0.3c-0.1,0.1-0.2,0.1-0.3,0.1S358.6,132.4,358.5,132.3z M358.5,137.4v-4.1
			c0-0.1,0-0.1,0.1-0.1h0.4c0.1,0,0.1,0,0.1,0.1v4.1c0,0.1,0,0.1-0.1,0.1h-0.4C358.6,137.6,358.5,137.5,358.5,137.4z"/>
		<path class="st4" d="M363.4,133.6c0.3,0.3,0.4,0.6,0.4,1.1v2.8c0,0.1,0,0.1-0.1,0.1h-0.4c-0.1,0-0.1,0-0.1-0.1v-2.7
			c0-0.3-0.1-0.6-0.3-0.8c-0.2-0.2-0.4-0.3-0.7-0.3c-0.3,0-0.5,0.1-0.7,0.2c-0.2,0.2-0.3,0.4-0.3,0.6v2.8c0,0.1,0,0.1-0.1,0.1h-0.4
			c-0.1,0-0.1,0-0.1-0.1v-4.1c0-0.1,0-0.1,0.1-0.1h0.4c0.1,0,0.1,0,0.1,0.1v0.3c0,0,0,0,0,0c0,0,0,0,0,0c0.3-0.3,0.6-0.5,1.1-0.5
			C362.8,133.2,363.2,133.3,363.4,133.6z"/>
		<path class="st4" d="M370.3,135.4c0,0.5,0,0.8-0.1,1.1c-0.1,0.4-0.3,0.6-0.6,0.8c-0.3,0.2-0.6,0.3-1,0.3c-0.2,0-0.4,0-0.6-0.1
			c-0.2-0.1-0.3-0.2-0.5-0.4c0,0,0,0,0,0c0,0,0,0,0,0v0.3c0,0.1,0,0.1-0.1,0.1H367c-0.1,0-0.1,0-0.1-0.1v-5.8c0-0.1,0-0.1,0.1-0.1
			h0.4c0.1,0,0.1,0,0.1,0.1v2c0,0,0,0,0,0c0,0,0,0,0,0c0.1-0.2,0.3-0.3,0.5-0.4c0.2-0.1,0.4-0.1,0.6-0.1c0.4,0,0.7,0.1,1,0.3
			c0.3,0.2,0.5,0.5,0.6,0.9C370.3,134.6,370.3,134.9,370.3,135.4z M369.7,136c0-0.2,0-0.4,0-0.6c0-0.3,0-0.5,0-0.7
			c0-0.2-0.1-0.3-0.1-0.4c-0.1-0.2-0.2-0.3-0.4-0.5c-0.2-0.1-0.4-0.2-0.6-0.2c-0.2,0-0.4,0.1-0.6,0.2c-0.2,0.1-0.3,0.3-0.3,0.5
			c-0.1,0.1-0.1,0.3-0.1,0.4c0,0.2,0,0.4,0,0.6s0,0.5,0,0.6s0.1,0.3,0.1,0.4c0.1,0.2,0.2,0.4,0.3,0.5c0.2,0.1,0.3,0.2,0.6,0.2
			c0.2,0,0.4-0.1,0.6-0.2c0.2-0.1,0.3-0.3,0.4-0.5C369.6,136.3,369.6,136.2,369.7,136z"/>
		<path class="st4" d="M373.9,136.9c0.2-0.1,0.3-0.3,0.4-0.5c0,0,0,0,0.1-0.1c0,0,0.1,0,0.1,0l0.2,0.1c0.1,0,0.1,0.1,0.1,0.1
			c-0.1,0.3-0.3,0.5-0.6,0.7c-0.3,0.2-0.6,0.3-1,0.3c-0.4,0-0.7-0.1-1-0.3s-0.5-0.5-0.6-0.8c-0.1-0.3-0.2-0.7-0.2-1.2
			c0-0.2,0-0.4,0-0.6c0-0.1,0-0.3,0.1-0.4c0.1-0.4,0.3-0.7,0.6-0.9c0.3-0.2,0.6-0.3,1.1-0.3c0.5,0,0.9,0.1,1.2,0.4
			c0.3,0.3,0.5,0.6,0.5,1.1c0,0.2,0.1,0.5,0.1,0.9c0,0.1,0,0.1-0.1,0.1H372c0,0,0,0,0,0c0,0.3,0,0.5,0.1,0.6
			c0.1,0.3,0.2,0.5,0.4,0.6c0.2,0.2,0.5,0.2,0.8,0.2C373.4,137.1,373.7,137,373.9,136.9z M372.4,133.9c-0.2,0.1-0.3,0.3-0.4,0.6
			c0,0.1-0.1,0.3-0.1,0.6c0,0,0,0,0,0h2.2c0,0,0,0,0,0c0-0.3,0-0.4-0.1-0.5c-0.1-0.3-0.2-0.5-0.4-0.6c-0.2-0.2-0.4-0.2-0.7-0.2
			C372.8,133.7,372.6,133.8,372.4,133.9z"/>
		<path class="st4" d="M376.8,137.5l-1.2-4.1c0,0,0,0,0,0c0,0,0,0,0-0.1c0,0,0,0,0.1,0h0.4c0.1,0,0.1,0,0.1,0.1l0.9,3.3c0,0,0,0,0,0
			c0,0,0,0,0,0l0.9-3.3c0-0.1,0.1-0.1,0.1-0.1h0.4c0.1,0,0.1,0,0.1,0.1l0.9,3.3c0,0,0,0,0,0c0,0,0,0,0,0l0.9-3.3
			c0-0.1,0.1-0.1,0.1-0.1l0.4,0c0,0,0.1,0,0.1,0c0,0,0,0.1,0,0.1l-1.2,4.1c0,0.1-0.1,0.1-0.1,0.1h-0.4c-0.1,0-0.1,0-0.1-0.1
			l-0.9-3.2c0,0,0,0,0,0c0,0,0,0,0,0l-0.9,3.2c0,0.1-0.1,0.1-0.1,0.1h-0.4C376.8,137.6,376.8,137.5,376.8,137.5z"/>
		<path class="st4" d="M384.3,136.9c0.2-0.1,0.3-0.3,0.4-0.5c0,0,0,0,0.1-0.1c0,0,0.1,0,0.1,0l0.2,0.1c0.1,0,0.1,0.1,0.1,0.1
			c-0.1,0.3-0.3,0.5-0.6,0.7c-0.3,0.2-0.6,0.3-1,0.3c-0.4,0-0.7-0.1-1-0.3s-0.5-0.5-0.6-0.8c-0.1-0.3-0.2-0.7-0.2-1.2
			c0-0.2,0-0.4,0-0.6c0-0.1,0-0.3,0.1-0.4c0.1-0.4,0.3-0.7,0.6-0.9c0.3-0.2,0.6-0.3,1.1-0.3c0.5,0,0.9,0.1,1.2,0.4
			c0.3,0.3,0.5,0.6,0.5,1.1c0,0.2,0.1,0.5,0.1,0.9c0,0.1,0,0.1-0.1,0.1h-2.7c0,0,0,0,0,0c0,0.3,0,0.5,0.1,0.6
			c0.1,0.3,0.2,0.5,0.4,0.6c0.2,0.2,0.5,0.2,0.8,0.2C383.9,137.1,384.1,137,384.3,136.9z M382.9,133.9c-0.2,0.1-0.3,0.3-0.4,0.6
			c0,0.1-0.1,0.3-0.1,0.6c0,0,0,0,0,0h2.2c0,0,0,0,0,0c0-0.3,0-0.4-0.1-0.5c-0.1-0.3-0.2-0.5-0.4-0.6c-0.2-0.2-0.4-0.2-0.7-0.2
			C383.3,133.7,383.1,133.8,382.9,133.9z"/>
		<path class="st4" d="M389.3,133.2h0.4c0.1,0,0.1,0,0.1,0.1v4.1c0,0.6-0.2,1.1-0.6,1.4c-0.4,0.3-0.9,0.4-1.5,0.4
			c-0.1,0-0.2,0-0.3,0c-0.1,0-0.1,0-0.1-0.1l0-0.3c0-0.1,0-0.1,0.1-0.1c0.6,0,1-0.1,1.3-0.3c0.3-0.2,0.4-0.5,0.4-1v-0.3c0,0,0,0,0,0
			c0,0,0,0,0,0c-0.3,0.3-0.6,0.5-1.1,0.5c-0.4,0-0.7-0.1-1-0.3c-0.3-0.2-0.5-0.5-0.6-0.8c-0.1-0.2-0.1-0.6-0.1-1c0-0.3,0-0.5,0-0.6
			c0-0.2,0-0.3,0.1-0.5c0.1-0.3,0.3-0.6,0.6-0.8c0.3-0.2,0.6-0.3,1-0.3c0.5,0,0.9,0.2,1.1,0.5c0,0,0,0,0,0c0,0,0,0,0,0v-0.3
			C389.2,133.3,389.2,133.2,389.3,133.2z M389.2,135.9c0-0.1,0-0.3,0-0.5c0-0.3,0-0.5,0-0.6c0-0.1,0-0.2,0-0.3
			c0-0.2-0.2-0.4-0.3-0.6c-0.2-0.2-0.4-0.2-0.7-0.2c-0.3,0-0.5,0.1-0.7,0.2c-0.2,0.2-0.3,0.4-0.4,0.6c-0.1,0.2-0.1,0.5-0.1,0.9
			c0,0.4,0,0.7,0.1,0.9c0.1,0.2,0.2,0.4,0.4,0.6c0.2,0.2,0.4,0.2,0.7,0.2c0.3,0,0.5-0.1,0.7-0.2c0.2-0.2,0.3-0.4,0.3-0.6
			C389.2,136.2,389.2,136.1,389.2,135.9z"/>
		<path class="st4" d="M391.1,132.3c-0.1-0.1-0.1-0.2-0.1-0.3c0-0.1,0-0.2,0.1-0.3c0.1-0.1,0.2-0.1,0.3-0.1s0.2,0,0.3,0.1
			c0.1,0.1,0.1,0.2,0.1,0.3c0,0.1,0,0.2-0.1,0.3c-0.1,0.1-0.2,0.1-0.3,0.1S391.2,132.4,391.1,132.3z M391.2,137.4v-4.1
			c0-0.1,0-0.1,0.1-0.1h0.4c0.1,0,0.1,0,0.1,0.1v4.1c0,0.1,0,0.1-0.1,0.1h-0.4C391.2,137.6,391.2,137.5,391.2,137.4z"/>
		<path class="st4" d="M396.1,133.6c0.3,0.3,0.4,0.6,0.4,1.1v2.8c0,0.1,0,0.1-0.1,0.1H396c-0.1,0-0.1,0-0.1-0.1v-2.7
			c0-0.3-0.1-0.6-0.3-0.8c-0.2-0.2-0.4-0.3-0.7-0.3c-0.3,0-0.5,0.1-0.7,0.2c-0.2,0.2-0.3,0.4-0.3,0.6v2.8c0,0.1,0,0.1-0.1,0.1h-0.4
			c-0.1,0-0.1,0-0.1-0.1v-4.1c0-0.1,0-0.1,0.1-0.1h0.4c0.1,0,0.1,0,0.1,0.1v0.3c0,0,0,0,0,0c0,0,0,0,0,0c0.3-0.3,0.6-0.5,1.1-0.5
			C395.5,133.2,395.8,133.3,396.1,133.6z"/>
		<path class="st4" d="M400.6,133.2h0.4c0.1,0,0.1,0,0.1,0.1v4.1c0,0.6-0.2,1.1-0.6,1.4c-0.4,0.3-0.9,0.4-1.5,0.4
			c-0.1,0-0.2,0-0.3,0c-0.1,0-0.1,0-0.1-0.1l0-0.3c0-0.1,0-0.1,0.1-0.1c0.6,0,1-0.1,1.3-0.3c0.3-0.2,0.4-0.5,0.4-1v-0.3c0,0,0,0,0,0
			c0,0,0,0,0,0c-0.3,0.3-0.6,0.5-1.1,0.5c-0.4,0-0.7-0.1-1-0.3c-0.3-0.2-0.5-0.5-0.6-0.8c-0.1-0.2-0.1-0.6-0.1-1c0-0.3,0-0.5,0-0.6
			c0-0.2,0-0.3,0.1-0.5c0.1-0.3,0.3-0.6,0.6-0.8c0.3-0.2,0.6-0.3,1-0.3c0.5,0,0.9,0.2,1.1,0.5c0,0,0,0,0,0c0,0,0,0,0,0v-0.3
			C400.5,133.3,400.5,133.2,400.6,133.2z M400.5,135.9c0-0.1,0-0.3,0-0.5c0-0.3,0-0.5,0-0.6c0-0.1,0-0.2,0-0.3
			c0-0.2-0.2-0.4-0.3-0.6c-0.2-0.2-0.4-0.2-0.7-0.2c-0.3,0-0.5,0.1-0.7,0.2c-0.2,0.2-0.3,0.4-0.4,0.6c-0.1,0.2-0.1,0.5-0.1,0.9
			c0,0.4,0,0.7,0.1,0.9c0.1,0.2,0.2,0.4,0.4,0.6c0.2,0.2,0.4,0.2,0.7,0.2c0.3,0,0.5-0.1,0.7-0.2c0.2-0.2,0.3-0.4,0.3-0.6
			C400.5,136.2,400.5,136.1,400.5,135.9z"/>
	</g>
</g>
</svg>
