<svg xmlns="http://www.w3.org/2000/svg" xmlns:xlink="http://www.w3.org/1999/xlink" viewBox="0 0 487.25 231.82"><defs><style>.cls-1,.cls-7,.cls-8{fill:none;}.cls-2{clip-path:url(#clip-path);}.cls-3{fill:#bbdcef;}.cls-4{fill:#c3003d;}.cls-5{clip-path:url(#clip-path-2);}.cls-6{clip-path:url(#clip-path-3);}.cls-7,.cls-8{stroke:#222221;stroke-miterlimit:10;}.cls-8{stroke-width:1.03px;}.cls-9{fill:#222221;}</style><clipPath id="clip-path"><path class="cls-1" d="M158.16,79.57c-2.54,11.46-7.38,48.9-7.38,59.6s-2.61,38.61-3.05,50.08c0,1.93,0,4.67,0,4.67,0,1-1.18,1.51-1.09,2.39s1.51.53,1.51,1.51-1,.61-1,1.77.71,4-1.68,3.18a25,25,0,0,0-7.79-.88,16.52,16.52,0,0,0-6.1,1c-1,.48-2.83,2.16-2.75-3.32.09-.8-1.06-.62-1.06-1.77s2-.27,2-1.6-1.33-1.15-1.33-2.48-2.32-42-2.32-54.45-4.44-63.26-4.44-81a214.45,214.45,0,0,1,3.42-35.45c.44-3.05,3.74-4.68,10.94-4.68s16.11,1.39,22.83,1.39,17.57-.73,22.46-.73,9.64-.49,10.5,5,3.53,15,3.53,35.89-4.39,64-4.39,84.71-2.44,40.65-2.44,45.41c0,1.5-.36,2.31-.36,3.48s1,.59,1,1.54-1.32.95-1.32,1.61,1.32.44,1.32,1.84-1.32.51-1.32,1.61,1.25.44,1.25,1.61-1,2.57-2.79,1.25-6-1.25-6-1.25a58.22,58.22,0,0,0-7.19,1c-1.69.51-3.59.8-3.59-1.25s1.24.59,1.24-1.54-1.24-.66-1.24-1.91,1.32-.66,1.32-1.61-1.47-.37-1.47-1.91-2.26-36.49-2.26-51.79S161,88,158.16,79.57Z"/></clipPath><clipPath id="clip-path-2"><path class="cls-1" d="M245.36,203.82c-5.08.9-15.38.27-15.38.27-1,.48-1.67.27-1.52-4.5.09-.8-1.06-.62-1.06-1.77s2-.27,2-1.6-1.33-1.15-1.33-2.48-2.32-42-2.32-54.45-4.43-63.26-4.43-81a215.06,215.06,0,0,1,3.41-35.45c.45-3.05,3.74-4.68,10.94-4.68s16.12,1.39,22.83,1.39,17.58-.73,22.46-.73,9.64-.49,10.5,5,3.54,15,3.54,35.89-4.4,64-4.4,84.71-2.44,40.65-2.44,45.41c0,1.5-.36,2.31-.36,3.48s.95.59.95,1.54-1.32.95-1.32,1.61,1.32.44,1.32,1.84-1.32.51-1.32,1.61,1.25.44,1.25,1.61-.46,1.19-2.43,2.18a81.12,81.12,0,0,1-15.37,0c-1.66-.06-1.78-.44-1.78-2.49s1.24.59,1.24-1.54-1.24-.66-1.24-1.91,1.32-.66,1.32-1.61-1.47-.37-1.47-1.91-2.26-36.49-2.26-51.79-6.07-54.5-9-62.91c-2.55,11.46-7.39,48.9-7.39,59.6s-2.6,38.61-3,50.08c0,1.93,0,4.67,0,4.67,0,1-1.17,1.51-1.09,2.39s1.51.53,1.51,1.51-1,.61-1,1.77S247.87,203.76,245.36,203.82Z"/></clipPath><clipPath id="clip-path-3"><path class="cls-1" d="M360.47,18.81c2.22,7.77,5,17.29,5,28.2s-5,26.71-5,56.82,5,41.47,5,65.33c.44,5.3-2.52,15.31-2.52,22.36,0,.95,0,3.41,0,3.41,0,.89-1.22.82-1.22,2s1.22-.41,1.22,1-1.63,1-1.63,2.39.81,2-.21,2,.34,3.28-1.57,3.28-10.1-3.42-13.79-3.42c-1,0-2.52-.95-2.52-2.18s2-.41,2-2.46c0-1-2,.21-2-1s1.23-.07,1.23-1.5-1.78-.55-1.78-2.8.55-.89.55-7.1-4.22-33.51-7.41-46-9-30.61-10.72-59.63-3.83-40-3.46-53.63c6.81-3.13,17.39-7.8,29.35-7.77A55.58,55.58,0,0,1,360.47,18.81Z"/></clipPath></defs><title>mockup-sweatpants-los</title><g id="Layer_12" data-name="Layer 12"><g class="cls-2"><path class="cls-3" d="M176.37,27.24h21.57a0,0,0,0,1,0,0V70.38a0,0,0,0,1,0,0H176.37a21.57,21.57,0,0,1-21.57-21.57v0a21.57,21.57,0,0,1,21.57-21.57Z" transform="translate(86.17 -110.42) rotate(45)"/><path class="cls-3" d="M188.36,60.79h21.8a21.34,21.34,0,0,1,21.34,21.34v21.8a0,0,0,0,1,0,0H188.36a0,0,0,0,1,0,0V60.79A0,0,0,0,1,188.36,60.79Z" transform="translate(119.72 -124.32) rotate(45)"/><path class="cls-4" d="M154.81,94.34h43.13a0,0,0,0,1,0,0v43.13a0,0,0,0,1,0,0H176.37a21.57,21.57,0,0,1-21.57-21.57V94.34A0,0,0,0,1,154.81,94.34Z" transform="translate(133.62 -90.77) rotate(45)"/><path class="cls-4" d="M188.36,127.89h21.57a21.57,21.57,0,0,1,21.57,21.57V171a0,0,0,0,1,0,0H188.36a0,0,0,0,1,0,0V127.89A0,0,0,0,1,188.36,127.89Z" transform="translate(167.17 -104.66) rotate(45)"/><path class="cls-3" d="M154.81,161.44h43.13a0,0,0,0,1,0,0V183a21.57,21.57,0,0,1-21.57,21.57h0A21.57,21.57,0,0,1,154.81,183V161.44A0,0,0,0,1,154.81,161.44Z" transform="translate(181.07 -71.11) rotate(45)"/></g></g><g id="Layer_4" data-name="Layer 4"><g class="cls-5"><path class="cls-3" d="M171.57,26.55h21.57a0,0,0,0,1,0,0V69.68a0,0,0,0,1,0,0H171.57A21.57,21.57,0,0,1,150,48.12v0a21.57,21.57,0,0,1,21.57-21.57Z" transform="translate(84.28 -107.23) rotate(45)"/><path class="cls-3" d="M183.56,60.1h21.8a21.34,21.34,0,0,1,21.34,21.34v21.8a0,0,0,0,1,0,0H183.56a0,0,0,0,1,0,0V60.1A0,0,0,0,1,183.56,60.1Z" transform="translate(117.83 -121.12) rotate(45)"/><path class="cls-4" d="M150,93.65h43.13a0,0,0,0,1,0,0v43.13a0,0,0,0,1,0,0H171.57A21.57,21.57,0,0,1,150,115.22V93.65a0,0,0,0,1,0,0Z" transform="translate(131.72 -87.57) rotate(45)"/><path class="cls-4" d="M183.56,127.2h21.57a21.57,21.57,0,0,1,21.57,21.57v21.57a0,0,0,0,1,0,0H183.56a0,0,0,0,1,0,0V127.2A0,0,0,0,1,183.56,127.2Z" transform="translate(165.27 -101.47) rotate(45)"/><path class="cls-3" d="M150,160.75h43.13a0,0,0,0,1,0,0v21.57a21.57,21.57,0,0,1-21.57,21.57h0A21.57,21.57,0,0,1,150,182.32V160.75A0,0,0,0,1,150,160.75Z" transform="translate(179.17 -67.92) rotate(45)"/></g></g><g id="Layer_5" data-name="Layer 5"><g class="cls-6"><path class="cls-3" d="M307.85,28.79h21.57a0,0,0,0,1,0,0V71.92a0,0,0,0,1,0,0H307.85a21.57,21.57,0,0,1-21.57-21.57v0a21.57,21.57,0,0,1,21.57-21.57Z" transform="translate(125.77 -202.94) rotate(45)"/><path class="cls-3" d="M319.84,62.34h21.8A21.34,21.34,0,0,1,363,83.67v21.8a0,0,0,0,1,0,0H319.84a0,0,0,0,1,0,0V62.34A0,0,0,0,1,319.84,62.34Z" transform="translate(159.32 -216.83) rotate(45)"/><path class="cls-4" d="M286.28,95.89h43.13a0,0,0,0,1,0,0V139a0,0,0,0,1,0,0H307.85a21.57,21.57,0,0,1-21.57-21.57V95.89a0,0,0,0,1,0,0Z" transform="translate(173.22 -183.28) rotate(45)"/><path class="cls-4" d="M319.84,129.44H341.4A21.57,21.57,0,0,1,363,151v21.57a0,0,0,0,1,0,0H319.84a0,0,0,0,1,0,0V129.44A0,0,0,0,1,319.84,129.44Z" transform="translate(206.77 -197.18) rotate(45)"/><path class="cls-3" d="M286.28,163h43.13a0,0,0,0,1,0,0v21.57a21.57,21.57,0,0,1-21.57,21.57h0a21.57,21.57,0,0,1-21.57-21.57V163A0,0,0,0,1,286.28,163Z" transform="translate(220.67 -163.63) rotate(45)"/></g></g><g id="Layer_10" data-name="Layer 10"><path class="cls-7" d="M158.16,79.57c-2.54,11.46-7.38,48.9-7.38,59.6s-2.61,38.61-3.05,50.08c0,1.93,0,4.67,0,4.67,0,1-1.18,1.51-1.09,2.39s1.51.53,1.51,1.51-1,.61-1,1.77.71,4-1.68,3.18a25,25,0,0,0-7.79-.88,16.52,16.52,0,0,0-6.1,1c-1,.48-2.83,2.16-2.75-3.32.09-.8-1.06-.62-1.06-1.77s2-.27,2-1.6-1.33-1.15-1.33-2.48-2.32-42-2.32-54.45-4.44-63.26-4.44-81a214.45,214.45,0,0,1,3.42-35.45c.44-3.05,3.74-4.68,10.94-4.68s16.11,1.39,22.83,1.39,17.57-.73,22.46-.73,9.64-.49,10.5,5,3.53,15,3.53,35.89-4.39,64-4.39,84.71-2.44,40.65-2.44,45.41c0,1.5-.36,2.31-.36,3.48s1,.59,1,1.54-1.32.95-1.32,1.61,1.32.44,1.32,1.84-1.32.51-1.32,1.61,1.25.44,1.25,1.61-1,2.57-2.79,1.25-6-1.25-6-1.25a58.22,58.22,0,0,0-7.19,1c-1.69.51-3.59.8-3.59-1.25s1.24.59,1.24-1.54-1.24-.66-1.24-1.91,1.32-.66,1.32-1.61-1.47-.37-1.47-1.91-2.26-36.49-2.26-51.79S161,88,158.16,79.57Z"/><path class="cls-7" d="M130.38,203.49v7.71c0,1.1.41,2.4,2.77,2.4h9.49a2.51,2.51,0,0,0,3.11-2.73v-8.1"/><path class="cls-7" d="M171.31,202.86v8.34c0,1.1.41,2.4,2.77,2.4h9.49a2.51,2.51,0,0,0,3.11-2.73v-8.1"/><path class="cls-7" d="M230,204.09v7.11c0,1.1.42,2.4,2.77,2.4h9.5a2.51,2.51,0,0,0,3.11-2.73v-7.05"/><path class="cls-7" d="M270.91,203.73v7.47c0,1.1.42,2.4,2.77,2.4h9.5a2.5,2.5,0,0,0,3.1-2.73v-7.16"/><path class="cls-7" d="M245.36,203.82c-5.08.9-15.38.27-15.38.27-1,.48-1.67.27-1.52-4.5.09-.8-1.06-.62-1.06-1.77s2-.27,2-1.6-1.33-1.15-1.33-2.48-2.32-42-2.32-54.45-4.43-63.26-4.43-81a215.06,215.06,0,0,1,3.41-35.45c.45-3.05,3.74-4.68,10.94-4.68s16.12,1.39,22.83,1.39,17.58-.73,22.46-.73,9.64-.49,10.5,5,3.54,15,3.54,35.89-4.4,64-4.4,84.71-2.44,40.65-2.44,45.41c0,1.5-.36,2.31-.36,3.48s.95.59.95,1.54-1.32.95-1.32,1.61,1.32.44,1.32,1.84-1.32.51-1.32,1.61,1.25.44,1.25,1.61-.46,1.19-2.43,2.18a81.12,81.12,0,0,1-15.37,0c-1.66-.06-1.78-.44-1.78-2.49s1.24.59,1.24-1.54-1.24-.66-1.24-1.91,1.32-.66,1.32-1.61-1.47-.37-1.47-1.91-2.26-36.49-2.26-51.79-6.07-54.5-9-62.91c-2.55,11.46-7.39,48.9-7.39,59.6s-2.6,38.61-3,50.08c0,1.93,0,4.67,0,4.67,0,1-1.17,1.51-1.09,2.39s1.51.53,1.51,1.51-1,.61-1,1.77S247.87,203.76,245.36,203.82Z"/><path class="cls-7" d="M124.55,26.36c3.62,2.37,10.21,5.92,34,6.23l-.42,47"/><path class="cls-7" d="M192.45,27c-3.78,1.76-10.23,5.62-33.87,5.62"/><path class="cls-7" d="M126.47,20.39c3.68,1.56,12.15,4.8,32.11,4.8s29.25-2.82,32-4.49"/><path class="cls-7" d="M129.23,28.79c-.5,4.3-7.36,23.38-7.36,23.38"/><path class="cls-7" d="M188.4,28.79c-.15,2.74,6.92,24.17,6.92,24.17"/><path class="cls-7" d="M287.89,39.74a121.63,121.63,0,0,1-22.63,0c.1,3.81,0,20.62,0,20.62,0,2.22,1.9,3.81,4.65,3.81h14.38s4.23.42,4.23-4.87S287.89,39.74,287.89,39.74Z"/><path class="cls-8" d="M292.36,27.5c-2-.64-14.66-2.12-35.2-1.08-19.37-1-31.4-.26-33.19,1.08"/><line class="cls-8" x1="257.16" y1="26.42" x2="257.77" y2="79.57"/><path class="cls-8" d="M360.47,18.81c2.22,7.77,5,17.29,5,28.2s-5,26.71-5,56.82,5,41.47,5,65.33c.44,5.3-2.52,15.31-2.52,22.36,0,.95,0,3.41,0,3.41,0,.89-1.22.82-1.22,2s1.22-.41,1.22,1-1.63,1-1.63,2.39.81,2-.21,2,.34,3.28-1.57,3.28-10.1-3.42-13.79-3.42c-1,0-2.52-.95-2.52-2.18s2-.41,2-2.46c0-1-2,.21-2-1s1.23-.07,1.23-1.5-1.78-.55-1.78-2.8.55-.89.55-7.1-4.22-33.51-7.41-46-9-30.61-10.72-59.63-3.83-40-3.46-53.63c6.81-3.13,17.39-7.8,29.35-7.77A55.58,55.58,0,0,1,360.47,18.81Z"/><path class="cls-8" d="M321.65,32.72c4.86-1.87,15.14-6.78,28.69-6.78s12.24.48,12.24.48"/><path class="cls-8" d="M340.93,26.72c0,9.27,2.71,63.18,4.43,83.59S353,147.85,353,188.36v15.35"/><path class="cls-8" d="M345.81,202.23a54.62,54.62,0,0,1,.36,8.48c2.33.17,8.18,2.89,10.6,2.89h2.43l.4-7.95"/><path class="cls-8" d="M336.9,27.52c0,5,2.06,15.46,5,23.81"/><path class="cls-7" d="M130.38,211.2a15.57,15.57,0,0,1,6.72-1.65,31.61,31.61,0,0,1,8.65,1.32"/><path class="cls-7" d="M171.31,211.2a15.57,15.57,0,0,1,6.72-1.65,31.61,31.61,0,0,1,8.65,1.32"/><path class="cls-3" d="M127.15,67.87h1.61a0,0,0,0,1,0,0v3.22a0,0,0,0,1,0,0h-1.61a1.61,1.61,0,0,1-1.61-1.61v0A1.61,1.61,0,0,1,127.15,67.87Z" transform="translate(-11.89 110.26) rotate(-45)"/><path class="cls-3" d="M128,65.36h1.63A1.59,1.59,0,0,1,131.27,67v1.63a0,0,0,0,1,0,0H128a0,0,0,0,1,0,0V65.36A0,0,0,0,1,128,65.36Z" transform="translate(-9.38 111.3) rotate(-45)"/><path class="cls-4" d="M130.56,67.87h3.22a0,0,0,0,1,0,0v3.22a0,0,0,0,1,0,0h-1.61a1.61,1.61,0,0,1-1.61-1.61V67.87A0,0,0,0,1,130.56,67.87Z" transform="translate(-10.42 113.81) rotate(-45)"/><path class="cls-4" d="M133.06,65.36h1.61A1.61,1.61,0,0,1,136.28,67v1.61a0,0,0,0,1,0,0h-3.22a0,0,0,0,1,0,0V65.36A0,0,0,0,1,133.06,65.36Z" transform="translate(-7.91 114.85) rotate(-45)"/><path class="cls-3" d="M135.57,67.87h3.22a0,0,0,0,1,0,0v1.61a1.61,1.61,0,0,1-1.61,1.61h0a1.61,1.61,0,0,1-1.61-1.61V67.87a0,0,0,0,1,0,0Z" transform="translate(-8.95 117.35) rotate(-45)"/><path class="cls-9" d="M143.49,67.19a.9.9,0,0,1,.2.61v1.1a.2.2,0,0,1-.05.14.18.18,0,0,1-.14.06.21.21,0,0,1-.2-.2V67.8a.48.48,0,0,0-.12-.35.46.46,0,0,0-.64,0,.52.52,0,0,0-.13.35V68.9a.2.2,0,0,1,0,.14.18.18,0,0,1-.14.06.21.21,0,0,1-.2-.2V67.8a.48.48,0,0,0-.12-.35.41.41,0,0,0-.31-.12.39.39,0,0,0-.33.14.48.48,0,0,0-.13.35V68.9a.21.21,0,0,1-.2.2.2.2,0,0,1-.14-.06.16.16,0,0,1,0-.14V67.19a.17.17,0,0,1,0-.14.19.19,0,0,1,.14,0,.17.17,0,0,1,.14,0,.16.16,0,0,1,.06.13.7.7,0,0,1,.24-.15.73.73,0,0,1,.3-.06.82.82,0,0,1,.35.08.61.61,0,0,1,.25.23.92.92,0,0,1,.29-.23A1,1,0,0,1,143,67,.74.74,0,0,1,143.49,67.19Z"/><path class="cls-9" d="M144.57,69a.88.88,0,0,1-.37-.37,1.15,1.15,0,0,1-.14-.55,1.13,1.13,0,0,1,.14-.56.9.9,0,0,1,.37-.38,1.23,1.23,0,0,1,1.1,0,1,1,0,0,1,.37.38,1.13,1.13,0,0,1,.14.56,1.15,1.15,0,0,1-.14.55.94.94,0,0,1-.37.37,1.1,1.1,0,0,1-.55.14A1.12,1.12,0,0,1,144.57,69Zm.9-.3a.6.6,0,0,0,.25-.25.91.91,0,0,0,.08-.37.92.92,0,0,0-.08-.38.68.68,0,0,0-.95-.25.58.58,0,0,0-.24.25.79.79,0,0,0-.09.38.78.78,0,0,0,.09.37.58.58,0,0,0,.24.25.73.73,0,0,0,.7,0Z"/><path class="cls-9" d="M148.37,67.09a.29.29,0,0,1,0,.09.12.12,0,0,1,0,.08L147.54,69a.19.19,0,0,1-.18.13.2.2,0,0,1-.11,0,.29.29,0,0,1-.08-.1l-.83-1.75a.17.17,0,0,1,0-.07.16.16,0,0,1,.11-.16.11.11,0,0,1,.08,0l.09,0a.12.12,0,0,1,.06.08l.69,1.47.67-1.47a.19.19,0,0,1,.07-.08l.1,0a.15.15,0,0,1,.09,0A.16.16,0,0,1,148.37,67.09Z"/><path class="cls-9" d="M150.49,68.16a.17.17,0,0,1-.12,0h-1.46a.61.61,0,0,0,.24.43.75.75,0,0,0,.49.17.67.67,0,0,0,.24,0,.68.68,0,0,0,.21-.11.25.25,0,0,1,.13,0,.15.15,0,0,1,.11,0,.16.16,0,0,1,.07.13.14.14,0,0,1-.06.12,1.28,1.28,0,0,1-.33.17,1.24,1.24,0,0,1-.37.06,1.13,1.13,0,0,1-.56-.14.93.93,0,0,1-.39-.37,1,1,0,0,1-.14-.55,1.16,1.16,0,0,1,.13-.56,1,1,0,0,1,.37-.38,1.08,1.08,0,0,1,.54-.13,1,1,0,0,1,.51.13.89.89,0,0,1,.33.36,1.33,1.33,0,0,1,.11.54A.13.13,0,0,1,150.49,68.16Zm-1.36-.67a.66.66,0,0,0-.22.41h1.28a.68.68,0,0,0-.19-.41.59.59,0,0,0-.41-.15A.69.69,0,0,0,149.13,67.49Z"/><path class="cls-9" d="M151,68.16a.2.2,0,0,1,0-.14.24.24,0,0,1,0-.14.16.16,0,0,1,.11,0h.73a.18.18,0,0,1,.12,0,.23.23,0,0,1,0,.14.2.2,0,0,1,0,.14.16.16,0,0,1-.12.06h-.73A.14.14,0,0,1,151,68.16Z"/><path class="cls-9" d="M154.53,66.18a.17.17,0,0,1,.06.14v1.75a1.15,1.15,0,0,1-.14.55,1.06,1.06,0,0,1-.38.38A1.11,1.11,0,0,1,153,69a1,1,0,0,1-.38-.38,1.15,1.15,0,0,1-.14-.55,1.08,1.08,0,0,1,.13-.54,1,1,0,0,1,.35-.38.88.88,0,0,1,.5-.14,1,1,0,0,1,.42.09.93.93,0,0,1,.33.26v-1a.19.19,0,0,1,.19-.2A.17.17,0,0,1,154.53,66.18Zm-.65,2.52a.67.67,0,0,0,.24-.26.75.75,0,0,0,.09-.37.78.78,0,0,0-.09-.37.72.72,0,0,0-.24-.25.6.6,0,0,0-.35-.1.62.62,0,0,0-.35.1.72.72,0,0,0-.24.25.78.78,0,0,0-.09.37.75.75,0,0,0,.09.37.67.67,0,0,0,.24.26.7.7,0,0,0,.35.09A.68.68,0,0,0,153.88,68.7Z"/><path class="cls-9" d="M143.49,67.19a.9.9,0,0,1,.2.61v1.1a.2.2,0,0,1-.05.14.18.18,0,0,1-.14.06.21.21,0,0,1-.2-.2V67.8a.48.48,0,0,0-.12-.35.46.46,0,0,0-.64,0,.52.52,0,0,0-.13.35V68.9a.2.2,0,0,1,0,.14.18.18,0,0,1-.14.06.21.21,0,0,1-.2-.2V67.8a.48.48,0,0,0-.12-.35.41.41,0,0,0-.31-.12.39.39,0,0,0-.33.14.48.48,0,0,0-.13.35V68.9a.21.21,0,0,1-.2.2.2.2,0,0,1-.14-.06.16.16,0,0,1,0-.14V67.19a.17.17,0,0,1,0-.14.19.19,0,0,1,.14,0,.17.17,0,0,1,.14,0,.16.16,0,0,1,.06.13.7.7,0,0,1,.24-.15.73.73,0,0,1,.3-.06.82.82,0,0,1,.35.08.61.61,0,0,1,.25.23.92.92,0,0,1,.29-.23A1,1,0,0,1,143,67,.74.74,0,0,1,143.49,67.19Z"/><path class="cls-9" d="M144.57,69a.88.88,0,0,1-.37-.37,1.15,1.15,0,0,1-.14-.55,1.13,1.13,0,0,1,.14-.56.9.9,0,0,1,.37-.38,1.23,1.23,0,0,1,1.1,0,1,1,0,0,1,.37.38,1.13,1.13,0,0,1,.14.56,1.15,1.15,0,0,1-.14.55.94.94,0,0,1-.37.37,1.1,1.1,0,0,1-.55.14A1.12,1.12,0,0,1,144.57,69Zm.9-.3a.6.6,0,0,0,.25-.25.91.91,0,0,0,.08-.37.92.92,0,0,0-.08-.38.68.68,0,0,0-.95-.25.58.58,0,0,0-.24.25.79.79,0,0,0-.09.38.78.78,0,0,0,.09.37.58.58,0,0,0,.24.25.73.73,0,0,0,.7,0Z"/><path class="cls-9" d="M148.37,67.09a.29.29,0,0,1,0,.09.12.12,0,0,1,0,.08L147.54,69a.19.19,0,0,1-.18.13.2.2,0,0,1-.11,0,.29.29,0,0,1-.08-.1l-.83-1.75a.17.17,0,0,1,0-.07.16.16,0,0,1,.11-.16.11.11,0,0,1,.08,0l.09,0a.12.12,0,0,1,.06.08l.69,1.47.67-1.47a.19.19,0,0,1,.07-.08l.1,0a.15.15,0,0,1,.09,0A.16.16,0,0,1,148.37,67.09Z"/><path class="cls-9" d="M150.49,68.16a.17.17,0,0,1-.12,0h-1.46a.61.61,0,0,0,.24.43.75.75,0,0,0,.49.17.67.67,0,0,0,.24,0,.68.68,0,0,0,.21-.11.25.25,0,0,1,.13,0,.15.15,0,0,1,.11,0,.16.16,0,0,1,.07.13.14.14,0,0,1-.06.12,1.28,1.28,0,0,1-.33.17,1.24,1.24,0,0,1-.37.06,1.13,1.13,0,0,1-.56-.14.93.93,0,0,1-.39-.37,1,1,0,0,1-.14-.55,1.16,1.16,0,0,1,.13-.56,1,1,0,0,1,.37-.38,1.08,1.08,0,0,1,.54-.13,1,1,0,0,1,.51.13.89.89,0,0,1,.33.36,1.33,1.33,0,0,1,.11.54A.13.13,0,0,1,150.49,68.16Zm-1.36-.67a.66.66,0,0,0-.22.41h1.28a.68.68,0,0,0-.19-.41.59.59,0,0,0-.41-.15A.69.69,0,0,0,149.13,67.49Z"/><path class="cls-9" d="M151,68.16a.2.2,0,0,1,0-.14.24.24,0,0,1,0-.14.16.16,0,0,1,.11,0h.73a.18.18,0,0,1,.12,0,.23.23,0,0,1,0,.14.2.2,0,0,1,0,.14.16.16,0,0,1-.12.06h-.73A.14.14,0,0,1,151,68.16Z"/><path class="cls-9" d="M154.53,66.18a.17.17,0,0,1,.06.14v1.75a1.15,1.15,0,0,1-.14.55,1.06,1.06,0,0,1-.38.38A1.11,1.11,0,0,1,153,69a1,1,0,0,1-.38-.38,1.15,1.15,0,0,1-.14-.55,1.08,1.08,0,0,1,.13-.54,1,1,0,0,1,.35-.38.88.88,0,0,1,.5-.14,1,1,0,0,1,.42.09.93.93,0,0,1,.33.26v-1a.19.19,0,0,1,.19-.2A.17.17,0,0,1,154.53,66.18Zm-.65,2.52a.67.67,0,0,0,.24-.26.75.75,0,0,0,.09-.37.78.78,0,0,0-.09-.37.72.72,0,0,0-.24-.25.6.6,0,0,0-.35-.1.62.62,0,0,0-.35.1.72.72,0,0,0-.24.25.78.78,0,0,0-.09.37.75.75,0,0,0,.09.37.67.67,0,0,0,.24.26.7.7,0,0,0,.35.09A.68.68,0,0,0,153.88,68.7Z"/><path class="cls-4" d="M140.79,69.86a.08.08,0,0,1,0-.12l.06,0,.06,0a.1.1,0,0,1,0,.12l-.06,0Zm0,.92V70a0,0,0,0,1,0,0h.07a0,0,0,0,1,0,0v.74a0,0,0,0,1,0,0h-.07A0,0,0,0,1,140.79,70.78Z"/><path class="cls-4" d="M141.58,70.68a.14.14,0,0,0,.07-.08h0l0,0s0,0,0,0a.25.25,0,0,1-.11.12.31.31,0,0,1-.17,0,.35.35,0,0,1-.18,0,.3.3,0,0,1-.11-.14.58.58,0,0,1,0-.21.34.34,0,0,1,0-.11.15.15,0,0,1,0-.07.25.25,0,0,1,.1-.16.31.31,0,0,1,.19-.06.28.28,0,0,1,.21.07.35.35,0,0,1,.1.19.67.67,0,0,1,0,.16,0,0,0,0,1,0,0h-.5a.31.31,0,0,0,0,.11.14.14,0,0,0,.07.11.21.21,0,0,0,.14,0Zm-.26-.54a.16.16,0,0,0-.07.11s0,0,0,.1,0,0,0,0h.39s0,0,0,0,0-.08,0-.1a.19.19,0,0,0-.07-.11.25.25,0,0,0-.13,0A.21.21,0,0,0,141.32,70.14Z"/><path class="cls-4" d="M142.47,69.72h.07a0,0,0,0,1,0,0v1a0,0,0,0,1,0,0h-.07a0,0,0,0,1,0,0v-.06h0a.18.18,0,0,1-.08.07.2.2,0,0,1-.11,0,.28.28,0,0,1-.18-.06.24.24,0,0,1-.1-.15.5.5,0,0,1,0-.19.92.92,0,0,1,0-.19.37.37,0,0,1,.1-.16.36.36,0,0,1,.19,0l.11,0a.27.27,0,0,1,.08.07h0v-.36Zm0,.8a.31.31,0,0,0,0-.11.41.41,0,0,0,0-.12.14.14,0,0,0,0-.07.18.18,0,0,0-.06-.09.17.17,0,0,0-.1,0,.2.2,0,0,0-.11,0,.15.15,0,0,0-.06.09l0,.07s0,.07,0,.12,0,.08,0,.11a.14.14,0,0,0,0,.07.16.16,0,0,0,.07.09.2.2,0,0,0,.11,0,.17.17,0,0,0,.1,0,.16.16,0,0,0,.06-.08A.24.24,0,0,0,142.44,70.52Z"/><path class="cls-4" d="M143.23,70.68a.14.14,0,0,0,.07-.08h0l0,0s0,0,0,0a.25.25,0,0,1-.11.12.31.31,0,0,1-.17,0,.35.35,0,0,1-.18,0,.3.3,0,0,1-.11-.14.58.58,0,0,1,0-.21V70.3a.64.64,0,0,1,0-.07.25.25,0,0,1,.1-.16.31.31,0,0,1,.19-.06.28.28,0,0,1,.21.07.35.35,0,0,1,.1.19s0,.09,0,.16a0,0,0,0,1,0,0h-.5a.31.31,0,0,0,0,.11.14.14,0,0,0,.07.11.21.21,0,0,0,.14,0A.27.27,0,0,0,143.23,70.68Zm-.26-.54a.16.16,0,0,0-.07.11s0,0,0,.1,0,0,0,0h.39s0,0,0,0,0-.08,0-.1a.19.19,0,0,0-.07-.11.25.25,0,0,0-.13,0A.21.21,0,0,0,143,70.14Z"/><path class="cls-4" d="M144,70s0,0,0,0v.06s0,0,0,0h-.07a.18.18,0,0,0-.14.06.2.2,0,0,0-.05.14v.45s0,0,0,0h-.07a0,0,0,0,1,0,0V70a0,0,0,0,1,0,0h.07s0,0,0,0v.09h0a.21.21,0,0,1,.2-.12Z"/><path class="cls-4" d="M144.6,70.68a.19.19,0,0,0,.07-.08h0l0,0s0,0,0,0a.25.25,0,0,1-.11.12.34.34,0,0,1-.17,0,.35.35,0,0,1-.18,0,.3.3,0,0,1-.11-.14.58.58,0,0,1,0-.21V70.3a.64.64,0,0,1,0-.07.25.25,0,0,1,.1-.16.31.31,0,0,1,.19-.06.28.28,0,0,1,.21.07.35.35,0,0,1,.1.19s0,.09,0,.16a0,0,0,0,1,0,0h-.5a.31.31,0,0,0,0,.11.14.14,0,0,0,.07.11.21.21,0,0,0,.14,0A.27.27,0,0,0,144.6,70.68Zm-.26-.54a.16.16,0,0,0-.07.11.25.25,0,0,0,0,.1s0,0,0,0h.39s0,0,0,0,0-.08,0-.1a.26.26,0,0,0-.07-.11.25.25,0,0,0-.13,0A.21.21,0,0,0,144.34,70.14Z"/><path class="cls-4" d="M145.41,70.68a.16.16,0,0,0,.08-.08h0l0,0s0,0,0,0a.25.25,0,0,1-.11.12.34.34,0,0,1-.17,0,.3.3,0,0,1-.18,0,.3.3,0,0,1-.11-.14.58.58,0,0,1,0-.21V70.3s0,0,0-.07a.3.3,0,0,1,.3-.22.28.28,0,0,1,.21.07.35.35,0,0,1,.1.19s0,.09,0,.16a0,0,0,0,1,0,0h-.5a.31.31,0,0,0,0,.11.14.14,0,0,0,.07.11.2.2,0,0,0,.14,0A.2.2,0,0,0,145.41,70.68Zm-.26-.54a.2.2,0,0,0-.06.11.25.25,0,0,0,0,.1s0,0,0,0h.39a0,0,0,0,0,0,0,.41.41,0,0,1,0-.1.26.26,0,0,0-.07-.11.25.25,0,0,0-.13,0A.28.28,0,0,0,145.15,70.14Z"/><path class="cls-4" d="M146.33,70.08a.25.25,0,0,1,.07.19v.51a0,0,0,0,1,0,0h-.07a0,0,0,0,1,0,0V70.3a.2.2,0,0,0,0-.14.16.16,0,0,0-.13-.06.19.19,0,0,0-.13.05.23.23,0,0,0-.06.12v.51a0,0,0,0,1,0,0h-.07a0,0,0,0,1,0,0V70a0,0,0,0,1,0,0h.07a0,0,0,0,1,0,0v.06h0a.23.23,0,0,1,.2-.09A.27.27,0,0,1,146.33,70.08Z"/><path class="cls-4" d="M147,69.86a.1.1,0,0,1,0-.12l.06,0,.06,0a.1.1,0,0,1,0,.12l-.06,0Zm0,.92V70s0,0,0,0h.07a0,0,0,0,1,0,0v.74a0,0,0,0,1,0,0H147S147,70.79,147,70.78Z"/><path class="cls-4" d="M147.84,70.08a.29.29,0,0,1,.07.19v.51a0,0,0,0,1,0,0h-.07a0,0,0,0,1,0,0V70.3a.2.2,0,0,0-.05-.14.16.16,0,0,0-.13-.06.19.19,0,0,0-.13.05.14.14,0,0,0-.06.12v.51a0,0,0,0,1,0,0h-.07a0,0,0,0,1,0,0V70a0,0,0,0,1,0,0h.07a0,0,0,0,1,0,0v.06h0a.23.23,0,0,1,.2-.09A.27.27,0,0,1,147.84,70.08Z"/><path class="cls-4" d="M149.07,70.41a.84.84,0,0,1,0,.19.28.28,0,0,1-.1.15.28.28,0,0,1-.18.06.27.27,0,0,1-.12,0,.18.18,0,0,1-.08-.07h0v.06s0,0,0,0h-.07a0,0,0,0,1,0,0v-1l0,0h.07s0,0,0,0v.36h0a.22.22,0,0,1,.09-.07l.11,0a.35.35,0,0,1,.18,0,.29.29,0,0,1,.1.16A.78.78,0,0,1,149.07,70.41Zm-.12.11a.34.34,0,0,0,0-.11.41.41,0,0,0,0-.12.09.09,0,0,0,0-.07.15.15,0,0,0-.06-.09.2.2,0,0,0-.11,0,.17.17,0,0,0-.1,0l-.06.09a.64.64,0,0,0,0,.07v.23s0,0,0,.08a.16.16,0,0,0,.06.08.18.18,0,0,0,.11,0,.2.2,0,0,0,.11,0,.29.29,0,0,0,.08-.16Z"/><path class="cls-4" d="M149.71,70.68a.19.19,0,0,0,.07-.08h0l0,0s0,0,0,0a.25.25,0,0,1-.11.12.34.34,0,0,1-.17,0,.35.35,0,0,1-.18,0,.3.3,0,0,1-.11-.14.58.58,0,0,1,0-.21V70.3a.2.2,0,0,0,0-.07.3.3,0,0,1,.3-.22.28.28,0,0,1,.21.07.35.35,0,0,1,.1.19s0,.09,0,.16a0,0,0,0,1,0,0h-.5a.31.31,0,0,0,0,.11.14.14,0,0,0,.07.11.21.21,0,0,0,.14,0Zm-.26-.54a.16.16,0,0,0-.07.11.25.25,0,0,0,0,.1s0,0,0,0h.39s0,0,0,0,0-.08,0-.1a.26.26,0,0,0-.07-.11.25.25,0,0,0-.13,0A.21.21,0,0,0,149.45,70.14Z"/><path class="cls-4" d="M150.23,70.78,150,70h.09a0,0,0,0,1,0,0l.16.6h0l.16-.6s0,0,0,0h.06a0,0,0,0,1,0,0l.17.6h0l.16-.6,0,0H151s0,0,0,0a0,0,0,0,1,0,0l-.22.74,0,0h-.08a0,0,0,0,1,0,0l-.17-.57h0l-.15.57,0,0h-.07A0,0,0,0,1,150.23,70.78Z"/><path class="cls-4" d="M151.58,70.68a.16.16,0,0,0,.08-.08h0l0,0s0,0,0,0a.25.25,0,0,1-.11.12.34.34,0,0,1-.17,0,.27.27,0,0,1-.29-.19.58.58,0,0,1,0-.21V70.3s0,0,0-.07a.31.31,0,0,1,.11-.16.29.29,0,0,1,.19-.06.28.28,0,0,1,.21.07.35.35,0,0,1,.1.19v.16s0,0,0,0h-.49a.31.31,0,0,0,0,.11.14.14,0,0,0,.07.11.18.18,0,0,0,.13,0A.21.21,0,0,0,151.58,70.68Zm-.26-.54a.2.2,0,0,0-.06.11.25.25,0,0,0,0,.1h.4a0,0,0,0,0,0,0,.41.41,0,0,1,0-.1.26.26,0,0,0-.07-.11.23.23,0,0,0-.26,0Z"/><path class="cls-4" d="M152.48,70h.07a0,0,0,0,1,0,0v.73a.32.32,0,0,1-.1.25.46.46,0,0,1-.27.08h0s0,0,0,0V71s0,0,0,0a.39.39,0,0,0,.24,0,.25.25,0,0,0,.07-.18v-.06h0a.24.24,0,0,1-.2.09.37.37,0,0,1-.18,0,.31.31,0,0,1-.1-.15.92.92,0,0,1,0-.19.45.45,0,0,1,0-.12.22.22,0,0,1,0-.08.31.31,0,0,1,.1-.15.34.34,0,0,1,.17,0,.26.26,0,0,1,.21.09h0v0A0,0,0,0,1,152.48,70Zm0,.48v-.2s0,0,0,0a.17.17,0,0,0-.06-.1.17.17,0,0,0-.12-.05.21.21,0,0,0-.12,0,.19.19,0,0,0-.07.11.57.57,0,0,0,0,.16.49.49,0,0,0,0,.15.24.24,0,0,0,.06.11.28.28,0,0,0,.13,0,.16.16,0,0,0,.12,0,.24.24,0,0,0,.06-.11A.35.35,0,0,0,152.46,70.5Z"/><path class="cls-4" d="M152.81,69.86a.08.08,0,0,1,0-.12l.06,0,.06,0a.1.1,0,0,1,0,.12l-.06,0Zm0,.92V70a0,0,0,0,1,0,0h.07s0,0,0,0v.74s0,0,0,0h-.07A0,0,0,0,1,152.81,70.78Z"/><path class="cls-4" d="M153.69,70.08a.26.26,0,0,1,.08.19v.51a0,0,0,0,1,0,0h-.07s0,0,0,0V70.3a.2.2,0,0,0,0-.14.18.18,0,0,0-.14-.06.21.21,0,0,0-.13.05.17.17,0,0,0-.05.12v.51a0,0,0,0,1,0,0h-.07s0,0,0,0V70s0,0,0,0h.07a0,0,0,0,1,0,0v.06h0a.26.26,0,0,1,.21-.09A.25.25,0,0,1,153.69,70.08Z"/><path class="cls-4" d="M154.5,70h.07a0,0,0,0,1,0,0v.73a.29.29,0,0,1-.1.25.46.46,0,0,1-.27.08h-.05a0,0,0,0,1,0,0V71s0,0,0,0a.39.39,0,0,0,.24,0,.21.21,0,0,0,.07-.18v-.06h0a.23.23,0,0,1-.2.09.34.34,0,0,1-.17,0,.27.27,0,0,1-.11-.15.92.92,0,0,1,0-.19s0-.08,0-.12,0-.05,0-.08a.4.4,0,0,1,.1-.15.35.35,0,0,1,.18,0,.24.24,0,0,1,.2.09h0v0A0,0,0,0,1,154.5,70Zm0,.48v-.2a.09.09,0,0,0,0,0,.17.17,0,0,0-.06-.1.17.17,0,0,0-.12-.05.21.21,0,0,0-.12,0,.19.19,0,0,0-.07.11.57.57,0,0,0,0,.16.49.49,0,0,0,0,.15.24.24,0,0,0,.06.11.28.28,0,0,0,.13,0,.16.16,0,0,0,.12,0,.14.14,0,0,0,.06-.11S154.48,70.53,154.48,70.5Z"/></g></svg>