<?xml version="1.0" encoding="utf-8"?>
<!-- Generator: Adobe Illustrator 22.0.1, SVG Export Plug-In . SVG Version: 6.00 Build 0)  -->
<svg version="1.1" xmlns="http://www.w3.org/2000/svg" xmlns:xlink="http://www.w3.org/1999/xlink" x="0px" y="0px"
	 viewBox="0 0 487.3 231.8" style="enable-background:new 0 0 487.3 231.8;" xml:space="preserve">
<style type="text/css">
	.st0{display:none;}
	.st1{display:inline;}
	.st2{fill:#BBDCF3;}
	.st3{fill:#C3003D;}
	.st4{fill:none;stroke:#FFFFFF;stroke-miterlimit:10;}
	.st5{fill:none;stroke:#000000;stroke-miterlimit:10;}
	.st6{fill:#BBDCEF;}
	.st7{fill:#070809;}
	.st8{fill:#FFFFFF;}
	.st9{display:inline;fill:#BBDCEF;}
	.st10{display:inline;fill:#C3003D;}
	.st11{display:inline;fill:#FFFFFF;}
</style>
<g id="Layer_3" class="st0">
	<g class="st1">
		<path class="st2" d="M373.5,188.4l15.6-15.6l-31.3-31.3l-15.6,15.6c-8.6,8.6-8.6,22.6,0,31.3l0,0C350.9,197,364.9,197,373.5,188.4
			z"/>
		<path class="st2" d="M392.3,169.6l31.3-31.3l-15.8-15.8c-8.5-8.5-22.4-8.5-30.9,0L361,138.4L392.3,169.6z"/>
		<path class="st3" d="M426.7,140.6l-30.4,31.3l15.6,15.6c4.1,4.1,9.4,6.3,14.8,6.5L426.7,140.6z"/>
	</g>
</g>
<g id="Layer_10">
	<path class="st4" d="M227.1,189l-17.3-7.1l-2.3,7.9l17,7.9L227.1,189c6-3,7.1-8.2,8.5-12.3s5.2-21.9,6.3-30.9
		c1.1-9,1.9-12.6-1.4-21.4c-7.7-28.2-17.3-50.1-22.7-61.9s-13.1-12.9-19.4-15.1c-6.3-2.2-10.4-2.7-13.4-8.8s-9.8-3.1-12.6-1.4
		c-3.5,2.2-8.8,4.8-14.9,4.8"/>
	<path class="st4" d="M201.7,111.6c3.5,3.6,8.8,11.6,9.5,19.7c0.2,2.7,1.5,5,3.6-2.3"/>
	<path class="st4" d="M227.6,133.9c-3,0.1-14.6,5.9-15.3,0"/>
	<path class="st4" d="M214,136.5c0.9,11.7-7.6,36.6-4.2,45.3"/>
	<path class="st4" d="M201.7,111.6c0-7,2.3-25.1,13.2-47.6"/>
	<path class="st4" d="M157.4,50.8c0-5.3,23.6-11,23.6-15.6"/>
	<path class="st4" d="M162.4,48.4c2.1-0.8,16.3-3.7,21.5-4.2"/>
	<path class="st4" d="M87.8,189l17.3-7.1l2.3,7.9l-17,7.9L87.8,189c-6-3-7.1-8.2-8.5-12.3s-5.2-21.9-6.3-30.9
		c-1.1-9-1.9-12.6,1.4-21.4C82,96.1,91.6,74.2,97.1,62.4s13.1-12.9,19.4-15.1c6.3-2.2,10.4-2.7,13.4-8.8s9.8-3.1,12.6-1.4
		c3.5,2.2,8.8,4.8,14.9,4.8"/>
	<path class="st4" d="M113.1,111.6c-3.5,3.6-8.8,11.6-9.5,19.7c-0.2,2.7-1.5,5-3.6-2.3"/>
	<path class="st4" d="M87.2,133.9c3,0.1,14.6,5.9,15.3,0"/>
	<path class="st4" d="M100.9,136.5c-0.9,11.7,7.6,36.6,4.2,45.3"/>
	<path class="st4" d="M95.7,74.7c4.1,6.8,18.5,29.5,17.4,40.1s-3.2,42.8-5.8,57c-1.4,4.4,0.7,11.6,3.4,13c4.5,2.4,15.3,9.1,45.2,9.1
		h3c29.9,0,40.7-6.7,45.2-9.1c2.7-1.4,4.9-8.6,3.4-13c-2.6-14.2-4.8-46.4-5.8-57s13.3-33.3,17.4-40.1"/>
	<path class="st4" d="M155.9,201.1c-27.5,0-41-6.5-44.2-7.3c-3.2-0.8-1.1-5.9-1.1-9.1l1.1-16.5c7-5.7,17.1-21.5,19.4-26.2h24.8h3
		h24.8c2.3,4.7,12.4,20.4,19.4,26.2l1.1,16.5c0,3.2,2.1,8.3-1.1,9.1c-3.2,0.8-16.6,7.3-44.2,7.3H155.9z"/>
	<path class="st4" d="M157.4,50.8c0-5.3-23.6-11-23.6-15.6"/>
	<path class="st4" d="M152.4,48.4c-2.1-0.8-16.3-3.7-21.5-4.2"/>
	<path class="st4" d="M408.3,189l-17.3-7.1l-2.3,7.9l17,7.9L408.3,189c6-3,7.1-8.2,8.5-12.3s5.2-21.9,6.3-30.9
		c1.1-9,1.9-12.6-1.4-21.4c-7.7-28.2-17.3-50.1-22.7-61.9s-13.1-12.9-19.4-15.1c-6.3-2.2-10.4-2.7-13.4-8.8s-9.8-3.1-12.6-1.4
		c-3.5,2.2-8.8,4.8-14.9,4.8"/>
	<path class="st4" d="M383,111.6c3.5,3.6,8.8,11.6,9.5,19.7c0.2,2.7,1.5,5,3.6-2.3"/>
	<path class="st4" d="M408.9,133.9c-3,0.1-14.6,5.9-15.3,0"/>
	<path class="st4" d="M395.3,136.5c0.9,11.7-7.6,36.6-4.2,45.3"/>
	<path class="st4" d="M383,111.6c0-7,2.3-25.1,13.2-47.6"/>
	<path class="st4" d="M269,189l17.3-7.1l2.3,7.9l-17,7.9L269,189c-6-3-7.1-8.2-8.5-12.3s-5.2-21.9-6.3-30.9
		c-1.1-9-1.9-12.6,1.4-21.4c7.7-28.2,17.3-50.1,22.7-61.9s13.1-12.9,19.4-15.1c6.3-2.2,10.4-2.7,13.4-8.8c3-6,9.8-3.1,12.6-1.4
		c3.5,2.2,8.8,4.8,14.9,4.8"/>
	<path class="st4" d="M294.4,111.6c-3.5,3.6-8.8,11.6-9.5,19.7c-0.2,2.7-1.5,5-3.6-2.3"/>
	<path class="st4" d="M268.5,133.9c3,0.1,14.6,5.9,15.3,0"/>
	<path class="st4" d="M282.1,136.5c-0.9,11.7,7.6,36.6,4.2,45.3"/>
	<path class="st4" d="M277,74.7c4.1,6.8,18.5,29.5,17.4,40.1s-3.2,42.8-5.8,57c-1.4,4.4,0.7,11.6,3.4,13c4.5,2.4,15.3,9.1,45.2,9.1
		h3c29.9,0,40.7-6.7,45.2-9.1c2.7-1.4,4.9-8.6,3.4-13c-2.6-14.2-4.8-46.4-5.8-57s13.3-33.3,17.4-40.1"/>
	<path class="st4" d="M337.2,201.1c-27.5,0-41-6.5-44.2-7.3c-3.2-0.8-1.1-5.9-1.1-9.1l1.1-16.5c7-5.7,17.1-21.5,19.4-26.2h24.8h3
		H365c2.3,4.7,12.4,20.4,19.4,26.2l1.1,16.5c0,3.2,2.1,8.3-1.1,9.1c-3.2,0.8-16.6,7.3-44.2,7.3H337.2z"/>
	<path class="st4" d="M294.4,111.6c0-7-2.3-25.1-13.2-47.6"/>
	<path class="st4" d="M311.5,40.8c3.7,1.9,15.4,7.8,26,7.8s21.6-4.7,26.8-7.8"/>
	<path class="st4" d="M307.5,43.3c4.8,5.5,16.8,22.2,29.7,22.2c12.9,0,31.3-23.4,31.3-23.4"/>
	<path class="st4" d="M337,80.4c-11.4,0-20.7-15.9-32-35.6"/>
	<path class="st4" d="M306.2,44.1c2.4,3.5,19.9,26.1,26.9,26.1"/>
	<path class="st4" d="M337,80.4c11.4,0,21.7-17.2,33-37"/>
	<path class="st4" d="M369.2,42.8c-2.4,3.5-21.4,27.5-28.3,27.5"/>
</g>
<g id="Layer_10_copy_2">
	<path d="M157.4,42c-6.1,0-11.3-2.6-14.9-4.8c-2.8-1.7-9.6-4.7-12.6,1.4s-7.1,6.6-13.4,8.8c-6.3,2.2-14,3.3-19.4,15.1
		S82,96.1,74.3,124.3c-3.3,8.8-2.5,12.3-1.4,21.4c1.1,9,4.9,26.8,6.3,30.9s2.5,9.3,8.5,12.3l2.5,8.8l17-7.9l-2.3-7.9
		c3.4-8.7-5.1-33.6-4.2-45.3c0,0,1.6-1,1.6-2.7c0,0,0.9,0.1,1.1-2.6c0.8-8,6.1-16,9.5-19.7c0,0,0,0,0,3.2c0,10.6-3.2,42.8-5.8,57
		c-1.4,4.4,0.7,11.6,3.4,13c0,3.2-2.1,8.3,1.1,9.1c3.2,0.8,16.6,7.3,44.2,7.3h3c27.5,0,41-6.5,44.2-7.3c3.2-0.8,1.1-5.9,1.1-9.1
		c2.7-1.4,4.9-8.6,3.4-13c-2.6-14.2-5.8-46.4-5.8-57c0-3.2,0-3.2,0-3.2c3.5,3.6,8.8,11.6,9.5,19.7c0.2,2.7,1.1,2.6,1.1,2.6
		s-0.2,1.8,1.6,2.7c0.9,11.7-7.6,36.6-4.2,45.3l-2.3,7.9l17,7.9l2.5-8.8c6-3,7.1-8.2,8.5-12.3s5.2-21.9,6.3-30.9
		c1.1-9,1.9-12.6-1.4-21.4c-7.7-28.2-17.3-50.1-22.7-61.9s-13.1-12.9-19.4-15.1c-6.3-2.2-10.4-2.7-13.4-8.8s-9.8-3.1-12.6-1.4
		C168.8,39.4,163.5,42,157.4,42"/>
	<path d="M338.7,42c-6.1,0-11.3-2.6-14.9-4.8c-2.8-1.7-9.6-4.7-12.6,1.4c-3,6-7.1,6.6-13.4,8.8c-6.3,2.2-14,3.3-19.4,15.1
		s-15.1,33.7-22.7,61.9c-3.3,8.8-2.5,12.3-1.4,21.4c1.1,9,4.9,26.8,6.3,30.9s2.5,9.3,8.5,12.3l2.5,8.8l17-7.9l-2.3-7.9
		c3.4-8.7-5.1-33.6-4.2-45.3c0,0,1.6-1,1.6-2.7c0,0,0.9,0.1,1.1-2.6c0.8-8,6.1-16,9.5-19.7c0,0,0,0,0,3.2c0,10.6-3.2,42.8-5.8,57
		c-1.4,4.4,0.7,11.6,3.4,13c0,3.2-2.1,8.3,1.1,9.1c3.2,0.8,16.6,7.3,44.2,7.3h3c27.5,0,41-6.5,44.2-7.3c3.2-0.8,1.1-5.9,1.1-9.1
		c2.7-1.4,4.9-8.6,3.4-13c-2.6-14.2-5.8-46.4-5.8-57c0-3.2,0-3.2,0-3.2c3.5,3.6,8.8,11.6,9.5,19.7c0.2,2.7,1.1,2.6,1.1,2.6
		s0,1.7,1.6,2.7c0.9,11.7-7.6,36.6-4.2,45.3l-2.3,7.9l17,7.9l2.5-8.8c6-3,7.1-8.2,8.5-12.3s5.2-21.9,6.3-30.9
		c1.1-9,1.9-12.6-1.4-21.4c-7.7-28.2-17.3-50.1-22.7-61.9s-13.1-12.9-19.4-15.1c-6.3-2.2-10.4-2.7-13.4-8.8s-9.8-3.1-12.6-1.4
		C350,39.4,344.7,42,338.7,42"/>
	<path class="st5" d="M227.1,189l-17.3-7.1l-2.3,7.9l17,7.9L227.1,189c6-3,7.1-8.2,8.5-12.3s5.2-21.9,6.3-30.9
		c1.1-9,1.9-12.6-1.4-21.4c-7.7-28.2-17.3-50.1-22.7-61.9s-13.1-12.9-19.4-15.1c-6.3-2.2-10.4-2.7-13.4-8.8s-9.8-3.1-12.6-1.4
		c-3.5,2.2-8.8,4.8-14.9,4.8"/>
	<path class="st5" d="M201.7,111.6c3.5,3.6,8.8,11.6,9.5,19.7c0.2,2.7,1.5,5,3.6-2.3"/>
	<path class="st5" d="M227.6,133.9c-3,0.1-14.6,5.9-15.3,0"/>
	<path class="st5" d="M214,136.5c0.9,11.7-7.6,36.6-4.2,45.3"/>
	<path class="st5" d="M201.7,111.6c0-7,2.3-25.1,13.2-47.6"/>
	<path class="st5" d="M157.4,50.8c0-5.3,23.6-11,23.6-15.6"/>
	<path class="st5" d="M162.4,48.4c2.1-0.8,16.3-3.7,21.5-4.2"/>
	<path class="st5" d="M87.8,189l17.3-7.1l2.3,7.9l-17,7.9L87.8,189c-6-3-7.1-8.2-8.5-12.3s-5.2-21.9-6.3-30.9
		c-1.1-9-1.9-12.6,1.4-21.4C82,96.1,91.6,74.2,97.1,62.4s13.1-12.9,19.4-15.1c6.3-2.2,10.4-2.7,13.4-8.8s9.8-3.1,12.6-1.4
		c3.5,2.2,8.8,4.8,14.9,4.8"/>
	<path class="st5" d="M113.1,111.6c-3.5,3.6-8.8,11.6-9.5,19.7c-0.2,2.7-1.5,5-3.6-2.3"/>
	<path class="st5" d="M87.2,133.9c3,0.1,14.6,5.9,15.3,0"/>
	<path class="st5" d="M100.9,136.5c-0.9,11.7,7.6,36.6,4.2,45.3"/>
	<path class="st5" d="M95.7,74.7c4.1,6.8,18.5,29.5,17.4,40.1s-3.2,42.8-5.8,57c-1.4,4.4,0.7,11.6,3.4,13c4.5,2.4,15.3,9.1,45.2,9.1
		h3c29.9,0,40.7-6.7,45.2-9.1c2.7-1.4,4.9-8.6,3.4-13c-2.6-14.2-4.8-46.4-5.8-57s13.3-33.3,17.4-40.1"/>
	<path class="st5" d="M155.9,201.1c-27.5,0-41-6.5-44.2-7.3c-3.2-0.8-1.1-5.9-1.1-9.1l1.1-16.5c7-5.7,17.1-21.5,19.4-26.2h24.8h3
		h24.8c2.3,4.7,12.4,20.4,19.4,26.2l1.1,16.5c0,3.2,2.1,8.3-1.1,9.1c-3.2,0.8-16.6,7.3-44.2,7.3H155.9z"/>
	<path class="st5" d="M157.4,50.8c0-5.3-23.6-11-23.6-15.6"/>
	<path class="st5" d="M152.4,48.4c-2.1-0.8-16.3-3.7-21.5-4.2"/>
	<path class="st5" d="M408.3,189l-17.3-7.1l-2.3,7.9l17,7.9L408.3,189c6-3,7.1-8.2,8.5-12.3s5.2-21.9,6.3-30.9
		c1.1-9,1.9-12.6-1.4-21.4c-7.7-28.2-17.3-50.1-22.7-61.9s-13.1-12.9-19.4-15.1c-6.3-2.2-10.4-2.7-13.4-8.8s-9.8-3.1-12.6-1.4
		c-3.5,2.2-8.8,4.8-14.9,4.8"/>
	<path class="st5" d="M383,111.6c3.5,3.6,8.8,11.6,9.5,19.7c0.2,2.7,1.5,5,3.6-2.3"/>
	<path class="st5" d="M408.9,133.9c-3,0.1-14.6,5.9-15.3,0"/>
	<path class="st5" d="M395.3,136.5c0.9,11.7-7.6,36.6-4.2,45.3"/>
	<path class="st5" d="M383,111.6c0-7,2.3-25.1,13.2-47.6"/>
	<path class="st5" d="M269,189l17.3-7.1l2.3,7.9l-17,7.9L269,189c-6-3-7.1-8.2-8.5-12.3s-5.2-21.9-6.3-30.9
		c-1.1-9-1.9-12.6,1.4-21.4c7.7-28.2,17.3-50.1,22.7-61.9s13.1-12.9,19.4-15.1c6.3-2.2,10.4-2.7,13.4-8.8c3-6,9.8-3.1,12.6-1.4
		c3.5,2.2,8.8,4.8,14.9,4.8"/>
	<path class="st5" d="M294.4,111.6c-3.5,3.6-8.8,11.6-9.5,19.7c-0.2,2.7-1.5,5-3.6-2.3"/>
	<path class="st5" d="M268.5,133.9c3,0.1,14.6,5.9,15.3,0"/>
	<path class="st5" d="M282.1,136.5c-0.9,11.7,7.6,36.6,4.2,45.3"/>
	<path class="st5" d="M277,74.7c4.1,6.8,18.5,29.5,17.4,40.1s-3.2,42.8-5.8,57c-1.4,4.4,0.7,11.6,3.4,13c4.5,2.4,15.3,9.1,45.2,9.1
		h3c29.9,0,40.7-6.7,45.2-9.1c2.7-1.4,4.9-8.6,3.4-13c-2.6-14.2-4.8-46.4-5.8-57s13.3-33.3,17.4-40.1"/>
	<path class="st5" d="M337.2,201.1c-27.5,0-41-6.5-44.2-7.3c-3.2-0.8-1.1-5.9-1.1-9.1l1.1-16.5c7-5.7,17.1-21.5,19.4-26.2h24.8h3
		H365c2.3,4.7,12.4,20.4,19.4,26.2l1.1,16.5c0,3.2,2.1,8.3-1.1,9.1c-3.2,0.8-16.6,7.3-44.2,7.3H337.2z"/>
	<path class="st5" d="M294.4,111.6c0-7-2.3-25.1-13.2-47.6"/>
	<path class="st5" d="M311.5,40.8c3.7,1.9,15.4,7.8,26,7.8s21.6-4.7,26.8-7.8"/>
	<path class="st5" d="M307.5,43.3c4.8,5.5,16.8,22.2,29.7,22.2c12.9,0,31.3-23.4,31.3-23.4"/>
	<path class="st5" d="M337,80.4c-11.4,0-20.7-15.9-32-35.6"/>
	<path class="st5" d="M306.2,44.1c2.4,3.5,19.9,26.1,26.9,26.1"/>
	<path class="st5" d="M337,80.4c11.4,0,21.7-17.2,33-37"/>
	<path class="st5" d="M369.2,42.8c-2.4,3.5-21.4,27.5-28.3,27.5"/>
</g>
<g id="Layer_10_copy">
	<path class="st4" d="M227.1,189l-17.3-7.1l-2.3,7.9l17,7.9L227.1,189c6-3,7.1-8.2,8.5-12.3s5.2-21.9,6.3-30.9
		c1.1-9,1.9-12.6-1.4-21.4c-7.7-28.2-17.3-50.1-22.7-61.9s-13.1-12.9-19.4-15.1c-6.3-2.2-10.4-2.7-13.4-8.8s-9.8-3.1-12.6-1.4
		c-3.5,2.2-8.8,4.8-14.9,4.8"/>
	<path class="st4" d="M201.7,111.6c3.5,3.6,8.8,11.6,9.5,19.7c0.2,2.7,1.5,5,3.6-2.3"/>
	<path class="st4" d="M227.6,133.9c-3,0.1-14.6,5.9-15.3,0"/>
	<path class="st4" d="M214,136.5c0.9,11.7-7.6,36.6-4.2,45.3"/>
	<path class="st4" d="M201.7,111.6c0-7,2.3-25.1,13.2-47.6"/>
	<path class="st4" d="M157.4,50.8c0-5.3,23.6-11,23.6-15.6"/>
	<path class="st4" d="M162.4,48.4c2.1-0.8,16.3-3.7,21.5-4.2"/>
	<path class="st4" d="M87.8,189l17.3-7.1l2.3,7.9l-17,7.9L87.8,189c-6-3-7.1-8.2-8.5-12.3s-5.2-21.9-6.3-30.9
		c-1.1-9-1.9-12.6,1.4-21.4C82,96.1,91.6,74.2,97.1,62.4s13.1-12.9,19.4-15.1c6.3-2.2,10.4-2.7,13.4-8.8s9.8-3.1,12.6-1.4
		c3.5,2.2,8.8,4.8,14.9,4.8"/>
	<path class="st4" d="M113.1,111.6c-3.5,3.6-8.8,11.6-9.5,19.7c-0.2,2.7-1.5,5-3.6-2.3"/>
	<path class="st4" d="M87.2,133.9c3,0.1,14.6,5.9,15.3,0"/>
	<path class="st4" d="M100.9,136.5c-0.9,11.7,7.6,36.6,4.2,45.3"/>
	<path class="st4" d="M95.7,74.7c4.1,6.8,18.5,29.5,17.4,40.1s-3.2,42.8-5.8,57c-1.4,4.4,0.7,11.6,3.4,13c4.5,2.4,15.3,9.1,45.2,9.1
		h3c29.9,0,40.7-6.7,45.2-9.1c2.7-1.4,4.9-8.6,3.4-13c-2.6-14.2-4.8-46.4-5.8-57s13.3-33.3,17.4-40.1"/>
	<path class="st4" d="M155.9,201.1c-27.5,0-41-6.5-44.2-7.3c-3.2-0.8-1.1-5.9-1.1-9.1l1.1-16.5c7-5.7,17.1-21.5,19.4-26.2h24.8h3
		h24.8c2.3,4.7,12.4,20.4,19.4,26.2l1.1,16.5c0,3.2,2.1,8.3-1.1,9.1c-3.2,0.8-16.6,7.3-44.2,7.3H155.9z"/>
	<path class="st4" d="M157.4,50.8c0-5.3-23.6-11-23.6-15.6"/>
	<path class="st4" d="M152.4,48.4c-2.1-0.8-16.3-3.7-21.5-4.2"/>
	<path class="st4" d="M408.3,189l-17.3-7.1l-2.3,7.9l17,7.9L408.3,189c6-3,7.1-8.2,8.5-12.3s5.2-21.9,6.3-30.9
		c1.1-9,1.9-12.6-1.4-21.4c-7.7-28.2-17.3-50.1-22.7-61.9s-13.1-12.9-19.4-15.1c-6.3-2.2-10.4-2.7-13.4-8.8s-9.8-3.1-12.6-1.4
		c-3.5,2.2-8.8,4.8-14.9,4.8"/>
	<path class="st4" d="M383,111.6c3.5,3.6,8.8,11.6,9.5,19.7c0.2,2.7,1.5,5,3.6-2.3"/>
	<path class="st4" d="M408.9,133.9c-3,0.1-14.6,5.9-15.3,0"/>
	<path class="st4" d="M395.3,136.5c0.9,11.7-7.6,36.6-4.2,45.3"/>
	<path class="st4" d="M383,111.6c0-7,2.3-25.1,13.2-47.6"/>
	<path class="st4" d="M269,189l17.3-7.1l2.3,7.9l-17,7.9L269,189c-6-3-7.1-8.2-8.5-12.3s-5.2-21.9-6.3-30.9
		c-1.1-9-1.9-12.6,1.4-21.4c7.7-28.2,17.3-50.1,22.7-61.9s13.1-12.9,19.4-15.1c6.3-2.2,10.4-2.7,13.4-8.8c3-6,9.8-3.1,12.6-1.4
		c3.5,2.2,8.8,4.8,14.9,4.8"/>
	<path class="st4" d="M294.4,111.6c-3.5,3.6-8.8,11.6-9.5,19.7c-0.2,2.7-1.5,5-3.6-2.3"/>
	<path class="st4" d="M268.5,133.9c3,0.1,14.6,5.9,15.3,0"/>
	<path class="st4" d="M282.1,136.5c-0.9,11.7,7.6,36.6,4.2,45.3"/>
	<path class="st4" d="M277,74.7c4.1,6.8,18.5,29.5,17.4,40.1s-3.2,42.8-5.8,57c-1.4,4.4,0.7,11.6,3.4,13c4.5,2.4,15.3,9.1,45.2,9.1
		h3c29.9,0,40.7-6.7,45.2-9.1c2.7-1.4,4.9-8.6,3.4-13c-2.6-14.2-4.8-46.4-5.8-57s13.3-33.3,17.4-40.1"/>
	<path class="st4" d="M337.2,201.1c-27.5,0-41-6.5-44.2-7.3c-3.2-0.8-1.1-5.9-1.1-9.1l1.1-16.5c7-5.7,17.1-21.5,19.4-26.2h24.8h3
		H365c2.3,4.7,12.4,20.4,19.4,26.2l1.1,16.5c0,3.2,2.1,8.3-1.1,9.1c-3.2,0.8-16.6,7.3-44.2,7.3H337.2z"/>
	<path class="st4" d="M294.4,111.6c0-7-2.3-25.1-13.2-47.6"/>
	<path class="st4" d="M311.5,40.8c3.7,1.9,15.4,7.8,26,7.8s21.6-4.7,26.8-7.8"/>
	<path class="st4" d="M307.5,43.3c4.8,5.5,16.8,22.2,29.7,22.2c12.9,0,31.3-23.4,31.3-23.4"/>
	<path class="st4" d="M337,80.4c-11.4,0-20.7-15.9-32-35.6"/>
	<path class="st4" d="M306.2,44.1c2.4,3.5,19.9,26.1,26.9,26.1"/>
	<path class="st4" d="M337,80.4c11.4,0,21.7-17.2,33-37"/>
	<path class="st4" d="M369.2,42.8c-2.4,3.5-21.4,27.5-28.3,27.5"/>
</g>
<g id="logo_x27_s">
	<path class="st6" d="M165.9,84.5l1.3-1.3l-2.6-2.6l-1.3,1.3c-0.7,0.7-0.7,1.9,0,2.6h0C164,85.3,165.2,85.3,165.9,84.5z"/>
	<path class="st6" d="M167.5,82.9l2.6-2.6l-1.3-1.3c-0.7-0.7-1.9-0.7-2.6,0l-1.3,1.3L167.5,82.9z"/>
	<path class="st3" d="M171.7,84.5l1.3-1.3l-2.6-2.6l-2.6,2.6l1.3,1.3C169.8,85.3,171,85.3,171.7,84.5z"/>
	<path class="st3" d="M173.3,82.9l2.6-2.6l-1.3-1.3c-0.7-0.7-1.9-0.7-2.6,0l-1.3,1.3L173.3,82.9z"/>
	<path class="st6" d="M177.6,84.5L177.6,84.5c0.7-0.7,0.7-1.9,0-2.6l-1.3-1.3l-2.6,2.6l1.3,1.3C175.6,85.3,176.8,85.3,177.6,84.5z"
		/>
	<path class="st8" d="M183.6,80.5c0.2,0.2,0.2,0.4,0.2,0.7v1.3c0,0.1,0,0.1-0.1,0.2c0,0-0.1,0.1-0.2,0.1c-0.1,0-0.1,0-0.2-0.1
		c0,0-0.1-0.1-0.1-0.2v-1.3c0-0.2,0-0.3-0.1-0.4c-0.1-0.1-0.2-0.1-0.4-0.1c-0.2,0-0.3,0.1-0.4,0.2c-0.1,0.1-0.1,0.2-0.1,0.4v1.3
		c0,0.1,0,0.1-0.1,0.2c0,0-0.1,0.1-0.2,0.1c-0.1,0-0.1,0-0.2-0.1c0,0-0.1-0.1-0.1-0.2v-1.3c0-0.2,0-0.3-0.1-0.4
		c-0.1-0.1-0.2-0.1-0.4-0.1c-0.2,0-0.3,0.1-0.4,0.2c-0.1,0.1-0.1,0.2-0.1,0.4v1.3c0,0.1,0,0.1-0.1,0.2c0,0-0.1,0.1-0.2,0.1
		c-0.1,0-0.1,0-0.2-0.1c0,0-0.1-0.1-0.1-0.2v-2c0-0.1,0-0.1,0.1-0.2c0,0,0.1-0.1,0.2-0.1c0.1,0,0.1,0,0.2,0.1c0,0,0.1,0.1,0.1,0.2
		c0.1-0.1,0.2-0.1,0.3-0.2c0.1,0,0.2-0.1,0.3-0.1c0.2,0,0.3,0,0.4,0.1c0.1,0.1,0.2,0.1,0.3,0.3c0.1-0.1,0.2-0.2,0.3-0.3
		c0.1-0.1,0.3-0.1,0.4-0.1C183.2,80.3,183.4,80.4,183.6,80.5z"/>
	<path class="st8" d="M184.8,82.6c-0.2-0.1-0.3-0.3-0.4-0.4c-0.1-0.2-0.2-0.4-0.2-0.6c0-0.2,0.1-0.5,0.2-0.6
		c0.1-0.2,0.2-0.3,0.4-0.4c0.2-0.1,0.4-0.2,0.6-0.2c0.2,0,0.4,0.1,0.6,0.2c0.2,0.1,0.3,0.3,0.4,0.4c0.1,0.2,0.2,0.4,0.2,0.6
		c0,0.2-0.1,0.5-0.2,0.6c-0.1,0.2-0.2,0.3-0.4,0.4c-0.2,0.1-0.4,0.2-0.6,0.2C185.2,82.8,185,82.7,184.8,82.6z M185.9,82.3
		c0.1-0.1,0.2-0.2,0.3-0.3c0.1-0.1,0.1-0.3,0.1-0.4c0-0.2,0-0.3-0.1-0.4c-0.1-0.1-0.2-0.2-0.3-0.3c-0.1-0.1-0.3-0.1-0.4-0.1
		s-0.3,0-0.4,0.1c-0.1,0.1-0.2,0.2-0.3,0.3c-0.1,0.1-0.1,0.3-0.1,0.4c0,0.2,0,0.3,0.1,0.4c0.1,0.1,0.2,0.2,0.3,0.3
		c0.1,0.1,0.3,0.1,0.4,0.1S185.7,82.4,185.9,82.3z"/>
	<path class="st8" d="M189.2,80.4c0,0,0,0.1,0,0.1c0,0,0,0.1,0,0.1l-1,2c0,0.1-0.1,0.2-0.2,0.2c-0.1,0-0.1,0-0.1,0
		c0,0-0.1-0.1-0.1-0.1l-1-2c0,0,0-0.1,0-0.1c0-0.1,0-0.1,0.1-0.2c0,0,0.1,0,0.1,0s0.1,0,0.1,0c0,0,0.1,0,0.1,0.1l0.8,1.7l0.8-1.7
		c0,0,0-0.1,0.1-0.1c0,0,0.1,0,0.1,0C189.1,80.3,189.1,80.3,189.2,80.4C189.2,80.4,189.2,80.4,189.2,80.4z"/>
	<path class="st8" d="M191.7,81.7c0,0-0.1,0.1-0.1,0.1h-1.7c0,0.2,0.1,0.4,0.3,0.5c0.2,0.1,0.3,0.2,0.6,0.2c0.1,0,0.2,0,0.3,0
		c0.1,0,0.2-0.1,0.2-0.1c0,0,0.1,0,0.1,0c0.1,0,0.1,0,0.1,0c0.1,0,0.1,0.1,0.1,0.2c0,0.1,0,0.1-0.1,0.1c-0.1,0.1-0.2,0.1-0.4,0.2
		c-0.2,0.1-0.3,0.1-0.4,0.1c-0.2,0-0.5-0.1-0.7-0.2c-0.2-0.1-0.3-0.3-0.5-0.4c-0.1-0.2-0.2-0.4-0.2-0.6c0-0.2,0.1-0.5,0.2-0.6
		c0.1-0.2,0.2-0.3,0.4-0.4c0.2-0.1,0.4-0.2,0.6-0.2c0.2,0,0.4,0.1,0.6,0.2c0.2,0.1,0.3,0.2,0.4,0.4c0.1,0.2,0.1,0.4,0.1,0.6
		C191.7,81.6,191.7,81.6,191.7,81.7z M190.1,80.9c-0.1,0.1-0.2,0.3-0.3,0.5h1.5c0-0.2-0.1-0.4-0.2-0.5c-0.1-0.1-0.3-0.2-0.5-0.2
		C190.4,80.7,190.2,80.8,190.1,80.9z"/>
	<path class="st8" d="M192.3,81.7c0,0-0.1-0.1-0.1-0.2c0-0.1,0-0.1,0.1-0.2c0,0,0.1-0.1,0.1-0.1h0.8c0.1,0,0.1,0,0.1,0.1
		c0,0,0.1,0.1,0.1,0.2c0,0.1,0,0.1-0.1,0.2c0,0-0.1,0.1-0.1,0.1h-0.8C192.4,81.7,192.4,81.7,192.3,81.7z"/>
	<path class="st8" d="M196.4,79.4c0,0,0.1,0.1,0.1,0.2v2c0,0.2-0.1,0.4-0.2,0.6c-0.1,0.2-0.3,0.3-0.4,0.4c-0.2,0.1-0.4,0.2-0.6,0.2
		c-0.2,0-0.4-0.1-0.6-0.2c-0.2-0.1-0.3-0.3-0.4-0.4c-0.1-0.2-0.2-0.4-0.2-0.6s0-0.4,0.1-0.6c0.1-0.2,0.2-0.3,0.4-0.4
		c0.2-0.1,0.4-0.2,0.6-0.2c0.2,0,0.3,0,0.5,0.1c0.1,0.1,0.3,0.2,0.4,0.3v-1.2c0-0.1,0-0.1,0.1-0.2c0,0,0.1-0.1,0.2-0.1
		C196.3,79.3,196.3,79.3,196.4,79.4z M195.6,82.3c0.1-0.1,0.2-0.2,0.3-0.3c0.1-0.1,0.1-0.3,0.1-0.4c0-0.2,0-0.3-0.1-0.4
		c-0.1-0.1-0.2-0.2-0.3-0.3c-0.1-0.1-0.3-0.1-0.4-0.1c-0.1,0-0.3,0-0.4,0.1c-0.1,0.1-0.2,0.2-0.3,0.3c-0.1,0.1-0.1,0.3-0.1,0.4
		c0,0.2,0,0.3,0.1,0.4c0.1,0.1,0.2,0.2,0.3,0.3c0.1,0.1,0.3,0.1,0.4,0.1C195.4,82.4,195.5,82.4,195.6,82.3z"/>
	<path class="st8" d="M183.6,80.5c0.2,0.2,0.2,0.4,0.2,0.7v1.3c0,0.1,0,0.1-0.1,0.2c0,0-0.1,0.1-0.2,0.1c-0.1,0-0.1,0-0.2-0.1
		c0,0-0.1-0.1-0.1-0.2v-1.3c0-0.2,0-0.3-0.1-0.4c-0.1-0.1-0.2-0.1-0.4-0.1c-0.2,0-0.3,0.1-0.4,0.2c-0.1,0.1-0.1,0.2-0.1,0.4v1.3
		c0,0.1,0,0.1-0.1,0.2c0,0-0.1,0.1-0.2,0.1c-0.1,0-0.1,0-0.2-0.1c0,0-0.1-0.1-0.1-0.2v-1.3c0-0.2,0-0.3-0.1-0.4
		c-0.1-0.1-0.2-0.1-0.4-0.1c-0.2,0-0.3,0.1-0.4,0.2c-0.1,0.1-0.1,0.2-0.1,0.4v1.3c0,0.1,0,0.1-0.1,0.2c0,0-0.1,0.1-0.2,0.1
		c-0.1,0-0.1,0-0.2-0.1c0,0-0.1-0.1-0.1-0.2v-2c0-0.1,0-0.1,0.1-0.2c0,0,0.1-0.1,0.2-0.1c0.1,0,0.1,0,0.2,0.1c0,0,0.1,0.1,0.1,0.2
		c0.1-0.1,0.2-0.1,0.3-0.2c0.1,0,0.2-0.1,0.3-0.1c0.2,0,0.3,0,0.4,0.1c0.1,0.1,0.2,0.1,0.3,0.3c0.1-0.1,0.2-0.2,0.3-0.3
		c0.1-0.1,0.3-0.1,0.4-0.1C183.2,80.3,183.4,80.4,183.6,80.5z"/>
	<path class="st8" d="M184.8,82.6c-0.2-0.1-0.3-0.3-0.4-0.4c-0.1-0.2-0.2-0.4-0.2-0.6c0-0.2,0.1-0.5,0.2-0.6
		c0.1-0.2,0.2-0.3,0.4-0.4c0.2-0.1,0.4-0.2,0.6-0.2c0.2,0,0.4,0.1,0.6,0.2c0.2,0.1,0.3,0.3,0.4,0.4c0.1,0.2,0.2,0.4,0.2,0.6
		c0,0.2-0.1,0.5-0.2,0.6c-0.1,0.2-0.2,0.3-0.4,0.4c-0.2,0.1-0.4,0.2-0.6,0.2C185.2,82.8,185,82.7,184.8,82.6z M185.9,82.3
		c0.1-0.1,0.2-0.2,0.3-0.3c0.1-0.1,0.1-0.3,0.1-0.4c0-0.2,0-0.3-0.1-0.4c-0.1-0.1-0.2-0.2-0.3-0.3c-0.1-0.1-0.3-0.1-0.4-0.1
		s-0.3,0-0.4,0.1c-0.1,0.1-0.2,0.2-0.3,0.3c-0.1,0.1-0.1,0.3-0.1,0.4c0,0.2,0,0.3,0.1,0.4c0.1,0.1,0.2,0.2,0.3,0.3
		c0.1,0.1,0.3,0.1,0.4,0.1S185.7,82.4,185.9,82.3z"/>
	<path class="st8" d="M189.2,80.4c0,0,0,0.1,0,0.1c0,0,0,0.1,0,0.1l-1,2c0,0.1-0.1,0.2-0.2,0.2c-0.1,0-0.1,0-0.1,0
		c0,0-0.1-0.1-0.1-0.1l-1-2c0,0,0-0.1,0-0.1c0-0.1,0-0.1,0.1-0.2c0,0,0.1,0,0.1,0s0.1,0,0.1,0c0,0,0.1,0,0.1,0.1l0.8,1.7l0.8-1.7
		c0,0,0-0.1,0.1-0.1c0,0,0.1,0,0.1,0C189.1,80.3,189.1,80.3,189.2,80.4C189.2,80.4,189.2,80.4,189.2,80.4z"/>
	<path class="st8" d="M191.7,81.7c0,0-0.1,0.1-0.1,0.1h-1.7c0,0.2,0.1,0.4,0.3,0.5c0.2,0.1,0.3,0.2,0.6,0.2c0.1,0,0.2,0,0.3,0
		c0.1,0,0.2-0.1,0.2-0.1c0,0,0.1,0,0.1,0c0.1,0,0.1,0,0.1,0c0.1,0,0.1,0.1,0.1,0.2c0,0.1,0,0.1-0.1,0.1c-0.1,0.1-0.2,0.1-0.4,0.2
		c-0.2,0.1-0.3,0.1-0.4,0.1c-0.2,0-0.5-0.1-0.7-0.2c-0.2-0.1-0.3-0.3-0.5-0.4c-0.1-0.2-0.2-0.4-0.2-0.6c0-0.2,0.1-0.5,0.2-0.6
		c0.1-0.2,0.2-0.3,0.4-0.4c0.2-0.1,0.4-0.2,0.6-0.2c0.2,0,0.4,0.1,0.6,0.2c0.2,0.1,0.3,0.2,0.4,0.4c0.1,0.2,0.1,0.4,0.1,0.6
		C191.7,81.6,191.7,81.6,191.7,81.7z M190.1,80.9c-0.1,0.1-0.2,0.3-0.3,0.5h1.5c0-0.2-0.1-0.4-0.2-0.5c-0.1-0.1-0.3-0.2-0.5-0.2
		C190.4,80.7,190.2,80.8,190.1,80.9z"/>
	<path class="st8" d="M192.3,81.7c0,0-0.1-0.1-0.1-0.2c0-0.1,0-0.1,0.1-0.2c0,0,0.1-0.1,0.1-0.1h0.8c0.1,0,0.1,0,0.1,0.1
		c0,0,0.1,0.1,0.1,0.2c0,0.1,0,0.1-0.1,0.2c0,0-0.1,0.1-0.1,0.1h-0.8C192.4,81.7,192.4,81.7,192.3,81.7z"/>
	<path class="st8" d="M196.4,79.4c0,0,0.1,0.1,0.1,0.2v2c0,0.2-0.1,0.4-0.2,0.6c-0.1,0.2-0.3,0.3-0.4,0.4c-0.2,0.1-0.4,0.2-0.6,0.2
		c-0.2,0-0.4-0.1-0.6-0.2c-0.2-0.1-0.3-0.3-0.4-0.4c-0.1-0.2-0.2-0.4-0.2-0.6s0-0.4,0.1-0.6c0.1-0.2,0.2-0.3,0.4-0.4
		c0.2-0.1,0.4-0.2,0.6-0.2c0.2,0,0.3,0,0.5,0.1c0.1,0.1,0.3,0.2,0.4,0.3v-1.2c0-0.1,0-0.1,0.1-0.2c0,0,0.1-0.1,0.2-0.1
		C196.3,79.3,196.3,79.3,196.4,79.4z M195.6,82.3c0.1-0.1,0.2-0.2,0.3-0.3c0.1-0.1,0.1-0.3,0.1-0.4c0-0.2,0-0.3-0.1-0.4
		c-0.1-0.1-0.2-0.2-0.3-0.3c-0.1-0.1-0.3-0.1-0.4-0.1c-0.1,0-0.3,0-0.4,0.1c-0.1,0.1-0.2,0.2-0.3,0.3c-0.1,0.1-0.1,0.3-0.1,0.4
		c0,0.2,0,0.3,0.1,0.4c0.1,0.1,0.2,0.2,0.3,0.3c0.1,0.1,0.3,0.1,0.4,0.1C195.4,82.4,195.5,82.4,195.6,82.3z"/>
	<g>
		<path class="st3" d="M180.4,83.6C180.4,83.6,180.4,83.6,180.4,83.6c0-0.1,0-0.1,0-0.1c0,0,0,0,0.1,0s0.1,0,0.1,0c0,0,0,0,0,0.1
			c0,0,0,0,0,0.1C180.5,83.7,180.5,83.7,180.4,83.6C180.5,83.7,180.4,83.7,180.4,83.6z M180.4,84.7v-0.9c0,0,0,0,0,0h0.1
			c0,0,0,0,0,0v0.9c0,0,0,0,0,0L180.4,84.7C180.4,84.7,180.4,84.7,180.4,84.7z"/>
		<path class="st3" d="M181.3,84.6C181.4,84.6,181.4,84.5,181.3,84.6c0.1-0.1,0.1-0.1,0.1-0.1c0,0,0,0,0,0l0.1,0c0,0,0,0,0,0
			C181.5,84.6,181.4,84.7,181.3,84.6c0,0.1-0.1,0.1-0.1,0.1c-0.1,0-0.2,0-0.2-0.1c-0.1,0-0.1-0.1-0.1-0.2c0-0.1,0-0.1,0-0.2
			c0-0.1,0-0.1,0-0.1c0,0,0-0.1,0-0.1c0-0.1,0.1-0.1,0.1-0.2c0.1,0,0.1-0.1,0.2-0.1c0.1,0,0.2,0,0.2,0.1c0.1,0.1,0.1,0.1,0.1,0.2
			c0,0,0,0.1,0,0.2c0,0,0,0,0,0H181c0,0,0,0,0,0c0,0.1,0,0.1,0,0.1c0,0.1,0,0.1,0.1,0.1c0,0,0.1,0,0.2,0
			C181.2,84.6,181.3,84.6,181.3,84.6z M181,84c0,0-0.1,0.1-0.1,0.1c0,0,0,0.1,0,0.1c0,0,0,0,0,0h0.5c0,0,0,0,0,0c0-0.1,0-0.1,0-0.1
			c0-0.1,0-0.1-0.1-0.1c0,0-0.1,0-0.2,0C181.1,83.9,181.1,83.9,181,84z"/>
		<path class="st3" d="M182.4,83.5L182.4,83.5c0.1,0,0.1,0,0.1,0v1.2c0,0,0,0,0,0h-0.1c0,0,0,0,0,0v-0.1c0,0,0,0,0,0c0,0,0,0,0,0
			c0,0-0.1,0.1-0.1,0.1c0,0-0.1,0-0.1,0c-0.1,0-0.2,0-0.2-0.1c-0.1,0-0.1-0.1-0.1-0.2c0-0.1,0-0.1,0-0.2c0-0.1,0-0.2,0-0.2
			c0-0.1,0.1-0.1,0.1-0.2c0.1,0,0.1-0.1,0.2-0.1c0,0,0.1,0,0.1,0c0,0,0.1,0,0.1,0.1c0,0,0,0,0,0c0,0,0,0,0,0L182.4,83.5
			C182.3,83.5,182.4,83.5,182.4,83.5z M182.3,84.4c0,0,0-0.1,0-0.1s0-0.1,0-0.1c0,0,0-0.1,0-0.1c0,0,0-0.1-0.1-0.1c0,0-0.1,0-0.1,0
			c0,0-0.1,0-0.1,0c0,0-0.1,0.1-0.1,0.1c0,0,0,0.1,0,0.1c0,0,0,0.1,0,0.1c0,0.1,0,0.1,0,0.1c0,0,0,0.1,0,0.1c0,0,0,0.1,0.1,0.1
			c0,0,0.1,0,0.1,0c0,0,0.1,0,0.1,0C182.3,84.6,182.3,84.5,182.3,84.4C182.3,84.5,182.3,84.4,182.3,84.4z"/>
		<path class="st3" d="M183.2,84.6C183.3,84.6,183.3,84.5,183.2,84.6c0.1-0.1,0.1-0.1,0.1-0.1c0,0,0,0,0,0l0.1,0c0,0,0,0,0,0
			C183.4,84.6,183.4,84.7,183.2,84.6c0,0.1-0.1,0.1-0.1,0.1c-0.1,0-0.2,0-0.2-0.1c-0.1,0-0.1-0.1-0.1-0.2c0-0.1,0-0.1,0-0.2
			c0-0.1,0-0.1,0-0.1c0,0,0-0.1,0-0.1c0-0.1,0.1-0.1,0.1-0.2c0.1,0,0.1-0.1,0.2-0.1c0.1,0,0.2,0,0.2,0.1c0.1,0.1,0.1,0.1,0.1,0.2
			c0,0,0,0.1,0,0.2c0,0,0,0,0,0h-0.6c0,0,0,0,0,0c0,0.1,0,0.1,0,0.1c0,0.1,0,0.1,0.1,0.1c0,0,0.1,0,0.2,0
			C183.2,84.6,183.2,84.6,183.2,84.6z M182.9,84c0,0-0.1,0.1-0.1,0.1c0,0,0,0.1,0,0.1c0,0,0,0,0,0h0.5c0,0,0,0,0,0
			c0-0.1,0-0.1,0-0.1c0-0.1,0-0.1-0.1-0.1c0,0-0.1,0-0.2,0C183,83.9,183,83.9,182.9,84z"/>
		<path class="st3" d="M184.2,83.8C184.2,83.8,184.2,83.9,184.2,83.8l0,0.1c0,0,0,0,0,0c0,0-0.1,0-0.1,0c-0.1,0-0.1,0-0.2,0.1
			c0,0-0.1,0.1-0.1,0.2v0.5c0,0,0,0,0,0h-0.1c0,0,0,0,0,0v-0.9c0,0,0,0,0,0h0.1c0,0,0,0,0,0v0.1c0,0,0,0,0,0c0,0,0,0,0,0
			c0,0,0.1-0.1,0.1-0.1C184,83.8,184,83.8,184.2,83.8C184.1,83.8,184.1,83.8,184.2,83.8z"/>
		<path class="st3" d="M184.8,84.6C184.9,84.6,184.9,84.5,184.8,84.6c0.1-0.1,0.1-0.1,0.1-0.1c0,0,0,0,0,0l0.1,0c0,0,0,0,0,0
			C185,84.6,184.9,84.7,184.8,84.6c0,0.1-0.1,0.1-0.1,0.1c-0.1,0-0.2,0-0.2-0.1c-0.1,0-0.1-0.1-0.1-0.2c0-0.1,0-0.1,0-0.2
			c0-0.1,0-0.1,0-0.1c0,0,0-0.1,0-0.1c0-0.1,0.1-0.1,0.1-0.2c0.1,0,0.1-0.1,0.2-0.1c0.1,0,0.2,0,0.2,0.1c0.1,0.1,0.1,0.1,0.1,0.2
			c0,0,0,0.1,0,0.2c0,0,0,0,0,0h-0.6c0,0,0,0,0,0c0,0.1,0,0.1,0,0.1c0,0.1,0,0.1,0.1,0.1c0,0,0.1,0,0.2,0
			C184.8,84.6,184.8,84.6,184.8,84.6z M184.5,84c0,0-0.1,0.1-0.1,0.1c0,0,0,0.1,0,0.1c0,0,0,0,0,0h0.5c0,0,0,0,0,0
			c0-0.1,0-0.1,0-0.1c0-0.1,0-0.1-0.1-0.1c0,0-0.1,0-0.2,0C184.6,83.9,184.6,83.9,184.5,84z"/>
		<path class="st3" d="M185.8,84.6C185.8,84.6,185.9,84.5,185.8,84.6c0.1-0.1,0.1-0.1,0.1-0.1c0,0,0,0,0,0l0.1,0c0,0,0,0,0,0
			C185.9,84.6,185.9,84.7,185.8,84.6c0,0.1-0.1,0.1-0.1,0.1c-0.1,0-0.2,0-0.2-0.1c-0.1,0-0.1-0.1-0.1-0.2c0-0.1,0-0.1,0-0.2
			c0-0.1,0-0.1,0-0.1c0,0,0-0.1,0-0.1c0-0.1,0.1-0.1,0.1-0.2c0.1,0,0.1-0.1,0.2-0.1c0.1,0,0.2,0,0.2,0.1c0.1,0.1,0.1,0.1,0.1,0.2
			c0,0,0,0.1,0,0.2c0,0,0,0,0,0h-0.6c0,0,0,0,0,0c0,0.1,0,0.1,0,0.1c0,0.1,0,0.1,0.1,0.1c0,0,0.1,0,0.2,0
			C185.7,84.6,185.8,84.6,185.8,84.6z M185.5,84c0,0-0.1,0.1-0.1,0.1c0,0,0,0.1,0,0.1c0,0,0,0,0,0h0.5c0,0,0,0,0,0
			c0-0.1,0-0.1,0-0.1c0-0.1,0-0.1-0.1-0.1c0,0-0.1,0-0.2,0C185.6,83.9,185.5,83.9,185.5,84z"/>
		<path class="st3" d="M186.8,83.9c0.1,0.1,0.1,0.1,0.1,0.2v0.6c0,0,0,0,0,0h-0.1c0,0,0,0,0,0v-0.6c0-0.1,0-0.1-0.1-0.2
			c0,0-0.1-0.1-0.2-0.1c-0.1,0-0.1,0-0.2,0.1c0,0-0.1,0.1-0.1,0.1v0.6c0,0,0,0,0,0h-0.1c0,0,0,0,0,0v-0.9c0,0,0,0,0,0h0.1
			c0,0,0,0,0,0v0.1c0,0,0,0,0,0c0,0,0,0,0,0c0.1-0.1,0.1-0.1,0.2-0.1C186.7,83.8,186.8,83.8,186.8,83.9z"/>
		<path class="st3" d="M187.6,83.6C187.6,83.6,187.5,83.6,187.6,83.6c0-0.1,0-0.1,0-0.1c0,0,0,0,0.1,0s0.1,0,0.1,0c0,0,0,0,0,0.1
			c0,0,0,0,0,0.1C187.7,83.7,187.7,83.7,187.6,83.6C187.6,83.7,187.6,83.7,187.6,83.6z M187.6,84.7v-0.9c0,0,0,0,0,0h0.1
			c0,0,0,0,0,0v0.9c0,0,0,0,0,0L187.6,84.7C187.6,84.7,187.6,84.7,187.6,84.7z"/>
		<path class="st3" d="M188.6,83.9c0.1,0.1,0.1,0.1,0.1,0.2v0.6c0,0,0,0,0,0h-0.1c0,0,0,0,0,0v-0.6c0-0.1,0-0.1-0.1-0.2
			c0,0-0.1-0.1-0.2-0.1c-0.1,0-0.1,0-0.2,0.1c0,0-0.1,0.1-0.1,0.1v0.6c0,0,0,0,0,0H188c0,0,0,0,0,0v-0.9c0,0,0,0,0,0h0.1
			c0,0,0,0,0,0v0.1c0,0,0,0,0,0c0,0,0,0,0,0c0.1-0.1,0.1-0.1,0.2-0.1C188.5,83.8,188.5,83.8,188.6,83.9z"/>
		<path class="st3" d="M190,84.3c0,0.1,0,0.2,0,0.2c0,0.1-0.1,0.1-0.1,0.2c-0.1,0-0.1,0.1-0.2,0.1c0,0-0.1,0-0.1,0
			c0,0-0.1,0-0.1-0.1c0,0,0,0,0,0c0,0,0,0,0,0v0.1c0,0,0,0,0,0h-0.1c0,0,0,0,0,0v-1.2c0,0,0,0,0,0h0.1c0,0,0,0,0,0v0.4c0,0,0,0,0,0
			c0,0,0,0,0,0c0,0,0.1-0.1,0.1-0.1c0,0,0.1,0,0.1,0c0.1,0,0.2,0,0.2,0.1c0.1,0,0.1,0.1,0.1,0.2C190,84.1,190,84.2,190,84.3z
			 M189.9,84.4c0,0,0-0.1,0-0.1c0-0.1,0-0.1,0-0.1c0,0,0-0.1,0-0.1c0,0,0-0.1-0.1-0.1c0,0-0.1,0-0.1,0c0,0-0.1,0-0.1,0
			c0,0-0.1,0.1-0.1,0.1c0,0,0,0.1,0,0.1c0,0,0,0.1,0,0.1s0,0.1,0,0.1c0,0,0,0.1,0,0.1c0,0,0,0.1,0.1,0.1c0,0,0.1,0,0.1,0
			c0,0,0.1,0,0.1,0C189.8,84.6,189.9,84.5,189.9,84.4C189.9,84.5,189.9,84.4,189.9,84.4z"/>
		<path class="st3" d="M190.8,84.6C190.8,84.6,190.8,84.5,190.8,84.6c0.1-0.1,0.1-0.1,0.1-0.1c0,0,0,0,0,0l0.1,0c0,0,0,0,0,0
			C190.9,84.6,190.9,84.7,190.8,84.6c0,0.1-0.1,0.1-0.1,0.1c-0.1,0-0.2,0-0.2-0.1c-0.1,0-0.1-0.1-0.1-0.2c0-0.1,0-0.1,0-0.2
			c0-0.1,0-0.1,0-0.1c0,0,0-0.1,0-0.1c0-0.1,0.1-0.1,0.1-0.2c0.1,0,0.1-0.1,0.2-0.1c0.1,0,0.2,0,0.2,0.1c0.1,0.1,0.1,0.1,0.1,0.2
			c0,0,0,0.1,0,0.2c0,0,0,0,0,0h-0.6c0,0,0,0,0,0c0,0.1,0,0.1,0,0.1c0,0.1,0,0.1,0.1,0.1c0,0,0.1,0,0.2,0
			C190.7,84.6,190.7,84.6,190.8,84.6z M190.5,84c0,0-0.1,0.1-0.1,0.1c0,0,0,0.1,0,0.1c0,0,0,0,0,0h0.5c0,0,0,0,0,0
			c0-0.1,0-0.1,0-0.1c0-0.1,0-0.1-0.1-0.1c0,0-0.1,0-0.2,0C190.6,83.9,190.5,83.9,190.5,84z"/>
		<path class="st3" d="M191.4,84.7l-0.2-0.9c0,0,0,0,0,0c0,0,0,0,0,0c0,0,0,0,0,0h0.1c0,0,0,0,0,0l0.2,0.7c0,0,0,0,0,0c0,0,0,0,0,0
			l0.2-0.7c0,0,0,0,0,0h0.1c0,0,0,0,0,0l0.2,0.7c0,0,0,0,0,0c0,0,0,0,0,0l0.2-0.7c0,0,0,0,0,0l0.1,0c0,0,0,0,0,0c0,0,0,0,0,0
			l-0.3,0.9c0,0,0,0,0,0h-0.1c0,0,0,0,0,0l-0.2-0.7c0,0,0,0,0,0c0,0,0,0,0,0l-0.2,0.7c0,0,0,0,0,0L191.4,84.7
			C191.4,84.7,191.4,84.7,191.4,84.7z"/>
		<path class="st3" d="M193,84.6C193,84.6,193,84.5,193,84.6c0.1-0.1,0.1-0.1,0.1-0.1c0,0,0,0,0,0l0.1,0c0,0,0,0,0,0
			C193.1,84.6,193.1,84.7,193,84.6c0,0.1-0.1,0.1-0.1,0.1c-0.1,0-0.2,0-0.2-0.1c-0.1,0-0.1-0.1-0.1-0.2c0-0.1,0-0.1,0-0.2
			c0-0.1,0-0.1,0-0.1c0,0,0-0.1,0-0.1c0-0.1,0.1-0.1,0.1-0.2c0.1,0,0.1-0.1,0.2-0.1c0.1,0,0.2,0,0.2,0.1c0.1,0.1,0.1,0.1,0.1,0.2
			c0,0,0,0.1,0,0.2c0,0,0,0,0,0h-0.6c0,0,0,0,0,0c0,0.1,0,0.1,0,0.1c0,0.1,0,0.1,0.1,0.1c0,0,0.1,0,0.2,0
			C192.9,84.6,192.9,84.6,193,84.6z M192.6,84c0,0-0.1,0.1-0.1,0.1c0,0,0,0.1,0,0.1c0,0,0,0,0,0h0.5c0,0,0,0,0,0c0-0.1,0-0.1,0-0.1
			c0-0.1,0-0.1-0.1-0.1c0,0-0.1,0-0.2,0C192.7,83.9,192.7,83.9,192.6,84z"/>
		<path class="st3" d="M194,83.8L194,83.8c0.1,0,0.1,0,0.1,0v0.8c0,0.1,0,0.2-0.1,0.3c-0.1,0.1-0.2,0.1-0.3,0.1c0,0,0,0-0.1,0
			c0,0,0,0,0,0l0-0.1c0,0,0,0,0,0c0.1,0,0.2,0,0.3-0.1c0.1,0,0.1-0.1,0.1-0.2v-0.1c0,0,0,0,0,0c0,0,0,0,0,0
			c-0.1,0.1-0.1,0.1-0.2,0.1c-0.1,0-0.1,0-0.2-0.1c-0.1,0-0.1-0.1-0.1-0.2c0,0,0-0.1,0-0.2c0-0.1,0-0.1,0-0.1c0,0,0-0.1,0-0.1
			c0-0.1,0.1-0.1,0.1-0.2c0.1,0,0.1-0.1,0.2-0.1C193.8,83.8,193.9,83.8,194,83.8C194,83.9,194,83.9,194,83.8
			C194,83.9,194,83.9,194,83.8L194,83.8C194,83.8,194,83.8,194,83.8z M194,84.4c0,0,0-0.1,0-0.1c0-0.1,0-0.1,0-0.1c0,0,0,0,0-0.1
			c0,0,0-0.1-0.1-0.1c0,0-0.1,0-0.1,0c-0.1,0-0.1,0-0.1,0c0,0-0.1,0.1-0.1,0.1c0,0,0,0.1,0,0.2c0,0.1,0,0.1,0,0.2c0,0,0,0.1,0.1,0.1
			c0,0,0.1,0,0.1,0c0.1,0,0.1,0,0.1,0C193.9,84.5,193.9,84.5,194,84.4C194,84.4,194,84.4,194,84.4z"/>
		<path class="st3" d="M194.4,83.6C194.4,83.6,194.3,83.6,194.4,83.6c0-0.1,0-0.1,0-0.1c0,0,0,0,0.1,0c0,0,0.1,0,0.1,0
			c0,0,0,0,0,0.1c0,0,0,0,0,0.1C194.5,83.7,194.5,83.7,194.4,83.6C194.4,83.7,194.4,83.7,194.4,83.6z M194.4,84.7v-0.9c0,0,0,0,0,0
			h0.1c0,0,0,0,0,0v0.9c0,0,0,0,0,0L194.4,84.7C194.4,84.7,194.4,84.7,194.4,84.7z"/>
		<path class="st3" d="M195.4,83.9c0.1,0.1,0.1,0.1,0.1,0.2v0.6c0,0,0,0,0,0h-0.1c0,0,0,0,0,0v-0.6c0-0.1,0-0.1-0.1-0.2
			c0,0-0.1-0.1-0.2-0.1c-0.1,0-0.1,0-0.2,0.1c0,0-0.1,0.1-0.1,0.1v0.6c0,0,0,0,0,0h-0.1c0,0,0,0,0,0v-0.9c0,0,0,0,0,0h0.1
			c0,0,0,0,0,0v0.1c0,0,0,0,0,0c0,0,0,0,0,0c0.1-0.1,0.1-0.1,0.2-0.1C195.3,83.8,195.3,83.8,195.4,83.9z"/>
		<path class="st3" d="M196.3,83.8L196.3,83.8c0.1,0,0.1,0,0.1,0v0.8c0,0.1,0,0.2-0.1,0.3c-0.1,0.1-0.2,0.1-0.3,0.1c0,0,0,0-0.1,0
			c0,0,0,0,0,0l0-0.1c0,0,0,0,0,0c0.1,0,0.2,0,0.3-0.1c0.1,0,0.1-0.1,0.1-0.2v-0.1c0,0,0,0,0,0c0,0,0,0,0,0
			c-0.1,0.1-0.1,0.1-0.2,0.1c-0.1,0-0.1,0-0.2-0.1c-0.1,0-0.1-0.1-0.1-0.2c0,0,0-0.1,0-0.2c0-0.1,0-0.1,0-0.1c0,0,0-0.1,0-0.1
			c0-0.1,0.1-0.1,0.1-0.2c0.1,0,0.1-0.1,0.2-0.1C196.2,83.8,196.2,83.8,196.3,83.8C196.3,83.9,196.3,83.9,196.3,83.8
			C196.3,83.9,196.3,83.9,196.3,83.8L196.3,83.8C196.3,83.8,196.3,83.8,196.3,83.8z M196.3,84.4c0,0,0-0.1,0-0.1c0-0.1,0-0.1,0-0.1
			c0,0,0,0,0-0.1c0,0,0-0.1-0.1-0.1c0,0-0.1,0-0.1,0c-0.1,0-0.1,0-0.1,0c0,0-0.1,0.1-0.1,0.1c0,0,0,0.1,0,0.2c0,0.1,0,0.1,0,0.2
			c0,0,0,0.1,0.1,0.1c0,0,0.1,0,0.1,0c0.1,0,0.1,0,0.1,0C196.3,84.5,196.3,84.5,196.3,84.4C196.3,84.4,196.3,84.4,196.3,84.4z"/>
	</g>
</g>
<g id="Layer_7" class="st0">
	<path class="st9" d="M340,104.9l6.6-6.6L333.4,85l-6.6,6.6c-3.7,3.7-3.7,9.6,0,13.3v0C330.4,108.6,336.4,108.6,340,104.9z"/>
	<path class="st9" d="M348,97l13.3-13.3l-6.7-6.7c-3.6-3.6-9.5-3.6-13.1,0l-6.7,6.7L348,97z"/>
	<path class="st10" d="M369.2,104.9l6.6-6.6L362.6,85l-13.3,13.3l6.6,6.6C359.6,108.6,365.6,108.6,369.2,104.9z"/>
	<path class="st10" d="M377.2,97l13.3-13.3l-6.6-6.6c-3.7-3.7-9.6-3.7-13.3,0l-6.6,6.6L377.2,97z"/>
	<path class="st9" d="M398.4,104.9L398.4,104.9c3.7-3.7,3.7-9.6,0-13.3l-6.6-6.6l-13.3,13.3l6.6,6.6
		C388.8,108.6,394.8,108.6,398.4,104.9z"/>
	<path class="st11" d="M339.2,117.5c0.8,0.8,1.1,2,1.1,3.4v6.1c0,0.3-0.1,0.6-0.3,0.8c-0.2,0.2-0.5,0.3-0.8,0.3
		c-0.3,0-0.6-0.1-0.8-0.3c-0.2-0.2-0.3-0.5-0.3-0.8v-6.1c0-0.9-0.2-1.5-0.7-2c-0.4-0.5-1-0.7-1.7-0.7c-0.7,0-1.4,0.3-1.8,0.8
		c-0.5,0.5-0.7,1.2-0.7,2v6c0,0.3-0.1,0.6-0.3,0.8c-0.2,0.2-0.5,0.3-0.8,0.3c-0.3,0-0.6-0.1-0.8-0.3c-0.2-0.2-0.3-0.5-0.3-0.8v-6.1
		c0-0.9-0.2-1.5-0.7-2c-0.4-0.5-1-0.7-1.7-0.7c-0.8,0-1.4,0.3-1.9,0.8c-0.5,0.5-0.7,1.2-0.7,2v6c0,0.3-0.1,0.6-0.3,0.8
		c-0.2,0.2-0.5,0.3-0.8,0.3c-0.3,0-0.6-0.1-0.8-0.3c-0.2-0.2-0.3-0.5-0.3-0.8v-9.5c0-0.3,0.1-0.6,0.3-0.8c0.2-0.2,0.5-0.3,0.8-0.3
		c0.3,0,0.6,0.1,0.8,0.3c0.2,0.2,0.3,0.4,0.3,0.8c0.4-0.4,0.8-0.7,1.3-0.9c0.5-0.2,1.1-0.3,1.7-0.3c0.7,0,1.4,0.1,2,0.4
		c0.6,0.3,1.1,0.7,1.4,1.3c0.4-0.5,1-0.9,1.6-1.2c0.6-0.3,1.4-0.5,2.1-0.5C337.4,116.2,338.4,116.6,339.2,117.5z"/>
	<path class="st11" d="M345.2,127.6c-0.9-0.5-1.6-1.2-2.1-2.1c-0.5-0.9-0.8-1.9-0.8-3.1c0-1.2,0.2-2.2,0.8-3.1
		c0.5-0.9,1.2-1.6,2.1-2.1c0.9-0.5,1.9-0.8,3.1-0.8c1.1,0,2.1,0.3,3,0.8c0.9,0.5,1.6,1.2,2.1,2.1c0.5,0.9,0.8,1.9,0.8,3.1
		c0,1.1-0.3,2.2-0.8,3.1c-0.5,0.9-1.2,1.6-2.1,2.1c-0.9,0.5-1.9,0.8-3.1,0.8C347.2,128.3,346.1,128.1,345.2,127.6z M350.3,125.9
		c0.6-0.3,1-0.8,1.4-1.4c0.3-0.6,0.5-1.3,0.5-2.1c0-0.8-0.2-1.5-0.5-2.1c-0.3-0.6-0.8-1.1-1.4-1.4c-0.6-0.3-1.2-0.5-2-0.5
		s-1.4,0.2-2,0.5c-0.6,0.3-1,0.8-1.4,1.4c-0.3,0.6-0.5,1.3-0.5,2.1c0,0.8,0.2,1.5,0.5,2.1c0.3,0.6,0.8,1.1,1.4,1.4
		c0.6,0.3,1.2,0.5,2,0.5S349.7,126.2,350.3,125.9z"/>
	<path class="st11" d="M366.4,116.9c0.1,0.2,0.2,0.3,0.2,0.5c0,0.1,0,0.3-0.1,0.4l-4.6,9.8c-0.2,0.5-0.6,0.7-1,0.7
		c-0.2,0-0.5-0.1-0.6-0.2c-0.2-0.1-0.3-0.3-0.4-0.6l-4.6-9.8c-0.1-0.1-0.1-0.2-0.1-0.4c0-0.4,0.2-0.7,0.6-0.9
		c0.1-0.1,0.3-0.1,0.5-0.1s0.3,0,0.5,0.1c0.2,0.1,0.3,0.2,0.4,0.4l3.8,8.2l3.8-8.2c0.1-0.2,0.2-0.3,0.4-0.4c0.2-0.1,0.3-0.1,0.5-0.1
		c0.2,0,0.4,0,0.5,0.1C366.1,116.6,366.3,116.7,366.4,116.9z"/>
	<path class="st11" d="M378.2,122.9c-0.2,0.2-0.4,0.3-0.7,0.3h-8.1c0.2,1,0.6,1.8,1.4,2.4c0.8,0.6,1.7,0.9,2.8,0.9
		c0.4,0,0.9-0.1,1.3-0.2c0.5-0.2,0.8-0.3,1.1-0.6c0.2-0.2,0.4-0.2,0.7-0.2c0.3,0,0.5,0.1,0.6,0.2c0.3,0.2,0.4,0.5,0.4,0.7
		c0,0.3-0.1,0.5-0.3,0.6c-0.5,0.4-1.1,0.7-1.8,0.9c-0.7,0.2-1.4,0.4-2.1,0.4c-1.2,0-2.2-0.3-3.2-0.8c-0.9-0.5-1.7-1.2-2.2-2.1
		c-0.5-0.9-0.8-1.9-0.8-3.1c0-1.1,0.2-2.2,0.7-3.1c0.5-0.9,1.2-1.6,2.1-2.1c0.9-0.5,1.9-0.8,3-0.8c1.1,0,2.1,0.2,2.9,0.7
		c0.8,0.5,1.4,1.2,1.8,2c0.4,0.9,0.6,1.9,0.6,3C378.5,122.5,378.4,122.7,378.2,122.9z M370.6,119.1c-0.7,0.6-1.1,1.3-1.2,2.3h7.1
		c-0.1-1-0.5-1.7-1.1-2.3c-0.6-0.6-1.4-0.9-2.3-0.9C372.1,118.3,371.3,118.6,370.6,119.1z"/>
	<path class="st11" d="M381.3,122.9c-0.2-0.2-0.3-0.5-0.3-0.8c0-0.3,0.1-0.6,0.3-0.8c0.2-0.2,0.4-0.3,0.7-0.3h4
		c0.3,0,0.5,0.1,0.7,0.3c0.2,0.2,0.3,0.5,0.3,0.8c0,0.3-0.1,0.6-0.3,0.8c-0.2,0.2-0.4,0.3-0.7,0.3h-4
		C381.7,123.2,381.4,123.1,381.3,122.9z"/>
	<path class="st11" d="M400.8,111.8c0.2,0.2,0.3,0.5,0.3,0.8v9.8c0,1.1-0.3,2.1-0.8,3c-0.5,0.9-1.2,1.6-2.1,2.1
		c-0.9,0.5-1.9,0.8-3,0.8c-1.1,0-2.1-0.3-3-0.8c-0.9-0.5-1.6-1.2-2.1-2.1c-0.5-0.9-0.8-1.9-0.8-3s0.2-2.1,0.7-3
		c0.5-0.9,1.1-1.6,2-2.1c0.8-0.5,1.8-0.8,2.8-0.8c0.8,0,1.6,0.2,2.3,0.5c0.7,0.3,1.3,0.8,1.8,1.4v-5.8c0-0.3,0.1-0.6,0.3-0.8
		c0.2-0.2,0.5-0.3,0.8-0.3C400.3,111.5,400.6,111.6,400.8,111.8z M397.1,125.9c0.6-0.3,1-0.8,1.4-1.4c0.3-0.6,0.5-1.3,0.5-2.1
		c0-0.8-0.2-1.4-0.5-2c-0.3-0.6-0.8-1.1-1.4-1.4c-0.6-0.4-1.2-0.5-1.9-0.5c-0.7,0-1.4,0.2-1.9,0.5c-0.6,0.4-1,0.8-1.4,1.4
		c-0.3,0.6-0.5,1.3-0.5,2c0,0.8,0.2,1.4,0.5,2.1c0.3,0.6,0.8,1.1,1.4,1.4c0.6,0.4,1.2,0.5,1.9,0.5
		C395.9,126.4,396.5,126.2,397.1,125.9z"/>
	<path class="st11" d="M339.2,117.5c0.8,0.8,1.1,2,1.1,3.4v6.1c0,0.3-0.1,0.6-0.3,0.8c-0.2,0.2-0.5,0.3-0.8,0.3
		c-0.3,0-0.6-0.1-0.8-0.3c-0.2-0.2-0.3-0.5-0.3-0.8v-6.1c0-0.9-0.2-1.5-0.7-2c-0.4-0.5-1-0.7-1.7-0.7c-0.7,0-1.4,0.3-1.8,0.8
		c-0.5,0.5-0.7,1.2-0.7,2v6c0,0.3-0.1,0.6-0.3,0.8c-0.2,0.2-0.5,0.3-0.8,0.3c-0.3,0-0.6-0.1-0.8-0.3c-0.2-0.2-0.3-0.5-0.3-0.8v-6.1
		c0-0.9-0.2-1.5-0.7-2c-0.4-0.5-1-0.7-1.7-0.7c-0.8,0-1.4,0.3-1.9,0.8c-0.5,0.5-0.7,1.2-0.7,2v6c0,0.3-0.1,0.6-0.3,0.8
		c-0.2,0.2-0.5,0.3-0.8,0.3c-0.3,0-0.6-0.1-0.8-0.3c-0.2-0.2-0.3-0.5-0.3-0.8v-9.5c0-0.3,0.1-0.6,0.3-0.8c0.2-0.2,0.5-0.3,0.8-0.3
		c0.3,0,0.6,0.1,0.8,0.3c0.2,0.2,0.3,0.4,0.3,0.8c0.4-0.4,0.8-0.7,1.3-0.9c0.5-0.2,1.1-0.3,1.7-0.3c0.7,0,1.4,0.1,2,0.4
		c0.6,0.3,1.1,0.7,1.4,1.3c0.4-0.5,1-0.9,1.6-1.2c0.6-0.3,1.4-0.5,2.1-0.5C337.4,116.2,338.4,116.6,339.2,117.5z"/>
	<path class="st11" d="M345.2,127.6c-0.9-0.5-1.6-1.2-2.1-2.1c-0.5-0.9-0.8-1.9-0.8-3.1c0-1.2,0.2-2.2,0.8-3.1
		c0.5-0.9,1.2-1.6,2.1-2.1c0.9-0.5,1.9-0.8,3.1-0.8c1.1,0,2.1,0.3,3,0.8c0.9,0.5,1.6,1.2,2.1,2.1c0.5,0.9,0.8,1.9,0.8,3.1
		c0,1.1-0.3,2.2-0.8,3.1c-0.5,0.9-1.2,1.6-2.1,2.1c-0.9,0.5-1.9,0.8-3.1,0.8C347.2,128.3,346.1,128.1,345.2,127.6z M350.3,125.9
		c0.6-0.3,1-0.8,1.4-1.4c0.3-0.6,0.5-1.3,0.5-2.1c0-0.8-0.2-1.5-0.5-2.1c-0.3-0.6-0.8-1.1-1.4-1.4c-0.6-0.3-1.2-0.5-2-0.5
		s-1.4,0.2-2,0.5c-0.6,0.3-1,0.8-1.4,1.4c-0.3,0.6-0.5,1.3-0.5,2.1c0,0.8,0.2,1.5,0.5,2.1c0.3,0.6,0.8,1.1,1.4,1.4
		c0.6,0.3,1.2,0.5,2,0.5S349.7,126.2,350.3,125.9z"/>
	<path class="st11" d="M366.4,116.9c0.1,0.2,0.2,0.3,0.2,0.5c0,0.1,0,0.3-0.1,0.4l-4.6,9.8c-0.2,0.5-0.6,0.7-1,0.7
		c-0.2,0-0.5-0.1-0.6-0.2c-0.2-0.1-0.3-0.3-0.4-0.6l-4.6-9.8c-0.1-0.1-0.1-0.2-0.1-0.4c0-0.4,0.2-0.7,0.6-0.9
		c0.1-0.1,0.3-0.1,0.5-0.1s0.3,0,0.5,0.1c0.2,0.1,0.3,0.2,0.4,0.4l3.8,8.2l3.8-8.2c0.1-0.2,0.2-0.3,0.4-0.4c0.2-0.1,0.3-0.1,0.5-0.1
		c0.2,0,0.4,0,0.5,0.1C366.1,116.6,366.3,116.7,366.4,116.9z"/>
	<path class="st11" d="M378.2,122.9c-0.2,0.2-0.4,0.3-0.7,0.3h-8.1c0.2,1,0.6,1.8,1.4,2.4c0.8,0.6,1.7,0.9,2.8,0.9
		c0.4,0,0.9-0.1,1.3-0.2c0.5-0.2,0.8-0.3,1.1-0.6c0.2-0.2,0.4-0.2,0.7-0.2c0.3,0,0.5,0.1,0.6,0.2c0.3,0.2,0.4,0.5,0.4,0.7
		c0,0.3-0.1,0.5-0.3,0.6c-0.5,0.4-1.1,0.7-1.8,0.9c-0.7,0.2-1.4,0.4-2.1,0.4c-1.2,0-2.2-0.3-3.2-0.8c-0.9-0.5-1.7-1.2-2.2-2.1
		c-0.5-0.9-0.8-1.9-0.8-3.1c0-1.1,0.2-2.2,0.7-3.1c0.5-0.9,1.2-1.6,2.1-2.1c0.9-0.5,1.9-0.8,3-0.8c1.1,0,2.1,0.2,2.9,0.7
		c0.8,0.5,1.4,1.2,1.8,2c0.4,0.9,0.6,1.9,0.6,3C378.5,122.5,378.4,122.7,378.2,122.9z M370.6,119.1c-0.7,0.6-1.1,1.3-1.2,2.3h7.1
		c-0.1-1-0.5-1.7-1.1-2.3c-0.6-0.6-1.4-0.9-2.3-0.9C372.1,118.3,371.3,118.6,370.6,119.1z"/>
	<path class="st11" d="M381.3,122.9c-0.2-0.2-0.3-0.5-0.3-0.8c0-0.3,0.1-0.6,0.3-0.8c0.2-0.2,0.4-0.3,0.7-0.3h4
		c0.3,0,0.5,0.1,0.7,0.3c0.2,0.2,0.3,0.5,0.3,0.8c0,0.3-0.1,0.6-0.3,0.8c-0.2,0.2-0.4,0.3-0.7,0.3h-4
		C381.7,123.2,381.4,123.1,381.3,122.9z"/>
	<path class="st11" d="M400.8,111.8c0.2,0.2,0.3,0.5,0.3,0.8v9.8c0,1.1-0.3,2.1-0.8,3c-0.5,0.9-1.2,1.6-2.1,2.1
		c-0.9,0.5-1.9,0.8-3,0.8c-1.1,0-2.1-0.3-3-0.8c-0.9-0.5-1.6-1.2-2.1-2.1c-0.5-0.9-0.8-1.9-0.8-3s0.2-2.1,0.7-3
		c0.5-0.9,1.1-1.6,2-2.1c0.8-0.5,1.8-0.8,2.8-0.8c0.8,0,1.6,0.2,2.3,0.5c0.7,0.3,1.3,0.8,1.8,1.4v-5.8c0-0.3,0.1-0.6,0.3-0.8
		c0.2-0.2,0.5-0.3,0.8-0.3C400.3,111.5,400.6,111.6,400.8,111.8z M397.1,125.9c0.6-0.3,1-0.8,1.4-1.4c0.3-0.6,0.5-1.3,0.5-2.1
		c0-0.8-0.2-1.4-0.5-2c-0.3-0.6-0.8-1.1-1.4-1.4c-0.6-0.4-1.2-0.5-1.9-0.5c-0.7,0-1.4,0.2-1.9,0.5c-0.6,0.4-1,0.8-1.4,1.4
		c-0.3,0.6-0.5,1.3-0.5,2c0,0.8,0.2,1.4,0.5,2.1c0.3,0.6,0.8,1.1,1.4,1.4c0.6,0.4,1.2,0.5,1.9,0.5
		C395.9,126.4,396.5,126.2,397.1,125.9z"/>
	<g class="st1">
		<path class="st3" d="M324.1,132.3c-0.1-0.1-0.1-0.2-0.1-0.3c0-0.1,0-0.2,0.1-0.3c0.1-0.1,0.2-0.1,0.3-0.1s0.2,0,0.3,0.1
			c0.1,0.1,0.1,0.2,0.1,0.3c0,0.1,0,0.2-0.1,0.3c-0.1,0.1-0.2,0.1-0.3,0.1S324.2,132.4,324.1,132.3z M324.2,137.4v-4.1
			c0-0.1,0-0.1,0.1-0.1h0.4c0.1,0,0.1,0,0.1,0.1v4.1c0,0.1,0,0.1-0.1,0.1h-0.4C324.2,137.6,324.2,137.5,324.2,137.4z"/>
		<path class="st3" d="M328.5,136.9c0.2-0.1,0.3-0.3,0.4-0.5c0,0,0,0,0.1-0.1c0,0,0.1,0,0.1,0l0.2,0.1c0.1,0,0.1,0.1,0.1,0.1
			c-0.1,0.3-0.3,0.5-0.6,0.7s-0.6,0.3-1,0.3c-0.4,0-0.7-0.1-1-0.3c-0.3-0.2-0.5-0.5-0.6-0.8c-0.1-0.3-0.2-0.7-0.2-1.2
			c0-0.2,0-0.4,0-0.6c0-0.1,0-0.3,0.1-0.4c0.1-0.4,0.3-0.7,0.6-0.9c0.3-0.2,0.6-0.3,1.1-0.3c0.5,0,0.9,0.1,1.2,0.4
			c0.3,0.3,0.5,0.6,0.5,1.1c0,0.2,0.1,0.5,0.1,0.9c0,0.1,0,0.1-0.1,0.1h-2.7c0,0,0,0,0,0c0,0.3,0,0.5,0.1,0.6
			c0.1,0.3,0.2,0.5,0.4,0.6c0.2,0.2,0.5,0.2,0.8,0.2C328.1,137.1,328.3,137,328.5,136.9z M327.1,133.9c-0.2,0.1-0.3,0.3-0.4,0.6
			c0,0.1-0.1,0.3-0.1,0.6c0,0,0,0,0,0h2.2c0,0,0,0,0,0c0-0.3,0-0.4-0.1-0.5c-0.1-0.3-0.2-0.5-0.4-0.6c-0.2-0.2-0.4-0.2-0.7-0.2
			C327.5,133.7,327.3,133.8,327.1,133.9z"/>
		<path class="st3" d="M333.5,131.6h0.4c0.1,0,0.1,0,0.1,0.1v5.8c0,0.1,0,0.1-0.1,0.1h-0.4c-0.1,0-0.1,0-0.1-0.1v-0.3c0,0,0,0,0,0
			c0,0,0,0,0,0c-0.1,0.2-0.3,0.3-0.5,0.4c-0.2,0.1-0.4,0.1-0.6,0.1c-0.4,0-0.7-0.1-1-0.3c-0.3-0.2-0.5-0.5-0.6-0.8
			c-0.1-0.3-0.1-0.6-0.1-1.1c0-0.5,0-0.8,0.1-1.1c0.1-0.4,0.3-0.7,0.6-0.9c0.3-0.2,0.6-0.3,1-0.3c0.2,0,0.4,0,0.6,0.1
			c0.2,0.1,0.3,0.2,0.5,0.4c0,0,0,0,0,0c0,0,0,0,0,0v-2C333.4,131.6,333.4,131.6,333.5,131.6z M333.4,136c0-0.2,0-0.4,0-0.6
			s0-0.5,0-0.6c0-0.2-0.1-0.3-0.1-0.4c-0.1-0.2-0.2-0.3-0.3-0.5c-0.2-0.1-0.3-0.2-0.6-0.2c-0.2,0-0.4,0.1-0.6,0.2
			c-0.2,0.1-0.3,0.3-0.4,0.5c-0.1,0.1-0.1,0.3-0.1,0.4c0,0.2,0,0.4,0,0.7c0,0.3,0,0.5,0,0.6c0,0.2,0.1,0.3,0.1,0.4
			c0.1,0.2,0.2,0.4,0.4,0.5c0.2,0.1,0.4,0.2,0.6,0.2c0.2,0,0.4-0.1,0.6-0.2c0.2-0.1,0.3-0.3,0.3-0.5
			C333.3,136.3,333.3,136.2,333.4,136z"/>
		<path class="st3" d="M337.7,136.9c0.2-0.1,0.3-0.3,0.4-0.5c0,0,0,0,0.1-0.1c0,0,0.1,0,0.1,0l0.2,0.1c0.1,0,0.1,0.1,0.1,0.1
			c-0.1,0.3-0.3,0.5-0.6,0.7s-0.6,0.3-1,0.3c-0.4,0-0.7-0.1-1-0.3s-0.5-0.5-0.6-0.8c-0.1-0.3-0.2-0.7-0.2-1.2c0-0.2,0-0.4,0-0.6
			c0-0.1,0-0.3,0.1-0.4c0.1-0.4,0.3-0.7,0.6-0.9c0.3-0.2,0.6-0.3,1.1-0.3c0.5,0,0.9,0.1,1.2,0.4c0.3,0.3,0.5,0.6,0.5,1.1
			c0,0.2,0.1,0.5,0.1,0.9c0,0.1,0,0.1-0.1,0.1h-2.7c0,0,0,0,0,0c0,0.3,0,0.5,0.1,0.6c0.1,0.3,0.2,0.5,0.4,0.6
			c0.2,0.2,0.5,0.2,0.8,0.2C337.3,137.1,337.5,137,337.7,136.9z M336.3,133.9c-0.2,0.1-0.3,0.3-0.4,0.6c0,0.1-0.1,0.3-0.1,0.6
			c0,0,0,0,0,0h2.2c0,0,0,0,0,0c0-0.3,0-0.4-0.1-0.5c-0.1-0.3-0.2-0.5-0.4-0.6c-0.2-0.2-0.4-0.2-0.7-0.2
			C336.7,133.7,336.5,133.8,336.3,133.9z"/>
		<path class="st3" d="M342.2,133.3c0.1,0,0.1,0.1,0.1,0.1l-0.1,0.4c0,0.1-0.1,0.1-0.1,0.1c-0.1,0-0.2,0-0.4,0
			c-0.3,0-0.5,0.1-0.7,0.3c-0.2,0.2-0.3,0.5-0.3,0.8v2.5c0,0.1,0,0.1-0.1,0.1h-0.4c-0.1,0-0.1,0-0.1-0.1v-4.1c0-0.1,0-0.1,0.1-0.1
			h0.4c0.1,0,0.1,0,0.1,0.1v0.5c0,0,0,0,0,0c0,0,0,0,0,0c0.1-0.2,0.3-0.4,0.5-0.5c0.2-0.1,0.4-0.2,0.6-0.2
			C341.9,133.2,342,133.2,342.2,133.3z"/>
		<path class="st3" d="M345.4,136.9c0.2-0.1,0.3-0.3,0.4-0.5c0,0,0,0,0.1-0.1c0,0,0.1,0,0.1,0l0.2,0.1c0.1,0,0.1,0.1,0.1,0.1
			c-0.1,0.3-0.3,0.5-0.6,0.7s-0.6,0.3-1,0.3c-0.4,0-0.7-0.1-1-0.3s-0.5-0.5-0.6-0.8c-0.1-0.3-0.2-0.7-0.2-1.2c0-0.2,0-0.4,0-0.6
			c0-0.1,0-0.3,0.1-0.4c0.1-0.4,0.3-0.7,0.6-0.9c0.3-0.2,0.6-0.3,1.1-0.3c0.5,0,0.9,0.1,1.2,0.4c0.3,0.3,0.5,0.6,0.5,1.1
			c0,0.2,0.1,0.5,0.1,0.9c0,0.1,0,0.1-0.1,0.1h-2.7c0,0,0,0,0,0c0,0.3,0,0.5,0.1,0.6c0.1,0.3,0.2,0.5,0.4,0.6
			c0.2,0.2,0.5,0.2,0.8,0.2C345,137.1,345.2,137,345.4,136.9z M343.9,133.9c-0.2,0.1-0.3,0.3-0.4,0.6c0,0.1-0.1,0.3-0.1,0.6
			c0,0,0,0,0,0h2.2c0,0,0,0,0,0c0-0.3,0-0.4-0.1-0.5c-0.1-0.3-0.2-0.5-0.4-0.6c-0.2-0.2-0.4-0.2-0.7-0.2
			C344.3,133.7,344.1,133.8,343.9,133.9z"/>
		<path class="st3" d="M349.9,136.9c0.2-0.1,0.3-0.3,0.4-0.5c0,0,0,0,0.1-0.1c0,0,0.1,0,0.1,0l0.2,0.1c0.1,0,0.1,0.1,0.1,0.1
			c-0.1,0.3-0.3,0.5-0.6,0.7s-0.6,0.3-1,0.3c-0.4,0-0.7-0.1-1-0.3s-0.5-0.5-0.6-0.8c-0.1-0.3-0.2-0.7-0.2-1.2c0-0.2,0-0.4,0-0.6
			c0-0.1,0-0.3,0.1-0.4c0.1-0.4,0.3-0.7,0.6-0.9c0.3-0.2,0.6-0.3,1.1-0.3c0.5,0,0.9,0.1,1.2,0.4c0.3,0.3,0.5,0.6,0.5,1.1
			c0,0.2,0.1,0.5,0.1,0.9c0,0.1,0,0.1-0.1,0.1h-2.7c0,0,0,0,0,0c0,0.3,0,0.5,0.1,0.6c0.1,0.3,0.2,0.5,0.4,0.6
			c0.2,0.2,0.5,0.2,0.8,0.2C349.5,137.1,349.7,137,349.9,136.9z M348.5,133.9c-0.2,0.1-0.3,0.3-0.4,0.6c0,0.1-0.1,0.3-0.1,0.6
			c0,0,0,0,0,0h2.2c0,0,0,0,0,0c0-0.3,0-0.4-0.1-0.5c-0.1-0.3-0.2-0.5-0.4-0.6c-0.2-0.2-0.4-0.2-0.7-0.2
			C348.9,133.7,348.7,133.8,348.5,133.9z"/>
		<path class="st3" d="M355,133.6c0.3,0.3,0.4,0.6,0.4,1.1v2.8c0,0.1,0,0.1-0.1,0.1h-0.4c-0.1,0-0.1,0-0.1-0.1v-2.7
			c0-0.3-0.1-0.6-0.3-0.8c-0.2-0.2-0.4-0.3-0.7-0.3c-0.3,0-0.5,0.1-0.7,0.2c-0.2,0.2-0.3,0.4-0.3,0.6v2.8c0,0.1,0,0.1-0.1,0.1h-0.4
			c-0.1,0-0.1,0-0.1-0.1v-4.1c0-0.1,0-0.1,0.1-0.1h0.4c0.1,0,0.1,0,0.1,0.1v0.3c0,0,0,0,0,0c0,0,0,0,0,0c0.3-0.3,0.6-0.5,1.1-0.5
			C354.4,133.2,354.7,133.3,355,133.6z"/>
		<path class="st3" d="M358.5,132.3c-0.1-0.1-0.1-0.2-0.1-0.3c0-0.1,0-0.2,0.1-0.3c0.1-0.1,0.2-0.1,0.3-0.1s0.2,0,0.3,0.1
			c0.1,0.1,0.1,0.2,0.1,0.3c0,0.1,0,0.2-0.1,0.3c-0.1,0.1-0.2,0.1-0.3,0.1S358.6,132.4,358.5,132.3z M358.5,137.4v-4.1
			c0-0.1,0-0.1,0.1-0.1h0.4c0.1,0,0.1,0,0.1,0.1v4.1c0,0.1,0,0.1-0.1,0.1h-0.4C358.6,137.6,358.5,137.5,358.5,137.4z"/>
		<path class="st3" d="M363.4,133.6c0.3,0.3,0.4,0.6,0.4,1.1v2.8c0,0.1,0,0.1-0.1,0.1h-0.4c-0.1,0-0.1,0-0.1-0.1v-2.7
			c0-0.3-0.1-0.6-0.3-0.8c-0.2-0.2-0.4-0.3-0.7-0.3c-0.3,0-0.5,0.1-0.7,0.2c-0.2,0.2-0.3,0.4-0.3,0.6v2.8c0,0.1,0,0.1-0.1,0.1h-0.4
			c-0.1,0-0.1,0-0.1-0.1v-4.1c0-0.1,0-0.1,0.1-0.1h0.4c0.1,0,0.1,0,0.1,0.1v0.3c0,0,0,0,0,0c0,0,0,0,0,0c0.3-0.3,0.6-0.5,1.1-0.5
			C362.8,133.2,363.2,133.3,363.4,133.6z"/>
		<path class="st3" d="M370.3,135.4c0,0.5,0,0.8-0.1,1.1c-0.1,0.4-0.3,0.6-0.6,0.8c-0.3,0.2-0.6,0.3-1,0.3c-0.2,0-0.4,0-0.6-0.1
			c-0.2-0.1-0.3-0.2-0.5-0.4c0,0,0,0,0,0c0,0,0,0,0,0v0.3c0,0.1,0,0.1-0.1,0.1H367c-0.1,0-0.1,0-0.1-0.1v-5.8c0-0.1,0-0.1,0.1-0.1
			h0.4c0.1,0,0.1,0,0.1,0.1v2c0,0,0,0,0,0c0,0,0,0,0,0c0.1-0.2,0.3-0.3,0.5-0.4c0.2-0.1,0.4-0.1,0.6-0.1c0.4,0,0.7,0.1,1,0.3
			c0.3,0.2,0.5,0.5,0.6,0.9C370.3,134.6,370.3,134.9,370.3,135.4z M369.7,136c0-0.2,0-0.4,0-0.6c0-0.3,0-0.5,0-0.7
			c0-0.2-0.1-0.3-0.1-0.4c-0.1-0.2-0.2-0.3-0.4-0.5c-0.2-0.1-0.4-0.2-0.6-0.2c-0.2,0-0.4,0.1-0.6,0.2c-0.2,0.1-0.3,0.3-0.3,0.5
			c-0.1,0.1-0.1,0.3-0.1,0.4c0,0.2,0,0.4,0,0.6s0,0.5,0,0.6s0.1,0.3,0.1,0.4c0.1,0.2,0.2,0.4,0.3,0.5c0.2,0.1,0.3,0.2,0.6,0.2
			c0.2,0,0.4-0.1,0.6-0.2c0.2-0.1,0.3-0.3,0.4-0.5C369.6,136.3,369.6,136.2,369.7,136z"/>
		<path class="st3" d="M373.9,136.9c0.2-0.1,0.3-0.3,0.4-0.5c0,0,0,0,0.1-0.1c0,0,0.1,0,0.1,0l0.2,0.1c0.1,0,0.1,0.1,0.1,0.1
			c-0.1,0.3-0.3,0.5-0.6,0.7c-0.3,0.2-0.6,0.3-1,0.3c-0.4,0-0.7-0.1-1-0.3s-0.5-0.5-0.6-0.8c-0.1-0.3-0.2-0.7-0.2-1.2
			c0-0.2,0-0.4,0-0.6c0-0.1,0-0.3,0.1-0.4c0.1-0.4,0.3-0.7,0.6-0.9c0.3-0.2,0.6-0.3,1.1-0.3c0.5,0,0.9,0.1,1.2,0.4
			c0.3,0.3,0.5,0.6,0.5,1.1c0,0.2,0.1,0.5,0.1,0.9c0,0.1,0,0.1-0.1,0.1H372c0,0,0,0,0,0c0,0.3,0,0.5,0.1,0.6
			c0.1,0.3,0.2,0.5,0.4,0.6c0.2,0.2,0.5,0.2,0.8,0.2C373.4,137.1,373.7,137,373.9,136.9z M372.4,133.9c-0.2,0.1-0.3,0.3-0.4,0.6
			c0,0.1-0.1,0.3-0.1,0.6c0,0,0,0,0,0h2.2c0,0,0,0,0,0c0-0.3,0-0.4-0.1-0.5c-0.1-0.3-0.2-0.5-0.4-0.6c-0.2-0.2-0.4-0.2-0.7-0.2
			C372.8,133.7,372.6,133.8,372.4,133.9z"/>
		<path class="st3" d="M376.8,137.5l-1.2-4.1c0,0,0,0,0,0c0,0,0,0,0-0.1c0,0,0,0,0.1,0h0.4c0.1,0,0.1,0,0.1,0.1l0.9,3.3c0,0,0,0,0,0
			c0,0,0,0,0,0l0.9-3.3c0-0.1,0.1-0.1,0.1-0.1h0.4c0.1,0,0.1,0,0.1,0.1l0.9,3.3c0,0,0,0,0,0c0,0,0,0,0,0l0.9-3.3
			c0-0.1,0.1-0.1,0.1-0.1l0.4,0c0,0,0.1,0,0.1,0c0,0,0,0.1,0,0.1l-1.2,4.1c0,0.1-0.1,0.1-0.1,0.1h-0.4c-0.1,0-0.1,0-0.1-0.1
			l-0.9-3.2c0,0,0,0,0,0c0,0,0,0,0,0l-0.9,3.2c0,0.1-0.1,0.1-0.1,0.1h-0.4C376.8,137.6,376.8,137.5,376.8,137.5z"/>
		<path class="st3" d="M384.3,136.9c0.2-0.1,0.3-0.3,0.4-0.5c0,0,0,0,0.1-0.1c0,0,0.1,0,0.1,0l0.2,0.1c0.1,0,0.1,0.1,0.1,0.1
			c-0.1,0.3-0.3,0.5-0.6,0.7c-0.3,0.2-0.6,0.3-1,0.3c-0.4,0-0.7-0.1-1-0.3s-0.5-0.5-0.6-0.8c-0.1-0.3-0.2-0.7-0.2-1.2
			c0-0.2,0-0.4,0-0.6c0-0.1,0-0.3,0.1-0.4c0.1-0.4,0.3-0.7,0.6-0.9c0.3-0.2,0.6-0.3,1.1-0.3c0.5,0,0.9,0.1,1.2,0.4
			c0.3,0.3,0.5,0.6,0.5,1.1c0,0.2,0.1,0.5,0.1,0.9c0,0.1,0,0.1-0.1,0.1h-2.7c0,0,0,0,0,0c0,0.3,0,0.5,0.1,0.6
			c0.1,0.3,0.2,0.5,0.4,0.6c0.2,0.2,0.5,0.2,0.8,0.2C383.9,137.1,384.1,137,384.3,136.9z M382.9,133.9c-0.2,0.1-0.3,0.3-0.4,0.6
			c0,0.1-0.1,0.3-0.1,0.6c0,0,0,0,0,0h2.2c0,0,0,0,0,0c0-0.3,0-0.4-0.1-0.5c-0.1-0.3-0.2-0.5-0.4-0.6c-0.2-0.2-0.4-0.2-0.7-0.2
			C383.3,133.7,383.1,133.8,382.9,133.9z"/>
		<path class="st3" d="M389.3,133.2h0.4c0.1,0,0.1,0,0.1,0.1v4.1c0,0.6-0.2,1.1-0.6,1.4c-0.4,0.3-0.9,0.4-1.5,0.4
			c-0.1,0-0.2,0-0.3,0c-0.1,0-0.1,0-0.1-0.1l0-0.3c0-0.1,0-0.1,0.1-0.1c0.6,0,1-0.1,1.3-0.3c0.3-0.2,0.4-0.5,0.4-1v-0.3c0,0,0,0,0,0
			c0,0,0,0,0,0c-0.3,0.3-0.6,0.5-1.1,0.5c-0.4,0-0.7-0.1-1-0.3c-0.3-0.2-0.5-0.5-0.6-0.8c-0.1-0.2-0.1-0.6-0.1-1c0-0.3,0-0.5,0-0.6
			c0-0.2,0-0.3,0.1-0.5c0.1-0.3,0.3-0.6,0.6-0.8c0.3-0.2,0.6-0.3,1-0.3c0.5,0,0.9,0.2,1.1,0.5c0,0,0,0,0,0c0,0,0,0,0,0v-0.3
			C389.2,133.3,389.2,133.2,389.3,133.2z M389.2,135.9c0-0.1,0-0.3,0-0.5c0-0.3,0-0.5,0-0.6c0-0.1,0-0.2,0-0.3
			c0-0.2-0.2-0.4-0.3-0.6c-0.2-0.2-0.4-0.2-0.7-0.2c-0.3,0-0.5,0.1-0.7,0.2c-0.2,0.2-0.3,0.4-0.4,0.6c-0.1,0.2-0.1,0.5-0.1,0.9
			c0,0.4,0,0.7,0.1,0.9c0.1,0.2,0.2,0.4,0.4,0.6c0.2,0.2,0.4,0.2,0.7,0.2c0.3,0,0.5-0.1,0.7-0.2c0.2-0.2,0.3-0.4,0.3-0.6
			C389.2,136.2,389.2,136.1,389.2,135.9z"/>
		<path class="st3" d="M391.1,132.3c-0.1-0.1-0.1-0.2-0.1-0.3c0-0.1,0-0.2,0.1-0.3c0.1-0.1,0.2-0.1,0.3-0.1s0.2,0,0.3,0.1
			c0.1,0.1,0.1,0.2,0.1,0.3c0,0.1,0,0.2-0.1,0.3c-0.1,0.1-0.2,0.1-0.3,0.1S391.2,132.4,391.1,132.3z M391.2,137.4v-4.1
			c0-0.1,0-0.1,0.1-0.1h0.4c0.1,0,0.1,0,0.1,0.1v4.1c0,0.1,0,0.1-0.1,0.1h-0.4C391.2,137.6,391.2,137.5,391.2,137.4z"/>
		<path class="st3" d="M396.1,133.6c0.3,0.3,0.4,0.6,0.4,1.1v2.8c0,0.1,0,0.1-0.1,0.1H396c-0.1,0-0.1,0-0.1-0.1v-2.7
			c0-0.3-0.1-0.6-0.3-0.8c-0.2-0.2-0.4-0.3-0.7-0.3c-0.3,0-0.5,0.1-0.7,0.2c-0.2,0.2-0.3,0.4-0.3,0.6v2.8c0,0.1,0,0.1-0.1,0.1h-0.4
			c-0.1,0-0.1,0-0.1-0.1v-4.1c0-0.1,0-0.1,0.1-0.1h0.4c0.1,0,0.1,0,0.1,0.1v0.3c0,0,0,0,0,0c0,0,0,0,0,0c0.3-0.3,0.6-0.5,1.1-0.5
			C395.5,133.2,395.8,133.3,396.1,133.6z"/>
		<path class="st3" d="M400.6,133.2h0.4c0.1,0,0.1,0,0.1,0.1v4.1c0,0.6-0.2,1.1-0.6,1.4c-0.4,0.3-0.9,0.4-1.5,0.4
			c-0.1,0-0.2,0-0.3,0c-0.1,0-0.1,0-0.1-0.1l0-0.3c0-0.1,0-0.1,0.1-0.1c0.6,0,1-0.1,1.3-0.3c0.3-0.2,0.4-0.5,0.4-1v-0.3c0,0,0,0,0,0
			c0,0,0,0,0,0c-0.3,0.3-0.6,0.5-1.1,0.5c-0.4,0-0.7-0.1-1-0.3c-0.3-0.2-0.5-0.5-0.6-0.8c-0.1-0.2-0.1-0.6-0.1-1c0-0.3,0-0.5,0-0.6
			c0-0.2,0-0.3,0.1-0.5c0.1-0.3,0.3-0.6,0.6-0.8c0.3-0.2,0.6-0.3,1-0.3c0.5,0,0.9,0.2,1.1,0.5c0,0,0,0,0,0c0,0,0,0,0,0v-0.3
			C400.5,133.3,400.5,133.2,400.6,133.2z M400.5,135.9c0-0.1,0-0.3,0-0.5c0-0.3,0-0.5,0-0.6c0-0.1,0-0.2,0-0.3
			c0-0.2-0.2-0.4-0.3-0.6c-0.2-0.2-0.4-0.2-0.7-0.2c-0.3,0-0.5,0.1-0.7,0.2c-0.2,0.2-0.3,0.4-0.4,0.6c-0.1,0.2-0.1,0.5-0.1,0.9
			c0,0.4,0,0.7,0.1,0.9c0.1,0.2,0.2,0.4,0.4,0.6c0.2,0.2,0.4,0.2,0.7,0.2c0.3,0,0.5-0.1,0.7-0.2c0.2-0.2,0.3-0.4,0.3-0.6
			C400.5,136.2,400.5,136.1,400.5,135.9z"/>
	</g>
</g>
</svg>
