<svg xmlns="http://www.w3.org/2000/svg" viewBox="0 0 487.25 231.82"><defs><style>.cls-1,.cls-2{fill:none;stroke:#222221;stroke-miterlimit:10;}.cls-2{stroke-width:1.03px;}.cls-3{fill:#bbdcef;}.cls-4{fill:#c3003d;}.cls-5{fill:#222221;}</style></defs><title>mockup-sweatpants-los</title><g id="Layer_10" data-name="Layer 10"><path class="cls-1" d="M158.16,79.59c-2.54,11.46-7.38,48.91-7.38,59.61s-2.61,38.6-3.05,50.07c0,1.93,0,4.67,0,4.67,0,1-1.18,1.51-1.09,2.39s1.51.54,1.51,1.51-1,.62-1,1.77.71,4-1.68,3.18a25.27,25.27,0,0,0-7.79-.88,16.52,16.52,0,0,0-6.1,1c-1,.48-2.83,2.16-2.75-3.32.09-.8-1.06-.62-1.06-1.77s2-.27,2-1.59-1.33-1.15-1.33-2.48-2.32-42-2.32-54.46-4.44-63.26-4.44-81a214.61,214.61,0,0,1,3.42-35.45c.44-3,3.74-4.68,10.94-4.68s16.11,1.39,22.83,1.39,17.57-.73,22.46-.73,9.64-.49,10.5,5,3.53,15,3.53,35.89-4.39,64-4.39,84.71-2.44,40.65-2.44,45.41c0,1.5-.36,2.31-.36,3.48s1,.59,1,1.54-1.32,1-1.32,1.62,1.32.44,1.32,1.83-1.32.51-1.32,1.61,1.25.44,1.25,1.62-1,2.56-2.79,1.24-6-1.24-6-1.24a59.74,59.74,0,0,0-7.19.95c-1.69.51-3.59.81-3.59-1.25s1.24.59,1.24-1.54-1.24-.66-1.24-1.9,1.32-.66,1.32-1.62-1.47-.36-1.47-1.9-2.26-36.5-2.26-51.8S161,88,158.16,79.59Z"/><path class="cls-1" d="M130.38,203.51v7.72c0,1.09.41,2.4,2.77,2.4h9.49a2.52,2.52,0,0,0,3.11-2.74v-8.1"/><path class="cls-1" d="M171.31,202.88v8.35c0,1.09.41,2.4,2.77,2.4h9.49a2.52,2.52,0,0,0,3.11-2.74v-8.1"/><path class="cls-1" d="M270.91,203.76c-1.66-.07-1.78-.44-1.78-2.5s1.24.59,1.24-1.54-1.24-.66-1.24-1.9,1.32-.66,1.32-1.62-1.47-.36-1.47-1.9-2.26-36.5-2.26-51.8-6.07-54.5-9-62.91c-2.55,11.46-7.39,48.91-7.39,59.61s-2.6,38.6-3,50.07c0,1.93,0,4.67,0,4.67,0,1-1.17,1.51-1.09,2.39s1.51.54,1.51,1.51-1,.62-1,1.77,1.1,4.18-1.41,4.23"/><path class="cls-1" d="M230,204.11c-1,.48-1.67.28-1.52-4.5.09-.8-1.06-.62-1.06-1.77s2-.27,2-1.59-1.33-1.15-1.33-2.48-2.32-42-2.32-54.46-4.43-63.26-4.43-81a215.22,215.22,0,0,1,3.41-35.45c.45-3,3.74-4.68,10.94-4.68s16.12,1.39,22.83,1.39,17.58-.73,22.46-.73,9.64-.49,10.5,5,3.54,15,3.54,35.89-4.4,64-4.4,84.71-2.44,40.65-2.44,45.41c0,1.5-.36,2.31-.36,3.48s.95.59.95,1.54-1.32,1-1.32,1.62,1.32.44,1.32,1.83-1.32.51-1.32,1.61,1.25.44,1.25,1.62-.46,1.18-2.43,2.18"/><path class="cls-1" d="M230,204.11v7.12c0,1.09.42,2.4,2.77,2.4h9.5a2.52,2.52,0,0,0,3.11-2.74v-8.1"/><path class="cls-1" d="M270.91,203.76v7.47c0,1.09.42,2.4,2.77,2.4h9.5a2.51,2.51,0,0,0,3.1-2.74v-7.15"/><path class="cls-1" d="M230,204.11s10.3.64,15.38-.27"/><path class="cls-1" d="M270.91,203.76a81.12,81.12,0,0,0,15.37,0"/><path class="cls-1" d="M124.55,26.38c3.62,2.38,10.21,5.92,34,6.24l-.42,47"/><path class="cls-1" d="M192.45,27c-3.78,1.76-10.23,5.62-33.87,5.62"/><path class="cls-1" d="M126.47,20.41c3.68,1.57,12.15,4.8,32.11,4.8s29.25-2.81,32-4.48"/><path class="cls-1" d="M129.23,28.81c-.5,4.3-7.36,23.38-7.36,23.38"/><path class="cls-1" d="M188.4,28.81c-.15,2.74,6.92,24.17,6.92,24.17"/><path class="cls-1" d="M287.89,39.76a121.63,121.63,0,0,1-22.63,0c.1,3.81,0,20.62,0,20.62,0,2.22,1.9,3.81,4.65,3.81h14.38s4.23.42,4.23-4.86S287.89,39.76,287.89,39.76Z"/><path class="cls-2" d="M292.36,27.52c-2-.64-14.66-2.12-35.2-1.07-19.37-1.05-31.4-.26-33.19,1.07"/><line class="cls-2" x1="257.16" y1="26.45" x2="257.77" y2="79.59"/><path class="cls-2" d="M360.47,18.84c2.22,7.76,5,17.28,5,28.19s-5,26.71-5,56.82,5,41.47,5,65.33c.44,5.3-2.52,15.31-2.52,22.36,0,1,0,3.41,0,3.41,0,.89-1.22.82-1.22,2.05s1.22-.41,1.22,1-1.63.95-1.63,2.38.81,2-.21,2,.34,3.28-1.57,3.28-10.1-3.41-13.79-3.41c-1,0-2.52-1-2.52-2.19s2-.41,2-2.45c0-1-2,.2-2-1s1.23-.07,1.23-1.5-1.78-.55-1.78-2.8.55-.88.55-7.1-4.22-33.51-7.41-46-9-30.61-10.72-59.63-3.83-40-3.46-53.63c6.81-3.12,17.39-7.8,29.35-7.77A54.5,54.5,0,0,1,360.47,18.84Z"/><path class="cls-2" d="M321.65,32.74c4.86-1.87,15.14-6.78,28.69-6.78s12.24.49,12.24.49"/><path class="cls-2" d="M340.93,26.74c0,9.27,2.71,63.18,4.43,83.59S353,147.88,353,188.39v15.35"/><path class="cls-2" d="M345.81,202.26a54.45,54.45,0,0,1,.36,8.48c2.33.16,8.18,2.89,10.6,2.89h2.43l.4-8"/><path class="cls-2" d="M336.9,27.54c0,5,2.06,15.47,5,23.81"/><path class="cls-1" d="M130.38,211.23a15.43,15.43,0,0,1,6.72-1.65,31.58,31.58,0,0,1,8.65,1.31"/><path class="cls-1" d="M171.31,211.23a15.43,15.43,0,0,1,6.72-1.65,31.58,31.58,0,0,1,8.65,1.31"/><path class="cls-3" d="M126.48,61.14h1.61a0,0,0,0,1,0,0v3.22a0,0,0,0,1,0,0h-1.61a1.61,1.61,0,0,1-1.61-1.61v0A1.61,1.61,0,0,1,126.48,61.14Z" transform="translate(-7.33 107.82) rotate(-45)"/><path class="cls-3" d="M127.38,58.64H129a1.59,1.59,0,0,1,1.59,1.59v1.63a0,0,0,0,1,0,0h-3.22a0,0,0,0,1,0,0V58.64A0,0,0,0,1,127.38,58.64Z" transform="translate(-4.82 108.86) rotate(-45)"/><path class="cls-4" d="M129.89,61.14h3.22a0,0,0,0,1,0,0v3.22a0,0,0,0,1,0,0H131.5a1.61,1.61,0,0,1-1.61-1.61V61.14A0,0,0,0,1,129.89,61.14Z" transform="translate(-5.86 111.36) rotate(-45)"/><path class="cls-4" d="M132.39,58.64H134a1.61,1.61,0,0,1,1.61,1.61v1.61a0,0,0,0,1,0,0h-3.22a0,0,0,0,1,0,0V58.64A0,0,0,0,1,132.39,58.64Z" transform="translate(-3.35 112.4) rotate(-45)"/><path class="cls-3" d="M134.9,61.14h3.22a0,0,0,0,1,0,0v1.61a1.61,1.61,0,0,1-1.61,1.61h0a1.61,1.61,0,0,1-1.61-1.61V61.14A0,0,0,0,1,134.9,61.14Z" transform="translate(-4.39 114.91) rotate(-45)"/><path class="cls-5" d="M142.82,60.47a.86.86,0,0,1,.2.61v1.1a.24.24,0,0,1-.05.14.22.22,0,0,1-.14,0,.19.19,0,0,1-.2-.19v-1.1a.49.49,0,0,0-.12-.36.41.41,0,0,0-.31-.12.45.45,0,0,0-.33.14.52.52,0,0,0-.13.35v1.09a.24.24,0,0,1-.05.14.22.22,0,0,1-.14,0,.19.19,0,0,1-.2-.19v-1.1a.49.49,0,0,0-.12-.36.41.41,0,0,0-.31-.12.42.42,0,0,0-.33.14.48.48,0,0,0-.13.35v1.09a.19.19,0,0,1-.2.19.24.24,0,0,1-.14,0,.19.19,0,0,1-.05-.14V60.47a.2.2,0,0,1,.05-.15.24.24,0,0,1,.14,0,.22.22,0,0,1,.14,0,.18.18,0,0,1,.06.14.6.6,0,0,1,.24-.16.73.73,0,0,1,.3,0,.81.81,0,0,1,.35.07.69.69,0,0,1,.25.23.89.89,0,0,1,.29-.22.85.85,0,0,1,.39-.08A.7.7,0,0,1,142.82,60.47Z"/><path class="cls-5" d="M143.9,62.28a1,1,0,0,1-.38-.38,1.24,1.24,0,0,1-.13-.55,1.28,1.28,0,0,1,.13-.56,1,1,0,0,1,.38-.37,1.15,1.15,0,0,1,1.1,0,.94.94,0,0,1,.37.37,1.16,1.16,0,0,1,.14.56,1.12,1.12,0,0,1-.14.55,1,1,0,0,1-.37.38,1.09,1.09,0,0,1-.55.13A1.12,1.12,0,0,1,143.9,62.28Zm.9-.31a.6.6,0,0,0,.25-.25.9.9,0,0,0,0-.74.63.63,0,0,0-.25-.26.73.73,0,0,0-.7,0,.6.6,0,0,0-.24.26.81.81,0,0,0,0,.74.58.58,0,0,0,.24.25.66.66,0,0,0,.7,0Z"/><path class="cls-5" d="M147.69,60.36a.17.17,0,0,1,0,.1.11.11,0,0,1,0,.07l-.83,1.75a.19.19,0,0,1-.18.13.2.2,0,0,1-.11,0,.29.29,0,0,1-.08-.1l-.83-1.75a.15.15,0,0,1,0-.07.17.17,0,0,1,.11-.16l.08,0a.16.16,0,0,1,.09,0,.11.11,0,0,1,.06.07l.69,1.47.67-1.47a.16.16,0,0,1,.07-.07.17.17,0,0,1,.1,0l.09,0A.14.14,0,0,1,147.69,60.36Z"/><path class="cls-5" d="M149.82,61.43a.13.13,0,0,1-.12,0h-1.46a.63.63,0,0,0,.24.44.74.74,0,0,0,.49.16.67.67,0,0,0,.24,0,.69.69,0,0,0,.21-.1.19.19,0,0,1,.13,0,.21.21,0,0,1,.11,0,.16.16,0,0,1,.07.13.14.14,0,0,1-.06.12,1.28,1.28,0,0,1-.33.17,1.24,1.24,0,0,1-.37.06,1.13,1.13,0,0,1-.56-.13,1,1,0,0,1-.39-.38,1,1,0,0,1-.14-.55,1.09,1.09,0,0,1,.13-.55.9.9,0,0,1,.37-.38,1.09,1.09,0,0,1,.54-.14,1,1,0,0,1,.51.13.91.91,0,0,1,.33.37,1.25,1.25,0,0,1,.11.53A.13.13,0,0,1,149.82,61.43Zm-1.36-.67a.69.69,0,0,0-.22.42h1.28a.71.71,0,0,0-.19-.42.59.59,0,0,0-.41-.15A.69.69,0,0,0,148.46,60.76Z"/><path class="cls-5" d="M150.37,61.44a.19.19,0,0,1-.05-.14.16.16,0,0,1,.05-.14.14.14,0,0,1,.11-.06h.73a.16.16,0,0,1,.12.06.2.2,0,0,1,0,.14.23.23,0,0,1,0,.14.18.18,0,0,1-.12.05h-.73A.16.16,0,0,1,150.37,61.44Z"/><path class="cls-5" d="M153.86,59.45a.18.18,0,0,1,.06.14v1.75a1.12,1.12,0,0,1-.14.55,1.06,1.06,0,0,1-.38.38,1.07,1.07,0,0,1-1.46-.38,1.12,1.12,0,0,1-.14-.55,1.08,1.08,0,0,1,.13-.54,1,1,0,0,1,.35-.38,1,1,0,0,1,.5-.14,1,1,0,0,1,.42.09.93.93,0,0,1,.33.26v-1a.22.22,0,0,1,.05-.14.19.19,0,0,1,.14-.05A.16.16,0,0,1,153.86,59.45ZM153.21,62a.67.67,0,0,0,.24-.26.75.75,0,0,0,.09-.37.74.74,0,0,0-.09-.36.63.63,0,0,0-.59-.35.7.7,0,0,0-.35.09.67.67,0,0,0-.24.26.74.74,0,0,0-.09.36.75.75,0,0,0,.09.37.67.67,0,0,0,.24.26.62.62,0,0,0,.35.1A.6.6,0,0,0,153.21,62Z"/><path class="cls-5" d="M142.82,60.47a.86.86,0,0,1,.2.61v1.1a.24.24,0,0,1-.05.14.22.22,0,0,1-.14,0,.19.19,0,0,1-.2-.19v-1.1a.49.49,0,0,0-.12-.36.41.41,0,0,0-.31-.12.45.45,0,0,0-.33.14.52.52,0,0,0-.13.35v1.09a.24.24,0,0,1-.05.14.22.22,0,0,1-.14,0,.19.19,0,0,1-.2-.19v-1.1a.49.49,0,0,0-.12-.36.41.41,0,0,0-.31-.12.42.42,0,0,0-.33.14.48.48,0,0,0-.13.35v1.09a.19.19,0,0,1-.2.19.24.24,0,0,1-.14,0,.19.19,0,0,1-.05-.14V60.47a.2.2,0,0,1,.05-.15.24.24,0,0,1,.14,0,.22.22,0,0,1,.14,0,.18.18,0,0,1,.06.14.6.6,0,0,1,.24-.16.73.73,0,0,1,.3,0,.81.81,0,0,1,.35.07.69.69,0,0,1,.25.23.89.89,0,0,1,.29-.22.85.85,0,0,1,.39-.08A.7.7,0,0,1,142.82,60.47Z"/><path class="cls-5" d="M143.9,62.28a1,1,0,0,1-.38-.38,1.24,1.24,0,0,1-.13-.55,1.28,1.28,0,0,1,.13-.56,1,1,0,0,1,.38-.37,1.15,1.15,0,0,1,1.1,0,.94.94,0,0,1,.37.37,1.16,1.16,0,0,1,.14.56,1.12,1.12,0,0,1-.14.55,1,1,0,0,1-.37.38,1.09,1.09,0,0,1-.55.13A1.12,1.12,0,0,1,143.9,62.28Zm.9-.31a.6.6,0,0,0,.25-.25.9.9,0,0,0,0-.74.63.63,0,0,0-.25-.26.73.73,0,0,0-.7,0,.6.6,0,0,0-.24.26.81.81,0,0,0,0,.74.58.58,0,0,0,.24.25.66.66,0,0,0,.7,0Z"/><path class="cls-5" d="M147.69,60.36a.17.17,0,0,1,0,.1.11.11,0,0,1,0,.07l-.83,1.75a.19.19,0,0,1-.18.13.2.2,0,0,1-.11,0,.29.29,0,0,1-.08-.1l-.83-1.75a.15.15,0,0,1,0-.07.17.17,0,0,1,.11-.16l.08,0a.16.16,0,0,1,.09,0,.11.11,0,0,1,.06.07l.69,1.47.67-1.47a.16.16,0,0,1,.07-.07.17.17,0,0,1,.1,0l.09,0A.14.14,0,0,1,147.69,60.36Z"/><path class="cls-5" d="M149.82,61.43a.13.13,0,0,1-.12,0h-1.46a.63.63,0,0,0,.24.44.74.74,0,0,0,.49.16.67.67,0,0,0,.24,0,.69.69,0,0,0,.21-.1.19.19,0,0,1,.13,0,.21.21,0,0,1,.11,0,.16.16,0,0,1,.07.13.14.14,0,0,1-.06.12,1.28,1.28,0,0,1-.33.17,1.24,1.24,0,0,1-.37.06,1.13,1.13,0,0,1-.56-.13,1,1,0,0,1-.39-.38,1,1,0,0,1-.14-.55,1.09,1.09,0,0,1,.13-.55.9.9,0,0,1,.37-.38,1.09,1.09,0,0,1,.54-.14,1,1,0,0,1,.51.13.91.91,0,0,1,.33.37,1.25,1.25,0,0,1,.11.53A.13.13,0,0,1,149.82,61.43Zm-1.36-.67a.69.69,0,0,0-.22.42h1.28a.71.71,0,0,0-.19-.42.59.59,0,0,0-.41-.15A.69.69,0,0,0,148.46,60.76Z"/><path class="cls-5" d="M150.37,61.44a.19.19,0,0,1-.05-.14.16.16,0,0,1,.05-.14.14.14,0,0,1,.11-.06h.73a.16.16,0,0,1,.12.06.2.2,0,0,1,0,.14.23.23,0,0,1,0,.14.18.18,0,0,1-.12.05h-.73A.16.16,0,0,1,150.37,61.44Z"/><path class="cls-5" d="M153.86,59.45a.18.18,0,0,1,.06.14v1.75a1.12,1.12,0,0,1-.14.55,1.06,1.06,0,0,1-.38.38,1.07,1.07,0,0,1-1.46-.38,1.12,1.12,0,0,1-.14-.55,1.08,1.08,0,0,1,.13-.54,1,1,0,0,1,.35-.38,1,1,0,0,1,.5-.14,1,1,0,0,1,.42.09.93.93,0,0,1,.33.26v-1a.22.22,0,0,1,.05-.14.19.19,0,0,1,.14-.05A.16.16,0,0,1,153.86,59.45ZM153.21,62a.67.67,0,0,0,.24-.26.75.75,0,0,0,.09-.37.74.74,0,0,0-.09-.36.63.63,0,0,0-.59-.35.7.7,0,0,0-.35.09.67.67,0,0,0-.24.26.74.74,0,0,0-.09.36.75.75,0,0,0,.09.37.67.67,0,0,0,.24.26.62.62,0,0,0,.35.1A.6.6,0,0,0,153.21,62Z"/><path class="cls-4" d="M140.12,63.13a.06.06,0,0,1,0-.06.05.05,0,0,1,0,0s0,0,.06,0a.07.07,0,0,1,.06,0,.08.08,0,0,1,0,0,.08.08,0,0,1,0,.06.07.07,0,0,1-.06,0S140.13,63.15,140.12,63.13Zm0,.92v-.74a0,0,0,0,1,0,0h.07a0,0,0,0,1,0,0v.74a0,0,0,0,1,0,0h-.07A0,0,0,0,1,140.12,64.05Z"/><path class="cls-4" d="M140.91,64a.16.16,0,0,0,.07-.09h0l0,0s0,0,0,0A.24.24,0,0,1,141,64a.31.31,0,0,1-.17,0,.35.35,0,0,1-.18,0,.26.26,0,0,1-.11-.14.58.58,0,0,1,0-.21v-.11s0,0,0-.07a.25.25,0,0,1,.1-.16.31.31,0,0,1,.19-.06.28.28,0,0,1,.21.07.39.39,0,0,1,.1.19.71.71,0,0,1,0,.16,0,0,0,0,1,0,0h-.5a.34.34,0,0,0,0,.11.19.19,0,0,0,.07.11.29.29,0,0,0,.14,0A.27.27,0,0,0,140.91,64Zm-.26-.55a.19.19,0,0,0-.07.11s0,.06,0,.1,0,0,0,0H141s0,0,0,0,0-.07,0-.09a.14.14,0,0,0-.07-.11.18.18,0,0,0-.13,0A.21.21,0,0,0,140.65,63.41Z"/><path class="cls-4" d="M141.8,63h.07s0,0,0,0v1a0,0,0,0,1,0,0h-.07a0,0,0,0,1,0,0V64h0a.27.27,0,0,1-.08.07l-.11,0a.35.35,0,0,1-.18,0,.31.31,0,0,1-.1-.15.59.59,0,0,1,0-.2,1,1,0,0,1,0-.19.33.33,0,0,1,.1-.15.29.29,0,0,1,.19-.06l.11,0a.27.27,0,0,1,.08.07h0V63S141.79,63,141.8,63Zm0,.8a.41.41,0,0,0,0-.12.31.31,0,0,0,0-.11.19.19,0,0,0,0-.08.16.16,0,0,0-.06-.08.17.17,0,0,0-.1,0,.2.2,0,0,0-.11,0,.12.12,0,0,0-.06.08l0,.07s0,.07,0,.12,0,.09,0,.11a.24.24,0,0,0,0,.08.18.18,0,0,0,.07.08.14.14,0,0,0,.11,0,.13.13,0,0,0,.1,0,.16.16,0,0,0,.06-.08A.19.19,0,0,0,141.77,63.8Z"/><path class="cls-4" d="M142.56,64a.16.16,0,0,0,.07-.09h0l0,0s0,0,0,0a.24.24,0,0,1-.11.13.31.31,0,0,1-.17,0,.35.35,0,0,1-.18,0,.26.26,0,0,1-.11-.14.58.58,0,0,1,0-.21v-.11s0,0,0-.07a.25.25,0,0,1,.1-.16.31.31,0,0,1,.19-.06.28.28,0,0,1,.21.07.39.39,0,0,1,.1.19s0,.09,0,.16l0,0h-.5a.34.34,0,0,0,0,.11.19.19,0,0,0,.07.11.29.29,0,0,0,.14,0Zm-.26-.55a.19.19,0,0,0-.07.11s0,.06,0,.1,0,0,0,0h.39s0,0,0,0,0-.07,0-.09a.14.14,0,0,0-.07-.11.18.18,0,0,0-.13,0A.21.21,0,0,0,142.3,63.41Z"/><path class="cls-4" d="M143.35,63.3a0,0,0,0,1,0,0v.07h-.1a.18.18,0,0,0-.14.06.22.22,0,0,0-.05.14v.45s0,0,0,0H143a0,0,0,0,1,0,0v-.74a0,0,0,0,1,0,0H143s0,0,0,0v.09h0l.08-.08a.24.24,0,0,1,.12,0Z"/><path class="cls-4" d="M143.93,64a.22.22,0,0,0,.07-.09h0l0,0s0,0,0,0A.24.24,0,0,1,144,64a.33.33,0,0,1-.17,0,.35.35,0,0,1-.18,0,.26.26,0,0,1-.11-.14.58.58,0,0,1,0-.21v-.11s0,0,0-.07a.25.25,0,0,1,.1-.16.31.31,0,0,1,.19-.06.28.28,0,0,1,.21.07.39.39,0,0,1,.1.19s0,.09,0,.16l0,0h-.5a.34.34,0,0,0,0,.11.19.19,0,0,0,.07.11.29.29,0,0,0,.14,0Zm-.26-.55a.19.19,0,0,0-.07.11.28.28,0,0,0,0,.1s0,0,0,0H144s0,0,0,0,0-.07,0-.09a.18.18,0,0,0-.07-.11.18.18,0,0,0-.13,0A.21.21,0,0,0,143.67,63.41Z"/><path class="cls-4" d="M144.74,64a.18.18,0,0,0,.08-.09h0l0,0s0,0,0,0a.24.24,0,0,1-.11.13.33.33,0,0,1-.17,0,.36.36,0,0,1-.19,0,.3.3,0,0,1-.1-.14.58.58,0,0,1,0-.21v-.11s0,0,0-.07a.3.3,0,0,1,.3-.22.28.28,0,0,1,.21.07.39.39,0,0,1,.1.19s0,.09,0,.16l0,0h-.5a.34.34,0,0,0,0,.11.19.19,0,0,0,.07.11.26.26,0,0,0,.14,0A.2.2,0,0,0,144.74,64Zm-.26-.55a.24.24,0,0,0-.06.11.28.28,0,0,0,0,.1h.4a0,0,0,0,0,0,0,.34.34,0,0,1,0-.09.18.18,0,0,0-.07-.11.2.2,0,0,0-.13,0A.28.28,0,0,0,144.48,63.41Z"/><path class="cls-4" d="M145.66,63.35a.27.27,0,0,1,.07.2v.5a0,0,0,0,1,0,0h-.07a0,0,0,0,1,0,0v-.48a.22.22,0,0,0-.05-.14.15.15,0,0,0-.13,0,.18.18,0,0,0-.13,0,.23.23,0,0,0-.06.12v.51a0,0,0,0,1,0,0h-.07a0,0,0,0,1,0,0v-.74a0,0,0,0,1,0,0h.07a0,0,0,0,1,0,0v.06h0a.23.23,0,0,1,.2-.09A.32.32,0,0,1,145.66,63.35Z"/><path class="cls-4" d="M146.28,63.13a.08.08,0,0,1,0-.06.08.08,0,0,1,0,0,.07.07,0,0,1,.06,0s0,0,.06,0,0,0,0,0,0,0,0,.06,0,0-.06,0A.07.07,0,0,1,146.28,63.13Zm0,.92v-.74s0,0,0,0h.07a0,0,0,0,1,0,0v.74a0,0,0,0,1,0,0h-.07S146.29,64.06,146.29,64.05Z"/><path class="cls-4" d="M147.17,63.35a.32.32,0,0,1,.07.2v.5a0,0,0,0,1,0,0h-.07a0,0,0,0,1,0,0v-.48a.22.22,0,0,0,0-.14.15.15,0,0,0-.13,0,.18.18,0,0,0-.13,0,.14.14,0,0,0-.06.12v.51a0,0,0,0,1,0,0h-.07a0,0,0,0,1,0,0v-.74a0,0,0,0,1,0,0h.07a0,0,0,0,1,0,0v.06h0a.23.23,0,0,1,.2-.09A.32.32,0,0,1,147.17,63.35Z"/><path class="cls-4" d="M148.4,63.68a1,1,0,0,1,0,.2.4.4,0,0,1-.1.15.35.35,0,0,1-.18,0l-.12,0a.27.27,0,0,1-.08-.07h0v.06s0,0,0,0h-.07a0,0,0,0,1,0,0V63s0,0,0,0h.07s0,0,0,0v.35h0a.22.22,0,0,1,.09-.07l.11,0a.28.28,0,0,1,.18.06.27.27,0,0,1,.1.15A.84.84,0,0,1,148.4,63.68Zm-.12.11a.31.31,0,0,0,0-.11.41.41,0,0,0,0-.12.11.11,0,0,0,0-.07.12.12,0,0,0-.06-.08.2.2,0,0,0-.11,0,.17.17,0,0,0-.1,0,.24.24,0,0,0-.06.08s0,0,0,.08v.23s0,.05,0,.07A.16.16,0,0,0,148,64a.14.14,0,0,0,.11,0,.15.15,0,0,0,.11,0,.16.16,0,0,0,.06-.08A.24.24,0,0,0,148.28,63.79Z"/><path class="cls-4" d="M149,64a.18.18,0,0,0,.08-.09h0l0,0s0,0,0,0a.24.24,0,0,1-.11.13.33.33,0,0,1-.17,0,.35.35,0,0,1-.18,0,.26.26,0,0,1-.11-.14.58.58,0,0,1,0-.21v-.11s0,0,0-.07a.3.3,0,0,1,.3-.22.28.28,0,0,1,.21.07.39.39,0,0,1,.1.19s0,.09,0,.16a0,0,0,0,1,0,0h-.5a.34.34,0,0,0,0,.11.19.19,0,0,0,.07.11.29.29,0,0,0,.14,0A.2.2,0,0,0,149,64Zm-.25-.55a.19.19,0,0,0-.07.11.28.28,0,0,0,0,.1s0,0,0,0h.39s0,0,0,0,0-.07,0-.09a.18.18,0,0,0-.07-.11.18.18,0,0,0-.13,0A.21.21,0,0,0,148.78,63.41Z"/><path class="cls-4" d="M149.56,64.05l-.22-.73h.09a0,0,0,0,1,0,0l.16.6h0l.16-.6s0,0,0,0h.06a0,0,0,0,1,0,0l.17.6h0l.16-.6,0,0h.08s0,0,0,0l-.21.73,0,0H150a0,0,0,0,1,0,0l-.17-.56h0l-.15.56,0,0h-.07A0,0,0,0,1,149.56,64.05Z"/><path class="cls-4" d="M150.91,64a.18.18,0,0,0,.08-.09h0l0,0s0,0,0,0A.24.24,0,0,1,151,64a.38.38,0,0,1-.36,0,.3.3,0,0,1-.1-.14.58.58,0,0,1,0-.21v-.11s0,0,0-.07a.31.31,0,0,1,.11-.16.29.29,0,0,1,.19-.06.28.28,0,0,1,.21.07.39.39,0,0,1,.1.19v.16s0,0,0,0h-.49a.34.34,0,0,0,0,.11.19.19,0,0,0,.07.11.25.25,0,0,0,.13,0A.21.21,0,0,0,150.91,64Zm-.26-.55a.24.24,0,0,0-.06.11.28.28,0,0,0,0,.1h.4a0,0,0,0,0,0,0,.34.34,0,0,1,0-.09.18.18,0,0,0-.07-.11.2.2,0,0,0-.13,0A.28.28,0,0,0,150.65,63.41Z"/><path class="cls-4" d="M151.81,63.29h.07a0,0,0,0,1,0,0V64a.31.31,0,0,1-.1.25.4.4,0,0,1-.27.08h-.05s0,0,0,0v-.06a0,0,0,0,1,0,0,.33.33,0,0,0,.24,0,.22.22,0,0,0,.07-.18V64h0a.24.24,0,0,1-.2.09.29.29,0,0,1-.18,0,.31.31,0,0,1-.1-.15.84.84,0,0,1,0-.19.37.37,0,0,1,0-.11.28.28,0,0,1,0-.09.24.24,0,0,1,.1-.14.27.27,0,0,1,.17-.06.26.26,0,0,1,.21.09h0v-.06A0,0,0,0,1,151.81,63.29Zm0,.49v-.21a.43.43,0,0,1,0,0,.21.21,0,0,0-.06-.1.2.2,0,0,0-.24,0,.14.14,0,0,0-.07.1.63.63,0,0,0,0,.16.49.49,0,0,0,0,.15.2.2,0,0,0,.06.11.2.2,0,0,0,.13,0,.16.16,0,0,0,.12,0,.2.2,0,0,0,.06-.11A.43.43,0,0,0,151.79,63.78Z"/><path class="cls-4" d="M152.14,63.13a.06.06,0,0,1,0-.06.05.05,0,0,1,0,0s0,0,.06,0a.07.07,0,0,1,.06,0,.08.08,0,0,1,0,0,.08.08,0,0,1,0,.06.07.07,0,0,1-.06,0S152.15,63.15,152.14,63.13Zm0,.92v-.74a0,0,0,0,1,0,0h.07s0,0,0,0v.74s0,0,0,0h-.07A0,0,0,0,1,152.14,64.05Z"/><path class="cls-4" d="M153,63.35a.28.28,0,0,1,.08.2v.5a0,0,0,0,1,0,0H153s0,0,0,0v-.48a.22.22,0,0,0-.05-.14.17.17,0,0,0-.14,0,.2.2,0,0,0-.13,0,.17.17,0,0,0,0,.12v.51a0,0,0,0,1,0,0h-.07s0,0,0,0v-.74s0,0,0,0h.07a0,0,0,0,1,0,0v.06h0a.26.26,0,0,1,.21-.09A.29.29,0,0,1,153,63.35Z"/><path class="cls-4" d="M153.83,63.29h.07a0,0,0,0,1,0,0V64a.28.28,0,0,1-.1.25.4.4,0,0,1-.27.08h-.05a0,0,0,0,1,0,0v-.06a0,0,0,0,1,0,0,.33.33,0,0,0,.24,0s.07-.09.07-.18V64h0a.23.23,0,0,1-.2.09.26.26,0,0,1-.17,0,.27.27,0,0,1-.11-.15.84.84,0,0,1,0-.19s0-.08,0-.11,0-.06,0-.09a.3.3,0,0,1,.1-.14.28.28,0,0,1,.18-.06.24.24,0,0,1,.2.09h0v-.06A0,0,0,0,1,153.83,63.29Zm0,.49v-.21a.11.11,0,0,0,0,0,.21.21,0,0,0-.06-.1.2.2,0,0,0-.24,0,.14.14,0,0,0-.07.1.63.63,0,0,0,0,.16.49.49,0,0,0,0,.15.2.2,0,0,0,.06.11.2.2,0,0,0,.13,0,.16.16,0,0,0,.12,0,.13.13,0,0,0,.06-.11A.07.07,0,0,0,153.81,63.78Z"/></g></svg>